Cause-Thin.ufo
<glyph name="exclam" format="1">
  <advance width="223"/>
  <unicode hex="0021"/>
  <outline>
    <contour>
      <point x="121.2" y="204" type="curve" smooth="yes"/>
      <point x="112.7" y="273.1"/>
      <point x="108.5" y="361"/>
      <point x="108.5" y="448.3" type="curve" smooth="yes"/>
      <point x="108.5" y="537.8"/>
      <point x="112.9" y="626.8"/>
      <point x="121.8" y="694.3" type="curve" smooth="yes"/>
      <point x="122.8" y="701.9"/>
      <point x="118.2" y="705.9"/>
      <point x="113.4" y="705.9" type="curve" smooth="yes"/>
      <point x="109" y="705.9"/>
      <point x="104.5" y="702.6"/>
      <point x="103.7" y="695.9" type="curve" smooth="yes"/>
      <point x="95" y="624.2"/>
      <point x="90.6" y="531"/>
      <point x="90.6" y="439.7" type="curve" smooth="yes"/>
      <point x="90.6" y="352.2"/>
      <point x="94.6" y="266.4"/>
      <point x="102.7" y="203" type="curve" smooth="yes"/>
      <point x="103.5" y="196.8"/>
      <point x="107.7" y="194.2"/>
      <point x="111.9" y="194.2" type="curve" smooth="yes"/>
      <point x="116.9" y="194.2"/>
      <point x="121.9" y="198"/>
    </contour>
    <contour>
      <point x="122" y="-9.8" type="curve" smooth="yes"/>
      <point x="138.3" y="-9.8"/>
      <point x="148" y="0.2"/>
      <point x="148" y="17.1" type="curve" smooth="yes"/>
      <point x="148" y="32.9"/>
      <point x="138.5" y="41.9"/>
      <point x="122" y="41.9" type="curve" smooth="yes"/>
      <point x="107.6" y="41.9"/>
      <point x="98" y="32"/>
      <point x="98" y="17.1" type="curve" smooth="yes"/>
      <point x="98" y="0"/>
      <point x="106.7" y="-9.8"/>
    </contour>
  </outline>
</glyph>
<glyph name="quotedbl" format="1">
  <advance width="303"/>
  <unicode hex="0022"/>
  <outline>
    <contour>
      <point x="82" y="506" type="curve" smooth="yes"/>
      <point x="85" y="585"/>
      <point x="85" y="627"/>
      <point x="83" y="698" type="curve" smooth="yes"/>
      <point x="83" y="704"/>
      <point x="79" y="708"/>
      <point x="74" y="708" type="curve" smooth="yes"/>
      <point x="69" y="708"/>
      <point x="65" y="704"/>
      <point x="65" y="698" type="curve" smooth="yes"/>
      <point x="69" y="627"/>
      <point x="69" y="586"/>
      <point x="67" y="506" type="curve" smooth="yes"/>
      <point x="67" y="502"/>
      <point x="70" y="499"/>
      <point x="74" y="499" type="curve" smooth="yes"/>
      <point x="78" y="499"/>
      <point x="81" y="502"/>
    </contour>
    <contour>
      <point x="210" y="506" type="curve" smooth="yes"/>
      <point x="214" y="585"/>
      <point x="214" y="627"/>
      <point x="211" y="698" type="curve" smooth="yes"/>
      <point x="211" y="704"/>
      <point x="207" y="708"/>
      <point x="202" y="708" type="curve" smooth="yes"/>
      <point x="197" y="708"/>
      <point x="194" y="704"/>
      <point x="194" y="698" type="curve" smooth="yes"/>
      <point x="197" y="627"/>
      <point x="197" y="586"/>
      <point x="196" y="506" type="curve" smooth="yes"/>
      <point x="196" y="502"/>
      <point x="198" y="499"/>
      <point x="203" y="499" type="curve" smooth="yes"/>
      <point x="207" y="499"/>
      <point x="210" y="502"/>
    </contour>
  </outline>
</glyph>
<glyph name="numbersign" format="1">
  <advance width="678"/>
  <unicode hex="0023"/>
  <outline>
    <contour>
      <point x="169" y="2" type="curve" smooth="yes"/>
      <point x="183" y="81"/>
      <point x="194" y="150"/>
      <point x="204" y="214" type="curve"/>
      <point x="286" y="214"/>
      <point x="362" y="217"/>
      <point x="444" y="222" type="curve"/>
      <point x="434" y="158"/>
      <point x="422" y="87"/>
      <point x="407" y="5" type="curve" smooth="yes"/>
      <point x="406" y="-2"/>
      <point x="411" y="-6"/>
      <point x="416" y="-6" type="curve" smooth="yes"/>
      <point x="420" y="-6"/>
      <point x="424" y="-4"/>
      <point x="425" y="2" type="curve" smooth="yes"/>
      <point x="440" y="85"/>
      <point x="452" y="157"/>
      <point x="462" y="223" type="curve"/>
      <point x="506" y="226"/>
      <point x="551" y="230"/>
      <point x="598" y="235" type="curve" smooth="yes"/>
      <point x="604" y="236"/>
      <point x="607" y="240"/>
      <point x="607" y="244" type="curve" smooth="yes"/>
      <point x="607" y="249"/>
      <point x="603" y="253"/>
      <point x="595" y="252" type="curve" smooth="yes"/>
      <point x="555" y="247"/>
      <point x="511" y="243"/>
      <point x="465" y="240" type="curve"/>
      <point x="476" y="314"/>
      <point x="485" y="381"/>
      <point x="491" y="445" type="curve"/>
      <point x="532" y="448"/>
      <point x="574" y="452"/>
      <point x="618" y="456" type="curve" smooth="yes"/>
      <point x="624" y="457"/>
      <point x="627" y="461"/>
      <point x="627" y="465" type="curve" smooth="yes"/>
      <point x="627" y="470"/>
      <point x="623" y="474"/>
      <point x="615" y="473" type="curve" smooth="yes"/>
      <point x="577" y="469"/>
      <point x="536" y="465"/>
      <point x="493" y="462" type="curve"/>
      <point x="501" y="540"/>
      <point x="506" y="615"/>
      <point x="509" y="697" type="curve" smooth="yes"/>
      <point x="509" y="703"/>
      <point x="504" y="707"/>
      <point x="499" y="707" type="curve" smooth="yes"/>
      <point x="495" y="707"/>
      <point x="491" y="704"/>
      <point x="491" y="697" type="curve" smooth="yes"/>
      <point x="487" y="611"/>
      <point x="483" y="537"/>
      <point x="475" y="460" type="curve"/>
      <point x="400" y="455"/>
      <point x="318" y="453"/>
      <point x="235" y="453" type="curve"/>
      <point x="244" y="535"/>
      <point x="249" y="612"/>
      <point x="252" y="697" type="curve" smooth="yes"/>
      <point x="252" y="702"/>
      <point x="248" y="707"/>
      <point x="243" y="707" type="curve" smooth="yes"/>
      <point x="238" y="707"/>
      <point x="234" y="703"/>
      <point x="234" y="697" type="curve" smooth="yes"/>
      <point x="231" y="609"/>
      <point x="226" y="532"/>
      <point x="218" y="453" type="curve"/>
      <point x="172" y="453"/>
      <point x="126" y="454"/>
      <point x="81" y="455" type="curve" smooth="yes"/>
      <point x="74" y="456"/>
      <point x="70" y="451"/>
      <point x="70" y="447" type="curve" smooth="yes"/>
      <point x="70" y="443"/>
      <point x="73" y="438"/>
      <point x="80" y="438" type="curve" smooth="yes"/>
      <point x="128" y="437"/>
      <point x="172" y="436"/>
      <point x="216" y="435" type="curve"/>
      <point x="209" y="373"/>
      <point x="200" y="307"/>
      <point x="189" y="231" type="curve"/>
      <point x="146" y="232"/>
      <point x="103" y="233"/>
      <point x="61" y="234" type="curve" smooth="yes"/>
      <point x="54" y="234"/>
      <point x="50" y="230"/>
      <point x="50" y="226" type="curve" smooth="yes"/>
      <point x="50" y="222"/>
      <point x="53" y="217"/>
      <point x="60" y="217" type="curve" smooth="yes"/>
      <point x="104" y="216"/>
      <point x="146" y="215"/>
      <point x="186" y="214" type="curve"/>
      <point x="176" y="153"/>
      <point x="164" y="84"/>
      <point x="150" y="5" type="curve" smooth="yes"/>
      <point x="149" y="-1"/>
      <point x="153" y="-6"/>
      <point x="159" y="-6" type="curve" smooth="yes"/>
      <point x="164" y="-6"/>
      <point x="168" y="-3"/>
    </contour>
    <contour>
      <point x="207" y="231" type="curve"/>
      <point x="218" y="306"/>
      <point x="227" y="372"/>
      <point x="234" y="435" type="curve"/>
      <point x="315" y="435"/>
      <point x="392" y="438"/>
      <point x="473" y="444" type="curve"/>
      <point x="467" y="380"/>
      <point x="458" y="314"/>
      <point x="446" y="239" type="curve"/>
      <point x="371" y="234"/>
      <point x="289" y="231"/>
    </contour>
  </outline>
</glyph>
<glyph name="dollar" format="1">
  <advance width="490"/>
  <unicode hex="0024"/>
  <outline>
    <contour>
      <point x="253" y="-62.1" type="curve" smooth="yes"/>
      <point x="252" y="25.5" type="line"/>
      <point x="353" y="31.9"/>
      <point x="424.3" y="103.4"/>
      <point x="424.3" y="198.2" type="curve" smooth="yes"/>
      <point x="424.3" y="401"/>
      <point x="99.6" y="343.2"/>
      <point x="99.6" y="519.6" type="curve" smooth="yes"/>
      <point x="99.6" y="599.9"/>
      <point x="164.4" y="657.1"/>
      <point x="255.1" y="657.1" type="curve" smooth="yes"/>
      <point x="296.3" y="657.1"/>
      <point x="337.1" y="645.1"/>
      <point x="380.3" y="620.2" type="curve" smooth="yes"/>
      <point x="386.2" y="616.9"/>
      <point x="393" y="620.5"/>
      <point x="393" y="626.9" type="curve" smooth="yes"/>
      <point x="393" y="630"/>
      <point x="391.1" y="633"/>
      <point x="387.7" y="635.1" type="curve" smooth="yes"/>
      <point x="349" y="659.6"/>
      <point x="305.2" y="673"/>
      <point x="262" y="673.6" type="curve"/>
      <point x="263" y="762" type="line" smooth="yes"/>
      <point x="263" y="766.2"/>
      <point x="259.1" y="769.4"/>
      <point x="253.7" y="769.4" type="curve" smooth="yes"/>
      <point x="248.5" y="769.4"/>
      <point x="244.9" y="766.4"/>
      <point x="245" y="762" type="curve" smooth="yes"/>
      <point x="246" y="674.5" type="line"/>
      <point x="149.8" y="670.8"/>
      <point x="81.7" y="606.6"/>
      <point x="81.7" y="519.6" type="curve" smooth="yes"/>
      <point x="81.7" y="326.5"/>
      <point x="406.4" y="386.5"/>
      <point x="406.4" y="197.4" type="curve" smooth="yes"/>
      <point x="406.4" y="108.2"/>
      <point x="334.1" y="42.6"/>
      <point x="236" y="42.6" type="curve" smooth="yes"/>
      <point x="180" y="42.6"/>
      <point x="128.4" y="63.8"/>
      <point x="76.8" y="108.2" type="curve" smooth="yes"/>
      <point x="70.2" y="113.9"/>
      <point x="60.8" y="110.8"/>
      <point x="60.8" y="102.8" type="curve" smooth="yes"/>
      <point x="60.8" y="100.1"/>
      <point x="62.2" y="97.5"/>
      <point x="64.6" y="95.3" type="curve" smooth="yes"/>
      <point x="112.6" y="51.8"/>
      <point x="174.3" y="26.9"/>
      <point x="236" y="26.1" type="curve"/>
      <point x="235" y="-62.1" type="line" smooth="yes"/>
      <point x="234.9" y="-66.5"/>
      <point x="238.5" y="-69.5"/>
      <point x="243.7" y="-69.5" type="curve" smooth="yes"/>
      <point x="249.1" y="-69.5"/>
      <point x="253" y="-66.4"/>
    </contour>
  </outline>
</glyph>
<glyph name="percent" format="1">
  <advance width="845"/>
  <unicode hex="0025"/>
  <outline>
    <contour>
      <point x="214.1" y="364" type="curve" smooth="yes"/>
      <point x="301.8" y="364"/>
      <point x="365" y="437.7"/>
      <point x="365" y="539.8" type="curve" smooth="yes"/>
      <point x="365" y="640.9"/>
      <point x="303.7" y="710"/>
      <point x="214.1" y="710" type="curve" smooth="yes"/>
      <point x="125.2" y="710"/>
      <point x="65" y="641.7"/>
      <point x="65" y="540.8" type="curve" smooth="yes"/>
      <point x="65" y="437.8"/>
      <point x="127.2" y="364"/>
    </contour>
    <contour>
      <point x="189.5" y="-1.2" type="curve" smooth="yes"/>
      <point x="316.8" y="157.7"/>
      <point x="430.3" y="327.2"/>
      <point x="653.4" y="691.4" type="curve" smooth="yes"/>
      <point x="657.6" y="698.4"/>
      <point x="654" y="706"/>
      <point x="646.3" y="706" type="curve" smooth="yes"/>
      <point x="642.6" y="706"/>
      <point x="639.3" y="703.9"/>
      <point x="637.2" y="700.3" type="curve" smooth="yes"/>
      <point x="460.3" y="403.3"/>
      <point x="305.7" y="172.1"/>
      <point x="175.6" y="10.1" type="curve" smooth="yes"/>
      <point x="169.7" y="2.7"/>
      <point x="172.3" y="-6.2"/>
      <point x="180.4" y="-6.2" type="curve" smooth="yes"/>
      <point x="183.7" y="-6.2"/>
      <point x="186.9" y="-4.4"/>
    </contour>
    <contour>
      <point x="213.5" y="381.4" type="curve" smooth="yes"/>
      <point x="137" y="381.4"/>
      <point x="83.1" y="447.2"/>
      <point x="83.1" y="540.7" type="curve" smooth="yes"/>
      <point x="83.1" y="632.6"/>
      <point x="135" y="693.5"/>
      <point x="213.5" y="693.5" type="curve" smooth="yes"/>
      <point x="293.8" y="693.5"/>
      <point x="346.7" y="632.2"/>
      <point x="346.7" y="539.4" type="curve" smooth="yes"/>
      <point x="346.7" y="445.6"/>
      <point x="292.6" y="381.4"/>
    </contour>
    <contour>
      <point x="629.1" y="-10" type="curve" smooth="yes"/>
      <point x="716.8" y="-10"/>
      <point x="780" y="63.7"/>
      <point x="780" y="165.8" type="curve" smooth="yes"/>
      <point x="780" y="266.9"/>
      <point x="718.7" y="336"/>
      <point x="629.1" y="336" type="curve" smooth="yes"/>
      <point x="540.2" y="336"/>
      <point x="480" y="267.7"/>
      <point x="480" y="166.8" type="curve" smooth="yes"/>
      <point x="480" y="63.8"/>
      <point x="542.2" y="-10"/>
    </contour>
    <contour>
      <point x="628.5" y="7.4" type="curve" smooth="yes"/>
      <point x="552" y="7.4"/>
      <point x="498.1" y="73.2"/>
      <point x="498.1" y="166.7" type="curve" smooth="yes"/>
      <point x="498.1" y="258.6"/>
      <point x="550" y="319.5"/>
      <point x="628.5" y="319.5" type="curve" smooth="yes"/>
      <point x="708.8" y="319.5"/>
      <point x="761.7" y="258.2"/>
      <point x="761.7" y="165.4" type="curve" smooth="yes"/>
      <point x="761.7" y="71.6"/>
      <point x="707.6" y="7.4"/>
    </contour>
  </outline>
</glyph>
<glyph name="ampersand" format="1">
  <advance width="643"/>
  <unicode hex="0026"/>
  <outline>
    <contour>
      <point x="563.7" y="-5.9" type="curve"/>
      <point x="573.1" y="-5.9"/>
      <point x="576.1" y="5.6"/>
      <point x="568.1" y="11.1" type="curve" smooth="yes"/>
      <point x="532.4" y="36.1"/>
      <point x="497.1" y="64.8"/>
      <point x="462.9" y="96.5" type="curve"/>
      <point x="509.8" y="149.3"/>
      <point x="546.6" y="219.8"/>
      <point x="570.3" y="302" type="curve" smooth="yes"/>
      <point x="572.5" y="309.7"/>
      <point x="569.2" y="316.3"/>
      <point x="563.2" y="316.3" type="curve" smooth="yes"/>
      <point x="558.4" y="316.3"/>
      <point x="554.2" y="311.8"/>
      <point x="552.1" y="304.6" type="curve" smooth="yes"/>
      <point x="530" y="226.4"/>
      <point x="495.1" y="158.9"/>
      <point x="450.5" y="108.2" type="curve"/>
      <point x="300.4" y="252.2"/>
      <point x="198.7" y="432.1"/>
      <point x="198.7" y="553.6" type="curve" smooth="yes"/>
      <point x="198.7" y="634"/>
      <point x="243.4" y="689.4"/>
      <point x="308" y="689.4" type="curve" smooth="yes"/>
      <point x="364.6" y="689.4"/>
      <point x="405.1" y="645.9"/>
      <point x="405.1" y="585.4" type="curve" smooth="yes"/>
      <point x="405.1" y="553.5"/>
      <point x="393.6" y="520"/>
      <point x="376.1" y="500.6" type="curve" smooth="yes"/>
      <point x="369.8" y="493.6"/>
      <point x="372.4" y="486"/>
      <point x="381" y="486" type="curve" smooth="yes"/>
      <point x="384.1" y="486"/>
      <point x="387.1" y="487.3"/>
      <point x="389.4" y="489.5" type="curve" smooth="yes"/>
      <point x="410.5" y="510"/>
      <point x="423.2" y="545"/>
      <point x="423.2" y="582.1" type="curve" smooth="yes"/>
      <point x="423.2" y="654.3"/>
      <point x="374.6" y="705.9"/>
      <point x="306.3" y="705.9" type="curve" smooth="yes"/>
      <point x="231.5" y="705.9"/>
      <point x="180.6" y="644.7"/>
      <point x="180.6" y="554.4" type="curve" smooth="yes"/>
      <point x="180.6" y="505.1"/>
      <point x="195.6" y="447.3"/>
      <point x="224.6" y="384.9" type="curve"/>
      <point x="125.6" y="339.1"/>
      <point x="65.2" y="257.5"/>
      <point x="65.2" y="169.7" type="curve" smooth="yes"/>
      <point x="65.2" y="69.8"/>
      <point x="147.4" y="-5.6"/>
      <point x="256.4" y="-5.6" type="curve" smooth="yes"/>
      <point x="327" y="-5.6"/>
      <point x="394.5" y="25.4"/>
      <point x="451.2" y="83.9" type="curve"/>
      <point x="463.735" y="72.1763"/>
      <point x="550.931" y="-5.9"/>
    </contour>
    <contour>
      <point x="438.9" y="95.6" type="curve"/>
      <point x="385.3" y="40.3"/>
      <point x="321.8" y="10.9"/>
      <point x="255.8" y="10.9" type="curve" smooth="yes"/>
      <point x="157.1" y="10.9"/>
      <point x="83.3" y="78.3"/>
      <point x="83.3" y="168.4" type="curve" smooth="yes"/>
      <point x="83.3" y="249.2"/>
      <point x="141.7" y="327.8"/>
      <point x="232.3" y="368.9" type="curve"/>
      <point x="278" y="276.7"/>
      <point x="350.9" y="180.3"/>
    </contour>
  </outline>
</glyph>
<glyph name="quotesingle" format="1">
  <advance width="161"/>
  <unicode hex="0027"/>
  <outline>
    <contour>
      <point x="86.6" y="506.2" type="curve" smooth="yes"/>
      <point x="91.1" y="584.7"/>
      <point x="91.3" y="626.6"/>
      <point x="87.8" y="698.1" type="curve" smooth="yes"/>
      <point x="87.5" y="703.9"/>
      <point x="83.9" y="707.9"/>
      <point x="78.9" y="707.9" type="curve" smooth="yes"/>
      <point x="73.8" y="707.9"/>
      <point x="70" y="703.7"/>
      <point x="70.4" y="697.8" type="curve" smooth="yes"/>
      <point x="74.6" y="627.4"/>
      <point x="75" y="585.7"/>
      <point x="72.2" y="506.2" type="curve" smooth="yes"/>
      <point x="72" y="501.8"/>
      <point x="75" y="498.7"/>
      <point x="79.1" y="498.7" type="curve" smooth="yes"/>
      <point x="83.3" y="498.7"/>
      <point x="86.3" y="501.8"/>
    </contour>
  </outline>
</glyph>
<glyph name="parenleft" format="1">
  <advance width="306"/>
  <unicode hex="0028"/>
  <outline>
    <contour>
      <point x="232.4" y="-113.6" type="curve" smooth="yes"/>
      <point x="141.7" y="-10.6"/>
      <point x="88.4" y="151"/>
      <point x="88.4" y="322.9" type="curve" smooth="yes"/>
      <point x="88.4" y="492.7"/>
      <point x="140.5" y="644.2"/>
      <point x="229.8" y="733.8" type="curve" smooth="yes"/>
      <point x="236.4" y="740.5"/>
      <point x="233.3" y="750.3"/>
      <point x="224.6" y="750.3" type="curve" smooth="yes"/>
      <point x="221.6" y="750.3"/>
      <point x="218.6" y="748.9"/>
      <point x="215.9" y="746.3" type="curve" smooth="yes"/>
      <point x="124.3" y="655.1"/>
      <point x="70" y="498.2"/>
      <point x="70" y="324.7" type="curve" smooth="yes"/>
      <point x="70" y="148.1"/>
      <point x="124.7" y="-18"/>
      <point x="217.7" y="-125.1" type="curve" smooth="yes"/>
      <point x="220.4" y="-128.2"/>
      <point x="223.5" y="-129.5"/>
      <point x="226.4" y="-129.5" type="curve" smooth="yes"/>
      <point x="233.6" y="-129.5"/>
      <point x="239.2" y="-121.3"/>
    </contour>
  </outline>
</glyph>
<glyph name="parenright" format="1">
  <advance width="306"/>
  <unicode hex="0029"/>
  <outline>
    <contour>
      <point x="87.4143" y="-126.052" type="curve" smooth="yes"/>
      <point x="181.199" y="-18.0065"/>
      <point x="235.91" y="148.078"/>
      <point x="235.91" y="324.736" type="curve" smooth="yes"/>
      <point x="235.91" y="498.165"/>
      <point x="181.581" y="655.117"/>
      <point x="89.9841" y="746.305" type="curve" smooth="yes"/>
      <point x="87.3527" y="748.925"/>
      <point x="84.3502" y="750.33"/>
      <point x="81.3841" y="750.33" type="curve" smooth="yes"/>
      <point x="72.5681" y="750.33"/>
      <point x="69.7813" y="740.216"/>
      <point x="76.6868" y="733.282" type="curve" smooth="yes"/>
      <point x="165.518" y="644.084"/>
      <point x="217.526" y="492.524"/>
      <point x="217.526" y="322.851" type="curve" smooth="yes"/>
      <point x="217.526" y="151.004"/>
      <point x="164.205" y="-10.6447"/>
      <point x="73.5496" y="-113.632" type="curve" smooth="yes"/>
      <point x="67.5717" y="-120.423"/>
      <point x="71.1392" y="-129.873"/>
      <point x="79.6808" y="-129.873" type="curve" smooth="yes"/>
      <point x="82.5479" y="-129.873"/>
      <point x="85.2617" y="-128.532"/>
    </contour>
  </outline>
</glyph>
<glyph name="asterisk" format="1">
  <advance width="387"/>
  <unicode hex="002A"/>
  <outline>
    <contour>
      <point x="182.5" y="730.8" type="curve" smooth="yes"/>
      <point x="186.7" y="602" type="line"/>
      <point x="65.3" y="644.7" type="line" smooth="yes"/>
      <point x="57.4" y="647.5"/>
      <point x="50.3" y="643.1"/>
      <point x="50.3" y="635.4" type="curve" smooth="yes"/>
      <point x="50.3" y="630.5"/>
      <point x="53.6" y="626.5"/>
      <point x="58.9" y="625" type="curve" smooth="yes"/>
      <point x="182.7" y="589.1" type="line"/>
      <point x="104.5" y="487" type="line" smooth="yes"/>
      <point x="98.6" y="479.2"/>
      <point x="102.9" y="469.2"/>
      <point x="112.1" y="469.2" type="curve" smooth="yes"/>
      <point x="115.7" y="469.2"/>
      <point x="119" y="471.2"/>
      <point x="121.4" y="474.7" type="curve" smooth="yes"/>
      <point x="193.8" y="581.5" type="line"/>
      <point x="266.7" y="475.9" type="line"/>
      <point x="269.1" y="472.2"/>
      <point x="272.5" y="470.3"/>
      <point x="276" y="470.3" type="curve" smooth="yes"/>
      <point x="285" y="470.3"/>
      <point x="289.3" y="480.5"/>
      <point x="283.5" y="488.1" type="curve" smooth="yes"/>
      <point x="204.7" y="589.4" type="line"/>
      <point x="327.7" y="626" type="line" smooth="yes"/>
      <point x="333.1" y="627.6"/>
      <point x="336.4" y="631.5"/>
      <point x="336.4" y="636.2" type="curve" smooth="yes"/>
      <point x="336.4" y="643.9"/>
      <point x="329" y="648.6"/>
      <point x="321.3" y="645.8" type="curve" smooth="yes"/>
      <point x="200.1" y="602" type="line"/>
      <point x="203.3" y="730.7" type="line" smooth="yes"/>
      <point x="203.5" y="737.7"/>
      <point x="199.2" y="742.6"/>
      <point x="193" y="742.6" type="curve" smooth="yes"/>
      <point x="186.7" y="742.6"/>
      <point x="182.3" y="737.6"/>
    </contour>
  </outline>
</glyph>
<glyph name="plus" format="1">
  <advance width="512"/>
  <unicode hex="002B"/>
  <outline>
    <contour>
      <point x="262.3" y="62.5" type="curve" smooth="yes"/>
      <point x="266.4" y="128.3"/>
      <point x="268.6" y="186"/>
      <point x="269" y="241.5" type="curve"/>
      <point x="314.3" y="243.6"/>
      <point x="362.9" y="247.7"/>
      <point x="430.9" y="254.6" type="curve" smooth="yes"/>
      <point x="437.1" y="255.2"/>
      <point x="441.3" y="258.9"/>
      <point x="441.3" y="263.7" type="curve" smooth="yes"/>
      <point x="441.3" y="269"/>
      <point x="436.5" y="272.5"/>
      <point x="430.3" y="271.8" type="curve" smooth="yes"/>
      <point x="363.4" y="264.6"/>
      <point x="315.4" y="260.6"/>
      <point x="269.1" y="258.5" type="curve"/>
      <point x="269.1" y="321.5"/>
      <point x="266.7" y="383.7"/>
      <point x="261.6" y="451" type="curve" smooth="yes"/>
      <point x="261.1" y="457.2"/>
      <point x="257.5" y="461.2"/>
      <point x="252.3" y="461.2" type="curve" smooth="yes"/>
      <point x="246.8" y="461.2"/>
      <point x="242.8" y="456.7"/>
      <point x="243.2" y="450.9" type="curve" smooth="yes"/>
      <point x="248.9" y="374.8"/>
      <point x="251.3" y="317.4"/>
      <point x="251.3" y="257.8" type="curve"/>
      <point x="203.7" y="256.1"/>
      <point x="153.4" y="256.2"/>
      <point x="80.9" y="258" type="curve" smooth="yes"/>
      <point x="75" y="258.1"/>
      <point x="71" y="255"/>
      <point x="71" y="250.2" type="curve" smooth="yes"/>
      <point x="71" y="245.1"/>
      <point x="75.4" y="241.2"/>
      <point x="81.4" y="241" type="curve" smooth="yes"/>
      <point x="151.1" y="239"/>
      <point x="201.5" y="238.9"/>
      <point x="251.2" y="240.8" type="curve"/>
      <point x="250.9" y="191.5"/>
      <point x="248.8" y="137.1"/>
      <point x="244.8" y="63.8" type="curve" smooth="yes"/>
      <point x="244.4" y="55.6"/>
      <point x="247.5" y="50"/>
      <point x="252.6" y="50" type="curve" smooth="yes"/>
      <point x="257.7" y="50"/>
      <point x="261.8" y="55.4"/>
    </contour>
  </outline>
</glyph>
<glyph name="comma" format="1">
  <advance width="177"/>
  <unicode hex="002C"/>
  <outline>
    <contour>
      <point x="80" y="-183" type="curve" smooth="yes"/>
      <point x="107" y="-135"/>
      <point x="119" y="-50"/>
      <point x="107" y="12" type="curve" smooth="yes"/>
      <point x="106" y="17"/>
      <point x="103" y="20"/>
      <point x="98" y="20" type="curve" smooth="yes"/>
      <point x="92" y="20"/>
      <point x="89" y="15"/>
      <point x="90" y="8" type="curve" smooth="yes"/>
      <point x="101" y="-41"/>
      <point x="89" y="-133"/>
      <point x="67" y="-175" type="curve" smooth="yes"/>
      <point x="64" y="-181"/>
      <point x="67" y="-187"/>
      <point x="73" y="-187" type="curve" smooth="yes"/>
      <point x="76" y="-187"/>
      <point x="79" y="-185"/>
    </contour>
  </outline>
</glyph>
<glyph name="hyphen" format="1">
  <advance width="512"/>
  <unicode hex="002D"/>
  <outline>
    <contour>
      <point x="431" y="255" type="curve" smooth="yes"/>
      <point x="437" y="255"/>
      <point x="441" y="259"/>
      <point x="441" y="264" type="curve" smooth="yes"/>
      <point x="441" y="269"/>
      <point x="437" y="272"/>
      <point x="430" y="272" type="curve" smooth="yes"/>
      <point x="294" y="260"/>
      <point x="224" y="257"/>
      <point x="81" y="258" type="curve" smooth="yes"/>
      <point x="75" y="258"/>
      <point x="71" y="255"/>
      <point x="71" y="250" type="curve" smooth="yes"/>
      <point x="71" y="245"/>
      <point x="75" y="241"/>
      <point x="81" y="241" type="curve" smooth="yes"/>
      <point x="216" y="240"/>
      <point x="289" y="243"/>
    </contour>
    <contour>
      <point x="255" y="255" type="move" name="_left"/>
    </contour>
  </outline>
</glyph>
<glyph name="period" format="1">
  <advance width="191"/>
  <unicode hex="002E"/>
  <outline>
    <contour>
      <point x="95" y="-10" type="curve" smooth="yes"/>
      <point x="110" y="-10"/>
      <point x="121" y="-3"/>
      <point x="121" y="15" type="curve" smooth="yes"/>
      <point x="121" y="31"/>
      <point x="112" y="42"/>
      <point x="95" y="42" type="curve" smooth="yes"/>
      <point x="80" y="42"/>
      <point x="71" y="32"/>
      <point x="71" y="15" type="curve" smooth="yes"/>
      <point x="71" y="-1"/>
      <point x="81" y="-10"/>
    </contour>
  </outline>
</glyph>
<glyph name="slash" format="1">
  <advance width="485"/>
  <unicode hex="002F"/>
  <outline>
    <contour>
      <point x="67.8" y="-31.1" type="curve" smooth="yes"/>
      <point x="215.7" y="231.2"/>
      <point x="289.5" y="383.9"/>
      <point x="433.7" y="725.8" type="curve" smooth="yes"/>
      <point x="437.3" y="734.5"/>
      <point x="431.9" y="740.3"/>
      <point x="425.9" y="740.3" type="curve" smooth="yes"/>
      <point x="422.2" y="740.3"/>
      <point x="418.3" y="738.1"/>
      <point x="416.2" y="733.1" type="curve" smooth="yes"/>
      <point x="280.4" y="407.2"/>
      <point x="187.1" y="214"/>
      <point x="52.5" y="-21" type="curve" smooth="yes"/>
      <point x="47.5" y="-29.6"/>
      <point x="53.3" y="-36.3"/>
      <point x="59.6" y="-36.3" type="curve" smooth="yes"/>
      <point x="62.6" y="-36.3"/>
      <point x="65.7" y="-34.7"/>
    </contour>
  </outline>
</glyph>
<glyph name="zero" format="1">
  <advance width="547"/>
  <unicode hex="0030"/>
  <outline>
    <contour>
      <point x="275" y="-9.8" type="curve" smooth="yes"/>
      <point x="410.7" y="-9.8"/>
      <point x="491.8" y="134.2"/>
      <point x="491.8" y="375.5" type="curve" smooth="yes"/>
      <point x="491.8" y="598.5"/>
      <point x="422" y="709.8"/>
      <point x="282.1" y="709.8" type="curve" smooth="yes"/>
      <point x="134.8" y="709.8"/>
      <point x="55" y="588.4"/>
      <point x="55" y="364.4" type="curve" smooth="yes"/>
      <point x="55" y="133.5"/>
      <point x="139.2" y="-9.8"/>
    </contour>
    <contour>
      <point x="275.8" y="7.5" type="curve" smooth="yes"/>
      <point x="150.2" y="7.5"/>
      <point x="72.8" y="143.9"/>
      <point x="72.8" y="365.1" type="curve" smooth="yes"/>
      <point x="72.8" y="580.4"/>
      <point x="144.6" y="692.5"/>
      <point x="282.6" y="692.5" type="curve" smooth="yes"/>
      <point x="413.6" y="692.5"/>
      <point x="474" y="593.5"/>
      <point x="474" y="378.9" type="curve" smooth="yes"/>
      <point x="474" y="143.5"/>
      <point x="401.4" y="7.5"/>
    </contour>
  </outline>
</glyph>
<glyph name="one" format="1">
  <advance width="352"/>
  <unicode hex="0031"/>
  <outline>
    <contour>
      <point x="252" y="5" type="curve" smooth="yes"/>
      <point x="241" y="267"/>
      <point x="241" y="418"/>
      <point x="252" y="694" type="curve" smooth="yes"/>
      <point x="252" y="702"/>
      <point x="244" y="706"/>
      <point x="235" y="702" type="curve" smooth="yes"/>
      <point x="182" y="678"/>
      <point x="126" y="658"/>
      <point x="62" y="641" type="curve"/>
      <point x="58" y="640"/>
      <point x="55" y="637"/>
      <point x="55" y="633" type="curve" smooth="yes"/>
      <point x="55" y="627"/>
      <point x="60" y="623"/>
      <point x="66" y="624" type="curve" smooth="yes"/>
      <point x="125" y="640"/>
      <point x="189" y="662"/>
      <point x="234" y="683" type="curve"/>
      <point x="224" y="418"/>
      <point x="224" y="269"/>
      <point x="234" y="3" type="curve" smooth="yes"/>
      <point x="235" y="-2"/>
      <point x="238" y="-5"/>
      <point x="243" y="-5" type="curve" smooth="yes"/>
      <point x="248" y="-5"/>
      <point x="252" y="-1"/>
    </contour>
  </outline>
</glyph>
<glyph name="two" format="1">
  <advance width="529"/>
  <unicode hex="0032"/>
  <outline>
    <contour>
      <point x="456.8" y="7.5" type="curve" smooth="yes"/>
      <point x="463.3" y="7.1"/>
      <point x="468.2" y="10.9"/>
      <point x="468.2" y="16.3" type="curve" smooth="yes"/>
      <point x="468.2" y="21.1"/>
      <point x="464.2" y="24.7"/>
      <point x="458.2" y="24.9" type="curve" smooth="yes"/>
      <point x="352.5" y="30.2"/>
      <point x="234.3" y="25.7"/>
      <point x="91.4" y="10.8" type="curve"/>
      <point x="311.8" y="198.2"/>
      <point x="434.2" y="381.5"/>
      <point x="434.2" y="524.1" type="curve" smooth="yes"/>
      <point x="434.2" y="635.9"/>
      <point x="360.4" y="709.8"/>
      <point x="248.7" y="709.8" type="curve" smooth="yes"/>
      <point x="174.2" y="709.8"/>
      <point x="111.9" y="676"/>
      <point x="62.6" y="607.5" type="curve" smooth="yes"/>
      <point x="58" y="601.1"/>
      <point x="62" y="592.6"/>
      <point x="69.6" y="592.6" type="curve" smooth="yes"/>
      <point x="72.5" y="592.6"/>
      <point x="75.2" y="594.2"/>
      <point x="77.2" y="596.9" type="curve" smooth="yes"/>
      <point x="126.3" y="662.5"/>
      <point x="181.1" y="693.3"/>
      <point x="248.7" y="693.3" type="curve" smooth="yes"/>
      <point x="349.9" y="693.3"/>
      <point x="416.5" y="626.5"/>
      <point x="416.5" y="525" type="curve" smooth="yes"/>
      <point x="416.5" y="385.5"/>
      <point x="290.9" y="201.4"/>
      <point x="67.8" y="12.6" type="curve" smooth="yes"/>
      <point x="64.6" y="9.9"/>
      <point x="62.8" y="6.4"/>
      <point x="62.8" y="2.9" type="curve" smooth="yes"/>
      <point x="62.8" y="-3.3"/>
      <point x="68.3" y="-7.4"/>
      <point x="75.5" y="-6.6" type="curve" smooth="yes"/>
      <point x="223.4" y="9.4"/>
      <point x="353.1" y="14.2"/>
    </contour>
  </outline>
</glyph>
<glyph name="three" format="1">
  <advance width="596"/>
  <unicode hex="0033"/>
  <outline>
    <contour>
      <point x="73" y="116" type="curve" smooth="yes"/>
      <point x="136" y="32"/>
      <point x="210" y="-10"/>
      <point x="299" y="-10" type="curve" smooth="yes"/>
      <point x="436" y="-10"/>
      <point x="535" y="83"/>
      <point x="535" y="212" type="curve" smooth="yes"/>
      <point x="535" y="334"/>
      <point x="452" y="417"/>
      <point x="328" y="417" type="curve" smooth="yes"/>
      <point x="294" y="417"/>
      <point x="259" y="411"/>
      <point x="222" y="398" type="curve"/>
      <point x="327" y="500"/>
      <point x="416" y="596"/>
      <point x="486" y="684" type="curve" smooth="yes"/>
      <point x="488" y="686"/>
      <point x="489" y="689"/>
      <point x="489" y="692" type="curve" smooth="yes"/>
      <point x="489" y="697"/>
      <point x="484" y="701"/>
      <point x="476" y="701" type="curve" smooth="yes"/>
      <point x="363" y="694"/>
      <point x="249" y="693"/>
      <point x="126" y="700" type="curve" smooth="yes"/>
      <point x="120" y="700"/>
      <point x="116" y="697"/>
      <point x="116" y="692" type="curve" smooth="yes"/>
      <point x="116" y="687"/>
      <point x="120" y="683"/>
      <point x="125" y="683" type="curve"/>
      <point x="207" y="677"/>
      <point x="349" y="677"/>
      <point x="464" y="683" type="curve"/>
      <point x="399" y="602"/>
      <point x="276" y="471"/>
      <point x="187" y="388" type="curve" smooth="yes"/>
      <point x="183" y="384"/>
      <point x="180" y="380"/>
      <point x="180" y="376" type="curve" smooth="yes"/>
      <point x="180" y="369"/>
      <point x="188" y="364"/>
      <point x="194" y="367" type="curve" smooth="yes"/>
      <point x="237" y="389"/>
      <point x="281" y="400"/>
      <point x="324" y="400" type="curve" smooth="yes"/>
      <point x="440" y="400"/>
      <point x="517" y="325"/>
      <point x="517" y="212" type="curve" smooth="yes"/>
      <point x="517" y="93"/>
      <point x="425" y="7"/>
      <point x="298" y="7" type="curve" smooth="yes"/>
      <point x="217" y="7"/>
      <point x="151" y="44"/>
      <point x="88" y="126" type="curve" smooth="yes"/>
      <point x="86" y="129"/>
      <point x="83" y="131"/>
      <point x="79" y="131" type="curve" smooth="yes"/>
      <point x="72" y="131"/>
      <point x="68" y="123"/>
    </contour>
  </outline>
</glyph>
<glyph name="four" format="1">
  <advance width="596"/>
  <unicode hex="0034"/>
  <outline>
    <contour>
      <point x="461.6" y="3" type="curve" smooth="yes"/>
      <point x="458.5" y="66.9"/>
      <point x="456.9" y="130.4"/>
      <point x="455.7" y="195.2" type="curve"/>
      <point x="481.9" y="197.2"/>
      <point x="507.5" y="199.5"/>
      <point x="532.4" y="201.8" type="curve" smooth="yes"/>
      <point x="537" y="202.3"/>
      <point x="540.1" y="205.8"/>
      <point x="540.1" y="210.5" type="curve" smooth="yes"/>
      <point x="540.1" y="216.1"/>
      <point x="536" y="219.8"/>
      <point x="530.6" y="219.3" type="curve" smooth="yes"/>
      <point x="506.7" y="216.9"/>
      <point x="481.6" y="214.7"/>
      <point x="455.4" y="212.6" type="curve"/>
      <point x="453" y="360.9"/>
      <point x="455" y="514.5"/>
      <point x="461.8" y="695.6" type="curve" smooth="yes"/>
      <point x="462" y="701.7"/>
      <point x="458.3" y="706.1"/>
      <point x="452.9" y="706.1" type="curve" smooth="yes"/>
      <point x="448.9" y="706.1"/>
      <point x="445.1" y="703.7"/>
      <point x="442.5" y="699.8" type="curve" smooth="yes"/>
      <point x="350.4" y="560.6"/>
      <point x="214.4" y="384.3"/>
      <point x="64.8" y="204.2" type="curve" smooth="yes"/>
      <point x="61.9" y="200.7"/>
      <point x="60.4" y="197.1"/>
      <point x="60.4" y="193.7" type="curve" smooth="yes"/>
      <point x="60.4" y="186.9"/>
      <point x="66.1" y="182.2"/>
      <point x="74.5" y="182.1" type="curve" smooth="yes"/>
      <point x="194.3" y="181.2"/>
      <point x="319.8" y="185.2"/>
      <point x="437.9" y="193.8" type="curve"/>
      <point x="439.2" y="135.6"/>
      <point x="441.1" y="72.6"/>
      <point x="443.9" y="3.2" type="curve" smooth="yes"/>
      <point x="444.1" y="-2.2"/>
      <point x="447.9" y="-6.1"/>
      <point x="453.2" y="-6.1" type="curve" smooth="yes"/>
      <point x="458.4" y="-6.1"/>
      <point x="461.9" y="-2.3"/>
    </contour>
    <contour>
      <point x="437.5" y="211.3" type="curve"/>
      <point x="318.5" y="202.2"/>
      <point x="192.3" y="197.5"/>
      <point x="82.2" y="198.3" type="curve"/>
      <point x="218.5" y="360.1"/>
      <point x="365.3" y="552.8"/>
      <point x="444.5" y="673.9" type="curve"/>
      <point x="436.3" y="528.2"/>
      <point x="434.1" y="382.8"/>
    </contour>
  </outline>
</glyph>
<glyph name="five" format="1">
  <advance width="564"/>
  <unicode hex="0035"/>
  <outline>
    <contour>
      <point x="270" y="-10" type="curve" smooth="yes"/>
      <point x="399" y="-10"/>
      <point x="494" y="84"/>
      <point x="494" y="212" type="curve" smooth="yes"/>
      <point x="494" y="336"/>
      <point x="404" y="421"/>
      <point x="273" y="421" type="curve" smooth="yes"/>
      <point x="225" y="421"/>
      <point x="178" y="410"/>
      <point x="131" y="387" type="curve"/>
      <point x="152" y="491"/>
      <point x="159" y="561"/>
      <point x="162" y="683" type="curve"/>
      <point x="437" y="683" type="line" smooth="yes"/>
      <point x="443" y="683"/>
      <point x="446" y="686"/>
      <point x="446" y="691" type="curve" smooth="yes"/>
      <point x="446" y="696"/>
      <point x="443" y="700"/>
      <point x="437" y="700" type="curve" smooth="yes"/>
      <point x="159" y="700" type="line" smooth="yes"/>
      <point x="149" y="700"/>
      <point x="144" y="697"/>
      <point x="144" y="691" type="curve" smooth="yes"/>
      <point x="142" y="577"/>
      <point x="135" y="510"/>
      <point x="111" y="378" type="curve" smooth="yes"/>
      <point x="109" y="367"/>
      <point x="117" y="362"/>
      <point x="126" y="367" type="curve" smooth="yes"/>
      <point x="175" y="391"/>
      <point x="224" y="404"/>
      <point x="273" y="404" type="curve" smooth="yes"/>
      <point x="394" y="404"/>
      <point x="475" y="327"/>
      <point x="475" y="212" type="curve" smooth="yes"/>
      <point x="475" y="95"/>
      <point x="388" y="7"/>
      <point x="272" y="7" type="curve" smooth="yes"/>
      <point x="199" y="7"/>
      <point x="129" y="44"/>
      <point x="88" y="101" type="curve" smooth="yes"/>
      <point x="86" y="104"/>
      <point x="83" y="106"/>
      <point x="80" y="106" type="curve" smooth="yes"/>
      <point x="71" y="106"/>
      <point x="68" y="97"/>
      <point x="74" y="90" type="curve" smooth="yes"/>
      <point x="125" y="25"/>
      <point x="193" y="-10"/>
    </contour>
  </outline>
</glyph>
<glyph name="six" format="1">
  <advance width="553"/>
  <unicode hex="0036"/>
  <outline>
    <contour>
      <point x="295" y="-10" type="curve" smooth="yes"/>
      <point x="419" y="-10"/>
      <point x="503" y="73"/>
      <point x="503" y="196" type="curve" smooth="yes"/>
      <point x="503" y="321"/>
      <point x="419" y="405"/>
      <point x="295" y="405" type="curve" smooth="yes"/>
      <point x="196" y="405"/>
      <point x="125" y="355"/>
      <point x="99" y="270" type="curve"/>
      <point x="115" y="430"/>
      <point x="215" y="593"/>
      <point x="354" y="689" type="curve" smooth="yes"/>
      <point x="358" y="691"/>
      <point x="360" y="694"/>
      <point x="360" y="698" type="curve" smooth="yes"/>
      <point x="360" y="706"/>
      <point x="351" y="709"/>
      <point x="344" y="704" type="curve" smooth="yes"/>
      <point x="186" y="594"/>
      <point x="80" y="405"/>
      <point x="80" y="232" type="curve" smooth="yes"/>
      <point x="80" y="82"/>
      <point x="161" y="-10"/>
    </contour>
    <contour>
      <point x="295" y="7" type="curve" smooth="yes"/>
      <point x="181" y="7"/>
      <point x="105" y="83"/>
      <point x="105" y="197" type="curve" smooth="yes"/>
      <point x="105" y="312"/>
      <point x="181" y="388"/>
      <point x="295" y="388" type="curve" smooth="yes"/>
      <point x="408" y="388"/>
      <point x="484" y="312"/>
      <point x="484" y="197" type="curve" smooth="yes"/>
      <point x="484" y="83"/>
      <point x="408" y="7"/>
    </contour>
  </outline>
</glyph>
<glyph name="seven" format="1">
  <advance width="517"/>
  <unicode hex="0037"/>
  <outline>
    <contour>
      <point x="195" y="1.05" type="curve" smooth="yes"/>
      <point x="263.747" y="233.368"/>
      <point x="356.321" y="467.542"/>
      <point x="463.9" y="680.65" type="curve" smooth="yes"/>
      <point x="469.162" y="691.074"/>
      <point x="464.727" y="700.456"/>
      <point x="454.7" y="700.1" type="curve" smooth="yes"/>
      <point x="322.763" y="695.416"/>
      <point x="190.599" y="695.532"/>
      <point x="49.85" y="700" type="curve" smooth="yes"/>
      <point x="44.324" y="700.175"/>
      <point x="40.4" y="696.667"/>
      <point x="40.4" y="691.55" type="curve" smooth="yes"/>
      <point x="40.4" y="686.567"/>
      <point x="44.2393" y="682.892"/>
      <point x="49.6" y="682.7" type="curve" smooth="yes"/>
      <point x="174.626" y="678.228"/>
      <point x="305.259" y="678.323"/>
      <point x="444.574" y="682.988" type="curve"/>
      <point x="341.547" y="480.056"/>
      <point x="234.321" y="206.891"/>
      <point x="177.85" y="5.80001" type="curve" smooth="yes"/>
      <point x="176.076" y="-0.517093"/>
      <point x="179.933" y="-6"/>
      <point x="186.15" y="-6" type="curve" smooth="yes"/>
      <point x="190.326" y="-6"/>
      <point x="193.712" y="-3.3022"/>
    </contour>
  </outline>
</glyph>
<glyph name="eight" format="1">
  <advance width="589"/>
  <unicode hex="0038"/>
  <outline>
    <contour>
      <point x="294" y="-10" type="curve" smooth="yes"/>
      <point x="418" y="-10"/>
      <point x="498" y="63"/>
      <point x="498" y="175" type="curve" smooth="yes"/>
      <point x="498" y="267"/>
      <point x="448" y="327"/>
      <point x="312" y="393" type="curve"/>
      <point x="424" y="449"/>
      <point x="465" y="493"/>
      <point x="465" y="561" type="curve" smooth="yes"/>
      <point x="465" y="648"/>
      <point x="394" y="710"/>
      <point x="294" y="710" type="curve" smooth="yes"/>
      <point x="194" y="710"/>
      <point x="123" y="648"/>
      <point x="123" y="561" type="curve" smooth="yes"/>
      <point x="123" y="493"/>
      <point x="164" y="447"/>
      <point x="271" y="393" type="curve"/>
      <point x="141" y="327"/>
      <point x="91" y="267"/>
      <point x="91" y="175" type="curve" smooth="yes"/>
      <point x="91" y="63"/>
      <point x="171" y="-10"/>
    </contour>
    <contour>
      <point x="292" y="403" type="curve"/>
      <point x="180" y="457"/>
      <point x="141" y="498"/>
      <point x="141" y="561" type="curve" smooth="yes"/>
      <point x="141" y="638"/>
      <point x="204" y="693"/>
      <point x="294" y="693" type="curve" smooth="yes"/>
      <point x="383" y="693"/>
      <point x="447" y="638"/>
      <point x="447" y="563" type="curve" smooth="yes"/>
      <point x="447" y="500"/>
      <point x="409" y="461"/>
    </contour>
    <contour>
      <point x="294" y="8" type="curve" smooth="yes"/>
      <point x="182" y="8"/>
      <point x="109" y="74"/>
      <point x="109" y="175" type="curve" smooth="yes"/>
      <point x="109" y="262"/>
      <point x="156" y="316"/>
      <point x="292" y="383" type="curve"/>
      <point x="384" y="337"/>
      <point x="480" y="289"/>
      <point x="480" y="174" type="curve" smooth="yes"/>
      <point x="480" y="73"/>
      <point x="406" y="8"/>
    </contour>
  </outline>
</glyph>
<glyph name="nine" format="1">
  <advance width="553"/>
  <unicode hex="0039"/>
  <outline>
    <contour>
      <point x="209" y="-3" type="curve" smooth="yes"/>
      <point x="367" y="107"/>
      <point x="473" y="296"/>
      <point x="473" y="468" type="curve" smooth="yes"/>
      <point x="473" y="619"/>
      <point x="391" y="710"/>
      <point x="257" y="710" type="curve" smooth="yes"/>
      <point x="133" y="710"/>
      <point x="50" y="628"/>
      <point x="50" y="505" type="curve" smooth="yes"/>
      <point x="50" y="380"/>
      <point x="134" y="296"/>
      <point x="258" y="296" type="curve" smooth="yes"/>
      <point x="356" y="296"/>
      <point x="428" y="345"/>
      <point x="453" y="431" type="curve"/>
      <point x="437" y="271"/>
      <point x="338" y="107"/>
      <point x="198" y="12" type="curve" smooth="yes"/>
      <point x="190" y="6"/>
      <point x="192" y="-6"/>
      <point x="202" y="-6" type="curve" smooth="yes"/>
      <point x="204" y="-6"/>
      <point x="206" y="-5"/>
    </contour>
    <contour>
      <point x="258" y="313" type="curve" smooth="yes"/>
      <point x="144" y="313"/>
      <point x="69" y="389"/>
      <point x="69" y="503" type="curve" smooth="yes"/>
      <point x="69" y="617"/>
      <point x="144" y="694"/>
      <point x="258" y="694" type="curve" smooth="yes"/>
      <point x="372" y="694"/>
      <point x="448" y="618"/>
      <point x="448" y="503" type="curve" smooth="yes"/>
      <point x="448" y="389"/>
      <point x="372" y="313"/>
    </contour>
  </outline>
</glyph>
<glyph name="colon" format="1">
  <advance width="191"/>
  <unicode hex="003A"/>
  <outline>
    <contour>
      <point x="96.4" y="388" type="curve" smooth="yes"/>
      <point x="111.8" y="388"/>
      <point x="121" y="397.4"/>
      <point x="121" y="413.3" type="curve" smooth="yes"/>
      <point x="121" y="429.7"/>
      <point x="111.3" y="439.7"/>
      <point x="95.4" y="439.7" type="curve" smooth="yes"/>
      <point x="80" y="439.7"/>
      <point x="71" y="430.3"/>
      <point x="71" y="414.4" type="curve" smooth="yes"/>
      <point x="71" y="397.9"/>
      <point x="80.5" y="388"/>
    </contour>
    <contour>
      <point x="96.4" y="-9.1" type="curve" smooth="yes"/>
      <point x="111.8" y="-9.1"/>
      <point x="121" y="0.3"/>
      <point x="121" y="16.2" type="curve" smooth="yes"/>
      <point x="121" y="32.6"/>
      <point x="111.3" y="42.6"/>
      <point x="95.4" y="42.6" type="curve" smooth="yes"/>
      <point x="80" y="42.6"/>
      <point x="71" y="33.2"/>
      <point x="71" y="17.2" type="curve" smooth="yes"/>
      <point x="71" y="0.8"/>
      <point x="80.5" y="-9.1"/>
    </contour>
  </outline>
</glyph>
<glyph name="semicolon" format="1">
  <advance width="195"/>
  <unicode hex="003B"/>
  <outline>
    <contour>
      <point x="99" y="388" type="curve" smooth="yes"/>
      <point x="114" y="388"/>
      <point x="125" y="396"/>
      <point x="125" y="413" type="curve" smooth="yes"/>
      <point x="125" y="430"/>
      <point x="116" y="440"/>
      <point x="99" y="440" type="curve" smooth="yes"/>
      <point x="84" y="440"/>
      <point x="75" y="430"/>
      <point x="75" y="413" type="curve" smooth="yes"/>
      <point x="75" y="398"/>
      <point x="85" y="388"/>
    </contour>
    <contour>
      <point x="84" y="-183" type="curve" smooth="yes"/>
      <point x="105" y="-135"/>
      <point x="117" y="-50"/>
      <point x="111" y="12" type="curve" smooth="yes"/>
      <point x="111" y="17"/>
      <point x="107" y="20"/>
      <point x="103" y="20" type="curve" smooth="yes"/>
      <point x="97" y="20"/>
      <point x="93" y="16"/>
      <point x="94" y="10" type="curve" smooth="yes"/>
      <point x="99" y="-41"/>
      <point x="87" y="-133"/>
      <point x="71" y="-175" type="curve" smooth="yes"/>
      <point x="69" y="-181"/>
      <point x="72" y="-187"/>
      <point x="77" y="-187" type="curve" smooth="yes"/>
      <point x="80" y="-187"/>
      <point x="83" y="-185"/>
    </contour>
  </outline>
</glyph>
<glyph name="less" format="1">
  <advance width="445"/>
  <unicode hex="003C"/>
  <outline>
    <contour>
      <point x="345.8" y="56.8" type="line" smooth="yes"/>
      <point x="347.6" y="55.7"/>
      <point x="349.4" y="55.1"/>
      <point x="351.3" y="55.1" type="curve"/>
      <point x="360.8" y="55.1"/>
      <point x="363.6" y="67.5"/>
      <point x="355.4" y="72.6" type="curve" smooth="yes"/>
      <point x="85.2" y="241.9" type="line"/>
      <point x="172.9" y="289.8"/>
      <point x="279.1" y="356.6"/>
      <point x="359.8" y="414.8" type="curve" smooth="yes"/>
      <point x="367.6" y="420.4"/>
      <point x="365.2" y="431.9"/>
      <point x="356.2" y="431.9" type="curve" smooth="yes"/>
      <point x="354" y="431.9"/>
      <point x="351.9" y="431.1"/>
      <point x="349.8" y="429.6" type="curve" smooth="yes"/>
      <point x="259.8" y="366"/>
      <point x="148.7" y="296.9"/>
      <point x="67.8" y="252.8" type="curve" smooth="yes"/>
      <point x="63.4" y="250.5"/>
      <point x="60.9" y="246.8"/>
      <point x="60.9" y="242.8" type="curve" smooth="yes"/>
      <point x="60.9" y="238.8"/>
      <point x="63.4" y="234.9"/>
      <point x="67.8" y="232.2" type="curve" smooth="yes"/>
    </contour>
  </outline>
</glyph>
<glyph name="equal" format="1">
  <advance width="511"/>
  <unicode hex="003D"/>
  <outline>
    <contour>
      <point x="430" y="344" type="curve" smooth="yes"/>
      <point x="437" y="345"/>
      <point x="441" y="348"/>
      <point x="441" y="353" type="curve" smooth="yes"/>
      <point x="441" y="358"/>
      <point x="436" y="362"/>
      <point x="430" y="361" type="curve" smooth="yes"/>
      <point x="294" y="348"/>
      <point x="223" y="345"/>
      <point x="82" y="347" type="curve" smooth="yes"/>
      <point x="75" y="348"/>
      <point x="70" y="344"/>
      <point x="70" y="339" type="curve" smooth="yes"/>
      <point x="70" y="334"/>
      <point x="75" y="331"/>
      <point x="81" y="330" type="curve" smooth="yes"/>
      <point x="207" y="326"/>
      <point x="277" y="329"/>
    </contour>
    <contour>
      <point x="430" y="156" type="curve" smooth="yes"/>
      <point x="437" y="156"/>
      <point x="441" y="160"/>
      <point x="441" y="165" type="curve" smooth="yes"/>
      <point x="441" y="170"/>
      <point x="436" y="174"/>
      <point x="430" y="173" type="curve" smooth="yes"/>
      <point x="294" y="159"/>
      <point x="223" y="156"/>
      <point x="82" y="159" type="curve" smooth="yes"/>
      <point x="75" y="159"/>
      <point x="70" y="156"/>
      <point x="70" y="151" type="curve" smooth="yes"/>
      <point x="70" y="146"/>
      <point x="75" y="142"/>
      <point x="81" y="142" type="curve" smooth="yes"/>
      <point x="207" y="138"/>
      <point x="277" y="141"/>
    </contour>
  </outline>
</glyph>
<glyph name="greater" format="1">
  <advance width="444"/>
  <unicode hex="003E"/>
  <outline>
    <contour>
      <point x="98.6" y="56.8" type="curve" smooth="yes"/>
      <point x="376.6" y="232.2" type="line" smooth="yes"/>
      <point x="381" y="234.9"/>
      <point x="383.5" y="238.8"/>
      <point x="383.5" y="242.8" type="curve" smooth="yes"/>
      <point x="383.5" y="246.9"/>
      <point x="381" y="250.5"/>
      <point x="376.6" y="252.8" type="curve" smooth="yes"/>
      <point x="273.6" y="308.3"/>
      <point x="165.7" y="375.9"/>
      <point x="94.6" y="429.6" type="curve"/>
      <point x="92.7" y="431.1"/>
      <point x="90.6" y="431.8"/>
      <point x="88.5" y="431.8" type="curve" smooth="yes"/>
      <point x="79.5" y="431.8"/>
      <point x="76.8" y="420.4"/>
      <point x="84.5" y="414.8" type="curve" smooth="yes"/>
      <point x="165.3" y="356.6"/>
      <point x="271.5" y="289.8"/>
      <point x="359.2" y="241.9" type="curve"/>
      <point x="89" y="72.6" type="line" smooth="yes"/>
      <point x="80.8" y="67.5"/>
      <point x="83.6" y="55.1"/>
      <point x="93" y="55.1" type="curve"/>
      <point x="94.9" y="55.1"/>
      <point x="96.8" y="55.7"/>
    </contour>
  </outline>
</glyph>
<glyph name="question" format="1">
  <advance width="448"/>
  <unicode hex="003F"/>
  <outline>
    <contour>
      <point x="200.4" y="173.9" type="curve" smooth="yes"/>
      <point x="200.4" y="370.6"/>
      <point x="377.5" y="405"/>
      <point x="377.5" y="552" type="curve" smooth="yes"/>
      <point x="377.5" y="642.9"/>
      <point x="308.8" y="709.8"/>
      <point x="215.6" y="709.8" type="curve" smooth="yes"/>
      <point x="157.1" y="709.8"/>
      <point x="107" y="683.2"/>
      <point x="63.5" y="629.3" type="curve" smooth="yes"/>
      <point x="57.6" y="622"/>
      <point x="60.5" y="612.7"/>
      <point x="68.6" y="612.7" type="curve" smooth="yes"/>
      <point x="71.7" y="612.7"/>
      <point x="74.6" y="614.4"/>
      <point x="76.8" y="617.5" type="curve" smooth="yes"/>
      <point x="111.2" y="665.2"/>
      <point x="162.3" y="692.7"/>
      <point x="216.6" y="692.7" type="curve" smooth="yes"/>
      <point x="298.7" y="692.7"/>
      <point x="358.7" y="632.4"/>
      <point x="358.7" y="549.9" type="curve" smooth="yes"/>
      <point x="358.7" y="410.7"/>
      <point x="182.9" y="379.8"/>
      <point x="181.6" y="173.7" type="curve" smooth="yes"/>
      <point x="181.6" y="168.2"/>
      <point x="185.5" y="164.2"/>
      <point x="190.9" y="164.2" type="curve" smooth="yes"/>
      <point x="196.4" y="164.2"/>
      <point x="200.4" y="168.3"/>
    </contour>
    <contour>
      <point x="190.5" y="-9.6" type="curve" smooth="yes"/>
      <point x="207" y="-9.6"/>
      <point x="216.5" y="-0.6"/>
      <point x="216.5" y="15.3" type="curve" smooth="yes"/>
      <point x="216.5" y="32.2"/>
      <point x="206.8" y="42.2"/>
      <point x="190.5" y="42.2" type="curve" smooth="yes"/>
      <point x="175.2" y="42.2"/>
      <point x="166.5" y="32.4"/>
      <point x="166.5" y="15.3" type="curve" smooth="yes"/>
      <point x="166.5" y="0.4"/>
      <point x="176.1" y="-9.6"/>
    </contour>
  </outline>
</glyph>
<glyph name="at" format="1">
  <advance width="891"/>
  <unicode hex="0040"/>
  <outline>
    <contour>
      <point x="650.8" y="-103.8" type="curve" smooth="yes"/>
      <point x="654.5" y="-101.4"/>
      <point x="656.7" y="-98.1"/>
      <point x="656.7" y="-94.6" type="curve" smooth="yes"/>
      <point x="656.7" y="-87.4"/>
      <point x="648.7" y="-84.2"/>
      <point x="641.6" y="-88.6" type="curve" smooth="yes"/>
      <point x="572.3" y="-131.4"/>
      <point x="500.7" y="-153.3"/>
      <point x="430.4" y="-153.3" type="curve" smooth="yes"/>
      <point x="229.5" y="-153.3"/>
      <point x="73.5" y="2.5"/>
      <point x="73.5" y="203.3" type="curve" smooth="yes"/>
      <point x="73.5" y="436.8"/>
      <point x="245.1" y="607.1"/>
      <point x="480.4" y="607.1" type="curve" smooth="yes"/>
      <point x="683.8" y="607.1"/>
      <point x="812.8" y="480.4"/>
      <point x="812.8" y="280.8" type="curve" smooth="yes"/>
      <point x="812.8" y="143.5"/>
      <point x="747" y="33.5"/>
      <point x="664.8" y="33.5" type="curve" smooth="yes"/>
      <point x="609.422" y="33.5"/>
      <point x="592.423" y="97.7947"/>
      <point x="592.423" y="173.761" type="curve" smooth="yes"/>
      <point x="592.423" y="254.589"/>
      <point x="611.667" y="348.631"/>
      <point x="624.4" y="392.5" type="curve" smooth="yes"/>
      <point x="627.4" y="402.9"/>
      <point x="622.5" y="410.8"/>
      <point x="611.4" y="413.5" type="curve" smooth="yes"/>
      <point x="580.2" y="421.3"/>
      <point x="549.3" y="425.2"/>
      <point x="519.3" y="425.2" type="curve" smooth="yes"/>
      <point x="372.1" y="425.2"/>
      <point x="267.4" y="332.9"/>
      <point x="267.4" y="203.1" type="curve" smooth="yes"/>
      <point x="267.4" y="94.8"/>
      <point x="341.1" y="16.1"/>
      <point x="442.5" y="16.1" type="curve" smooth="yes"/>
      <point x="497.6" y="16.1"/>
      <point x="548.2" y="38.9"/>
      <point x="586.7" y="81" type="curve"/>
      <point x="601" y="38"/>
      <point x="627.9" y="16.2"/>
      <point x="666.7" y="16.2" type="curve" smooth="yes"/>
      <point x="758.7" y="16.2"/>
      <point x="830.6" y="133.3"/>
      <point x="830.6" y="283" type="curve" smooth="yes"/>
      <point x="830.6" y="491"/>
      <point x="693.6" y="624.4"/>
      <point x="480.1" y="624.4" type="curve" smooth="yes"/>
      <point x="234.5" y="624.4"/>
      <point x="55.7" y="447.6"/>
      <point x="55.7" y="204.6" type="curve" smooth="yes"/>
      <point x="55.7" y="-8.2"/>
      <point x="216.8" y="-169.7"/>
      <point x="429.2" y="-169.7" type="curve" smooth="yes"/>
      <point x="506.3" y="-169.7"/>
      <point x="582.4" y="-147"/>
    </contour>
    <contour>
      <point x="581.4" y="100.3" type="curve"/>
      <point x="542.3" y="56.3"/>
      <point x="494.7" y="33.3"/>
      <point x="442.8" y="33.3" type="curve" smooth="yes"/>
      <point x="351.2" y="33.3"/>
      <point x="285.2" y="103.8"/>
      <point x="285.2" y="201.7" type="curve" smooth="yes"/>
      <point x="285.2" y="322.3"/>
      <point x="382.4" y="408"/>
      <point x="519.4" y="408" type="curve" smooth="yes"/>
      <point x="547.9" y="408"/>
      <point x="577.3" y="404.1"/>
      <point x="607" y="396.5" type="curve"/>
      <point x="586.815" y="322.135"/>
      <point x="575.409" y="236.234"/>
      <point x="575.409" y="169.987" type="curve" smooth="yes"/>
      <point x="575.409" y="142.695"/>
      <point x="577.344" y="118.74"/>
    </contour>
  </outline>
</glyph>
<glyph name="A" format="1">
  <advance width="615"/>
  <unicode hex="0041"/>
  <outline>
    <contour>
      <point x="583" y="15" type="curve" smooth="yes"/>
      <point x="459" y="279"/>
      <point x="399" y="433"/>
      <point x="301" y="685" type="curve" smooth="yes"/>
      <point x="299" y="690"/>
      <point x="295" y="693"/>
      <point x="290" y="693" type="curve" smooth="yes"/>
      <point x="286" y="693"/>
      <point x="282" y="690"/>
      <point x="281" y="685" type="curve" smooth="yes"/>
      <point x="218" y="455"/>
      <point x="191" y="363"/>
      <point x="147" y="239" type="curve"/>
      <point x="127" y="238"/>
      <point x="106" y="238"/>
      <point x="85" y="238" type="curve" smooth="yes"/>
      <point x="79" y="238"/>
      <point x="74" y="234"/>
      <point x="74" y="229" type="curve" smooth="yes"/>
      <point x="74" y="223"/>
      <point x="79" y="219"/>
      <point x="85" y="219" type="curve" smooth="yes"/>
      <point x="102" y="219"/>
      <point x="121" y="219"/>
      <point x="140" y="220" type="curve"/>
      <point x="116" y="152"/>
      <point x="91" y="84"/>
      <point x="62" y="11" type="curve" smooth="yes"/>
      <point x="59" y="3"/>
      <point x="63" y="-4"/>
      <point x="70" y="-4" type="curve" smooth="yes"/>
      <point x="75" y="-4"/>
      <point x="79" y="-1"/>
      <point x="81" y="4" type="curve" smooth="yes"/>
      <point x="109" y="77"/>
      <point x="134" y="149"/>
      <point x="159" y="221" type="curve"/>
      <point x="262" y="225"/>
      <point x="376" y="239"/>
      <point x="454" y="255" type="curve"/>
      <point x="484" y="186"/>
      <point x="519" y="107"/>
      <point x="564" y="8" type="curve" smooth="yes"/>
      <point x="567" y="3"/>
      <point x="571" y="0"/>
      <point x="575" y="0" type="curve" smooth="yes"/>
      <point x="582" y="0"/>
      <point x="587" y="8"/>
    </contour>
    <contour>
      <point x="446" y="273" type="curve"/>
      <point x="348" y="254"/>
      <point x="261" y="243"/>
      <point x="165" y="240" type="curve"/>
      <point x="207" y="362"/>
      <point x="244" y="485"/>
      <point x="292" y="656" type="curve"/>
      <point x="343" y="521"/>
      <point x="391" y="402"/>
    </contour>
    <contour>
      <point x="290" y="730" type="move" name="top"/>
    </contour>
  </outline>
</glyph>
<glyph name="B" format="1">
  <advance width="567"/>
  <unicode hex="0042"/>
  <outline>
    <contour>
      <point x="130.1" y="-6.3" type="curve" smooth="yes"/>
      <point x="364.1" y="-17.2"/>
      <point x="507.7" y="51.6"/>
      <point x="507.7" y="176.1" type="curve" smooth="yes"/>
      <point x="507.7" y="274"/>
      <point x="407" y="348.8"/>
      <point x="262.7" y="359.1" type="curve"/>
      <point x="389.2" y="376.8"/>
      <point x="468.8" y="445.5"/>
      <point x="468.8" y="538.3" type="curve" smooth="yes"/>
      <point x="468.8" y="655.3"/>
      <point x="342.2" y="712.4"/>
      <point x="111.1" y="700.4" type="curve" smooth="yes"/>
      <point x="99.1" y="699.8"/>
      <point x="89.7" y="690.3"/>
      <point x="90.1" y="679.6" type="curve" smooth="yes"/>
      <point x="94.9832" y="547.606"/>
      <point x="97.2388" y="431.621"/>
      <point x="97.2388" y="326.845" type="curve" smooth="yes"/>
      <point x="97.2388" y="219.201"/>
      <point x="94.858" y="123.388"/>
      <point x="90.5" y="34.2" type="curve" smooth="yes"/>
      <point x="89" y="4.1"/>
      <point x="96.7" y="-4.8"/>
    </contour>
    <contour>
      <point x="116.3" y="364.3" type="curve"/>
      <point x="116.1" y="472.4"/>
      <point x="113.3" y="577.7"/>
      <point x="107.9" y="683.3" type="curve"/>
      <point x="334" y="693.7"/>
      <point x="450.1" y="644.1"/>
      <point x="450.1" y="536.8" type="curve" smooth="yes"/>
      <point x="450.1" y="426.2"/>
      <point x="332.1" y="365.9"/>
    </contour>
    <contour>
      <point x="108" y="11.9" type="curve"/>
      <point x="113.4" y="125.8"/>
      <point x="116.2" y="236.8"/>
      <point x="116.3" y="345.8" type="curve"/>
      <point x="334.8" y="363.9"/>
      <point x="489" y="293.5"/>
      <point x="489" y="175.5" type="curve" smooth="yes"/>
      <point x="489" y="60.5"/>
      <point x="339.7" y="-3.6"/>
    </contour>
  </outline>
</glyph>
<glyph name="C" format="1">
  <advance width="593"/>
  <unicode hex="0043"/>
  <outline>
    <contour>
      <point x="334" y="-10" type="curve" smooth="yes"/>
      <point x="418" y="-10"/>
      <point x="491" y="33"/>
      <point x="531" y="106" type="curve" smooth="yes"/>
      <point x="534" y="111"/>
      <point x="530" y="118"/>
      <point x="523" y="118" type="curve" smooth="yes"/>
      <point x="519" y="118"/>
      <point x="516" y="115"/>
      <point x="514" y="112" type="curve" smooth="yes"/>
      <point x="479" y="46"/>
      <point x="412" y="7"/>
      <point x="335" y="7" type="curve" smooth="yes"/>
      <point x="186" y="7"/>
      <point x="78" y="152"/>
      <point x="78" y="353" type="curve" smooth="yes"/>
      <point x="78" y="552"/>
      <point x="182" y="693"/>
      <point x="332" y="693" type="curve" smooth="yes"/>
      <point x="408" y="693"/>
      <point x="471" y="658"/>
      <point x="503" y="598" type="curve" smooth="yes"/>
      <point x="505" y="595"/>
      <point x="507" y="593"/>
      <point x="511" y="593" type="curve" smooth="yes"/>
      <point x="518" y="593"/>
      <point x="522" y="599"/>
      <point x="519" y="605" type="curve" smooth="yes"/>
      <point x="480" y="673"/>
      <point x="416" y="710"/>
      <point x="333" y="710" type="curve" smooth="yes"/>
      <point x="169" y="710"/>
      <point x="60" y="565"/>
      <point x="60" y="356" type="curve" smooth="yes"/>
      <point x="60" y="144"/>
      <point x="175" y="-10"/>
    </contour>
    <contour>
      <point x="330" y="0" type="move" name="bottom"/>
    </contour>
    <contour>
      <point x="325" y="730" type="move" name="top"/>
    </contour>
  </outline>
</glyph>
<glyph name="D" format="1">
  <advance width="588"/>
  <unicode hex="0044"/>
  <outline>
    <contour>
      <point x="126" y="-11" type="curve" smooth="yes"/>
      <point x="356" y="-11"/>
      <point x="527" y="147"/>
      <point x="527" y="360" type="curve" smooth="yes"/>
      <point x="527" y="568"/>
      <point x="357" y="711"/>
      <point x="109" y="711" type="curve" smooth="yes"/>
      <point x="97" y="711"/>
      <point x="91" y="705"/>
      <point x="92" y="693" type="curve" smooth="yes"/>
      <point x="106" y="423"/>
      <point x="106" y="186"/>
      <point x="92" y="24" type="curve" smooth="yes"/>
      <point x="89" y="-5"/>
      <point x="95" y="-11"/>
    </contour>
    <contour>
      <point x="109" y="5" type="curve"/>
      <point x="124" y="202"/>
      <point x="124" y="424"/>
      <point x="110" y="694" type="curve"/>
      <point x="356" y="685"/>
      <point x="509" y="557"/>
      <point x="509" y="360" type="curve" smooth="yes"/>
      <point x="509" y="153"/>
      <point x="343" y="6"/>
    </contour>
  </outline>
</glyph>
<glyph name="E" format="2">
  <advance width="493"/>
  <unicode hex="0045"/>
  <anchor x="251" y="730" name="top"/>
  <outline>
    <contour>
      <point x="408.327" y="683.133" type="curve" smooth="yes"/>
      <point x="413.792" y="683.456"/>
      <point x="417.868" y="687.248"/>
      <point x="417.868" y="692.009" type="curve" smooth="yes"/>
      <point x="417.868" y="697.077"/>
      <point x="413.258" y="700.291"/>
      <point x="406.55" y="699.9" type="curve" smooth="yes"/>
      <point x="301.8" y="693.79"/>
      <point x="207.06" y="693.679"/>
      <point x="102.311" y="699.541" type="curve" smooth="yes"/>
      <point x="94.0217" y="700.005"/>
      <point x="89.7054" y="695.935"/>
      <point x="90.2728" y="688.189" type="curve" smooth="yes"/>
      <point x="107.539" y="452.486"/>
      <point x="109.183" y="229.007"/>
      <point x="95.2186" y="15.8767" type="curve" smooth="yes"/>
      <point x="94.4976" y="4.87281"/>
      <point x="99.1971" y="-0.0891816"/>
      <point x="110.685" y="-0.453882" type="curve" smooth="yes"/>
      <point x="207.595" y="-3.52998"/>
      <point x="312.698" y="1.1159"/>
      <point x="415.05" y="13" type="curve" smooth="yes"/>
      <point x="419.363" y="13.5008"/>
      <point x="422.264" y="16.8249"/>
      <point x="422.264" y="21.267" type="curve" smooth="yes"/>
      <point x="422.264" y="26.7954"/>
      <point x="417.993" y="30.5333"/>
      <point x="412.4" y="29.9" type="curve" smooth="yes"/>
      <point x="311.854" y="18.5152"/>
      <point x="213.832" y="14.0123"/>
      <point x="113.149" y="16.153" type="curve"/>
      <point x="120.111" y="126.062"/>
      <point x="123.173" y="235.2"/>
      <point x="122.399" y="345.841" type="curve"/>
      <point x="218.341" y="346.016"/>
      <point x="306.483" y="350.746"/>
      <point x="379.619" y="359.644" type="curve" smooth="yes"/>
      <point x="384.957" y="360.294"/>
      <point x="388.492" y="363.896"/>
      <point x="388.492" y="368.686" type="curve" smooth="yes"/>
      <point x="388.492" y="374.287"/>
      <point x="383.872" y="378.058"/>
      <point x="378" y="377.25" type="curve" smooth="yes"/>
      <point x="304.505" y="367.141"/>
      <point x="215.659" y="362.062"/>
      <point x="122.229" y="362.627" type="curve"/>
      <point x="121.138" y="466.799"/>
      <point x="116.72" y="572.776"/>
      <point x="108.898" y="682.378" type="curve"/>
      <point x="224.232" y="677.74"/>
      <point x="321.141" y="677.984"/>
    </contour>
  </outline>
</glyph>
<glyph name="F" format="1">
  <advance width="489"/>
  <unicode hex="0046"/>
  <outline>
    <contour>
      <point x="409" y="683" type="curve" smooth="yes"/>
      <point x="415" y="684"/>
      <point x="418" y="687"/>
      <point x="418" y="691" type="curve" smooth="yes"/>
      <point x="418" y="696"/>
      <point x="414" y="700"/>
      <point x="407" y="700" type="curve" smooth="yes"/>
      <point x="316" y="696"/>
      <point x="221" y="694"/>
      <point x="103" y="699" type="curve" smooth="yes"/>
      <point x="93" y="700"/>
      <point x="90" y="696"/>
      <point x="90" y="687" type="curve" smooth="yes"/>
      <point x="107" y="411"/>
      <point x="107" y="199"/>
      <point x="94" y="10" type="curve" smooth="yes"/>
      <point x="94" y="2"/>
      <point x="98" y="-2"/>
      <point x="103" y="-2" type="curve" smooth="yes"/>
      <point x="107" y="-2"/>
      <point x="111" y="2"/>
      <point x="112" y="9" type="curve" smooth="yes"/>
      <point x="119" y="120"/>
      <point x="122" y="233"/>
      <point x="121" y="346" type="curve"/>
      <point x="218" y="345"/>
      <point x="306" y="350"/>
      <point x="379" y="360" type="curve" smooth="yes"/>
      <point x="385" y="361"/>
      <point x="388" y="365"/>
      <point x="388" y="369" type="curve" smooth="yes"/>
      <point x="388" y="374"/>
      <point x="384" y="378"/>
      <point x="377" y="377" type="curve" smooth="yes"/>
      <point x="303" y="367"/>
      <point x="215" y="362"/>
      <point x="121" y="363" type="curve"/>
      <point x="120" y="467"/>
      <point x="116" y="573"/>
      <point x="108" y="682" type="curve"/>
      <point x="220" y="678"/>
      <point x="318" y="679"/>
    </contour>
  </outline>
</glyph>
<glyph name="G" format="1">
  <advance width="606"/>
  <unicode hex="0047"/>
  <outline>
    <contour>
      <point x="535" y="8" type="curve" smooth="yes"/>
      <point x="520" y="100"/>
      <point x="514" y="190"/>
      <point x="516" y="299" type="curve" smooth="yes"/>
      <point x="516" y="305"/>
      <point x="512" y="309"/>
      <point x="507" y="309" type="curve" smooth="yes"/>
      <point x="502" y="309"/>
      <point x="498" y="305"/>
      <point x="498" y="299" type="curve" smooth="yes"/>
      <point x="498" y="133"/>
      <point x="409" y="7"/>
      <point x="292" y="7" type="curve" smooth="yes"/>
      <point x="166" y="7"/>
      <point x="78" y="150"/>
      <point x="78" y="352" type="curve" smooth="yes"/>
      <point x="78" y="557"/>
      <point x="167" y="693"/>
      <point x="300" y="693" type="curve" smooth="yes"/>
      <point x="378" y="693"/>
      <point x="449" y="644"/>
      <point x="479" y="570" type="curve" smooth="yes"/>
      <point x="480" y="567"/>
      <point x="484" y="564"/>
      <point x="488" y="564" type="curve" smooth="yes"/>
      <point x="494" y="564"/>
      <point x="498" y="571"/>
      <point x="495" y="577" type="curve" smooth="yes"/>
      <point x="458" y="661"/>
      <point x="387" y="710"/>
      <point x="301" y="710" type="curve" smooth="yes"/>
      <point x="156" y="710"/>
      <point x="60" y="567"/>
      <point x="60" y="351" type="curve" smooth="yes"/>
      <point x="60" y="136"/>
      <point x="156" y="-10"/>
      <point x="298" y="-10" type="curve" smooth="yes"/>
      <point x="396" y="-10"/>
      <point x="467" y="61"/>
      <point x="499" y="189" type="curve"/>
      <point x="501" y="134"/>
      <point x="507" y="76"/>
      <point x="518" y="5" type="curve" smooth="yes"/>
      <point x="518" y="0"/>
      <point x="522" y="-3"/>
      <point x="527" y="-3" type="curve" smooth="yes"/>
      <point x="533" y="-3"/>
      <point x="536" y="2"/>
    </contour>
    <contour>
      <point x="298" y="0" type="move" name="bottom"/>
    </contour>
    <contour>
      <point x="298" y="730" type="move" name="top"/>
    </contour>
  </outline>
</glyph>
<glyph name="H" format="1">
  <advance width="664"/>
  <unicode hex="0048"/>
  <outline>
    <contour>
      <point x="573.1" y="8.5" type="curve" smooth="yes"/>
      <point x="565.47" y="148.953"/>
      <point x="561.655" y="281.187"/>
      <point x="561.655" y="406.29" type="curve" smooth="yes"/>
      <point x="561.655" y="505.824"/>
      <point x="564.07" y="600.845"/>
      <point x="568.9" y="691.9" type="curve" smooth="yes"/>
      <point x="569.3" y="698.7"/>
      <point x="565.3" y="704.1"/>
      <point x="559.7" y="704.1" type="curve" smooth="yes"/>
      <point x="554.7" y="704.1"/>
      <point x="551.2" y="699.5"/>
      <point x="550.9" y="692.5" type="curve" smooth="yes"/>
      <point x="546" y="582.3"/>
      <point x="543.9" y="471.8"/>
      <point x="544.6" y="358.6" type="curve"/>
      <point x="396.8" y="340.2"/>
      <point x="257.5" y="328.4"/>
      <point x="142.7" y="324.7" type="curve"/>
      <point x="143.4" y="433.7"/>
      <point x="140.3" y="542.1"/>
      <point x="132.1" y="695.2" type="curve" smooth="yes"/>
      <point x="131.8" y="700.9"/>
      <point x="128.1" y="704.9"/>
      <point x="123.1" y="704.9" type="curve" smooth="yes"/>
      <point x="117.6" y="704.9"/>
      <point x="113.9" y="700.3"/>
      <point x="114.2" y="694" type="curve" smooth="yes"/>
      <point x="122.7" y="544.1"/>
      <point x="125.9" y="434.9"/>
      <point x="125" y="324.2" type="curve"/>
      <point x="106" y="323.7"/>
      <point x="87.2" y="323.4"/>
      <point x="69.9" y="323.4" type="curve" smooth="yes"/>
      <point x="64.1" y="323.4"/>
      <point x="60.1" y="319.9"/>
      <point x="60.1" y="314.9" type="curve" smooth="yes"/>
      <point x="60.1" y="309.8"/>
      <point x="64.3" y="306.1"/>
      <point x="70" y="306.1" type="curve" smooth="yes"/>
      <point x="87.3" y="306.2"/>
      <point x="105.3" y="306.6"/>
      <point x="124.9" y="307.1" type="curve"/>
      <point x="124" y="224"/>
      <point x="120.8" y="134.7"/>
      <point x="114.3" y="11.5" type="curve" smooth="yes"/>
      <point x="113.9" y="3.6"/>
      <point x="117.4" y="-2.1"/>
      <point x="122.8" y="-2.1" type="curve" smooth="yes"/>
      <point x="127.9" y="-2.1"/>
      <point x="131.7" y="2.9"/>
      <point x="132.1" y="9.8" type="curve" smooth="yes"/>
      <point x="138.4" y="130.6"/>
      <point x="141.6" y="221.6"/>
      <point x="142.5" y="307.6" type="curve"/>
      <point x="261.7" y="311.7"/>
      <point x="401.1" y="323.5"/>
      <point x="544.7" y="341.6" type="curve"/>
      <point x="545.6" y="232.1"/>
      <point x="548.8" y="120.7"/>
      <point x="554.9" y="8.5" type="curve" smooth="yes"/>
      <point x="555.2" y="2.2"/>
      <point x="559" y="-2"/>
      <point x="564.2" y="-2" type="curve" smooth="yes"/>
      <point x="569.6" y="-2"/>
      <point x="573.4" y="2.5"/>
    </contour>
    <contour>
      <point x="344" y="730" type="move" name="top"/>
    </contour>
  </outline>
</glyph>
<glyph name="I" format="1">
  <advance width="382"/>
  <unicode hex="0049"/>
  <outline>
    <contour>
      <point x="279" y="687" type="curve" smooth="yes"/>
      <point x="284" y="687"/>
      <point x="288" y="691"/>
      <point x="288" y="696" type="curve" smooth="yes"/>
      <point x="288" y="701"/>
      <point x="283" y="705"/>
      <point x="277" y="704" type="curve" smooth="yes"/>
      <point x="206" y="699"/>
      <point x="166" y="698"/>
      <point x="95" y="700" type="curve" smooth="yes"/>
      <point x="89" y="700"/>
      <point x="85" y="697"/>
      <point x="85" y="692" type="curve" smooth="yes"/>
      <point x="85" y="686"/>
      <point x="89" y="683"/>
      <point x="95" y="683" type="curve" smooth="yes"/>
      <point x="128" y="683"/>
      <point x="154" y="683"/>
      <point x="180" y="683" type="curve"/>
      <point x="195" y="485"/>
      <point x="196" y="263"/>
      <point x="182" y="17" type="curve"/>
      <point x="159" y="17"/>
      <point x="135" y="17"/>
      <point x="104" y="17" type="curve" smooth="yes"/>
      <point x="98" y="17"/>
      <point x="94" y="14"/>
      <point x="94" y="8" type="curve" smooth="yes"/>
      <point x="94" y="4"/>
      <point x="98" y="0"/>
      <point x="103" y="0" type="curve" smooth="yes"/>
      <point x="190" y="0"/>
      <point x="226" y="1"/>
      <point x="288" y="5" type="curve" smooth="yes"/>
      <point x="293" y="6"/>
      <point x="296" y="9"/>
      <point x="296" y="14" type="curve" smooth="yes"/>
      <point x="296" y="19"/>
      <point x="292" y="22"/>
      <point x="287" y="22" type="curve" smooth="yes"/>
      <point x="250" y="19"/>
      <point x="225" y="18"/>
      <point x="200" y="17" type="curve"/>
      <point x="214" y="249"/>
      <point x="213" y="473"/>
      <point x="199" y="683" type="curve"/>
      <point x="225" y="684"/>
      <point x="250" y="685"/>
    </contour>
    <contour>
      <point x="193" y="0" type="move" name="bottom"/>
    </contour>
    <contour>
      <point x="190" y="730" type="move" name="top"/>
    </contour>
  </outline>
</glyph>
<glyph name="J" format="1">
  <advance width="498"/>
  <unicode hex="004A"/>
  <outline>
    <contour>
      <point x="410" y="693" type="curve" smooth="yes"/>
      <point x="415" y="694"/>
      <point x="417" y="697"/>
      <point x="417" y="701" type="curve" smooth="yes"/>
      <point x="417" y="707"/>
      <point x="413" y="711"/>
      <point x="407" y="710" type="curve" smooth="yes"/>
      <point x="313" y="694"/>
      <point x="207" y="688"/>
      <point x="110" y="692" type="curve" smooth="yes"/>
      <point x="105" y="692"/>
      <point x="100" y="689"/>
      <point x="100" y="684" type="curve" smooth="yes"/>
      <point x="100" y="679"/>
      <point x="104" y="675"/>
      <point x="110" y="675" type="curve" smooth="yes"/>
      <point x="167" y="672"/>
      <point x="230" y="674"/>
      <point x="294" y="679" type="curve"/>
      <point x="322" y="577"/>
      <point x="345" y="408"/>
      <point x="345" y="296" type="curve" smooth="yes"/>
      <point x="345" y="108"/>
      <point x="293" y="7"/>
      <point x="197" y="7" type="curve" smooth="yes"/>
      <point x="148" y="7"/>
      <point x="108" y="35"/>
      <point x="76" y="92" type="curve" smooth="yes"/>
      <point x="75" y="95"/>
      <point x="72" y="96"/>
      <point x="69" y="96" type="curve" smooth="yes"/>
      <point x="62" y="96"/>
      <point x="59" y="90"/>
      <point x="62" y="83" type="curve" smooth="yes"/>
      <point x="90" y="25"/>
      <point x="140" y="-10"/>
      <point x="199" y="-10" type="curve" smooth="yes"/>
      <point x="306" y="-10"/>
      <point x="364" y="98"/>
      <point x="364" y="298" type="curve" smooth="yes"/>
      <point x="364" y="411"/>
      <point x="341" y="576"/>
      <point x="312" y="680" type="curve"/>
      <point x="346" y="684"/>
      <point x="379" y="688"/>
    </contour>
    <contour>
      <point x="256" y="730" type="move" name="top"/>
    </contour>
  </outline>
</glyph>
<glyph name="K" format="1">
  <advance width="533"/>
  <unicode hex="004B"/>
  <outline>
    <contour>
      <point x="490.3" y="13.6" type="curve" smooth="yes"/>
      <point x="389.5" y="127.4"/>
      <point x="308.7" y="229.5"/>
      <point x="215.6" y="361.8" type="curve"/>
      <point x="300.1" y="469"/>
      <point x="363.1" y="561.5"/>
      <point x="439.8" y="687.7" type="curve" smooth="yes"/>
      <point x="443.4" y="693.7"/>
      <point x="439.6" y="700.6"/>
      <point x="432.7" y="700.6" type="curve" smooth="yes"/>
      <point x="429.3" y="700.6"/>
      <point x="426.2" y="698.7"/>
      <point x="424.2" y="695.2" type="curve"/>
      <point x="333.8" y="543.3"/>
      <point x="258.9" y="438.7"/>
      <point x="120.8" y="272.2" type="curve"/>
      <point x="121.2" y="406.3"/>
      <point x="117" y="545.4"/>
      <point x="108.6" y="692.9" type="curve" smooth="yes"/>
      <point x="108.3" y="697.8"/>
      <point x="105" y="701"/>
      <point x="100.3" y="701" type="curve" smooth="yes"/>
      <point x="94.7" y="701"/>
      <point x="90.5" y="696.7"/>
      <point x="90.9" y="691.3" type="curve" smooth="yes"/>
      <point x="98.6995" y="559.69"/>
      <point x="102.543" y="433.583"/>
      <point x="102.543" y="310.772" type="curve" smooth="yes"/>
      <point x="102.543" y="208.417"/>
      <point x="99.8731" y="108.352"/>
      <point x="94.6" y="9.3" type="curve" smooth="yes"/>
      <point x="94.2" y="3.5"/>
      <point x="98.2" y="-0.8"/>
      <point x="103.8" y="-0.8" type="curve" smooth="yes"/>
      <point x="109.2" y="-0.8"/>
      <point x="113.1" y="3"/>
      <point x="113.4" y="8.5" type="curve" smooth="yes"/>
      <point x="117.4" y="86.4"/>
      <point x="119.8" y="165.1"/>
      <point x="120.5" y="245.2" type="curve"/>
      <point x="152" y="283"/>
      <point x="179.4" y="316.4"/>
      <point x="204.2" y="347.5" type="curve"/>
      <point x="303.1" y="209.3"/>
      <point x="383.6" y="107.7"/>
      <point x="477.9" y="2.1" type="curve"/>
      <point x="479.4" y="0.5"/>
      <point x="481.3" y="-0.4"/>
      <point x="483.5" y="-0.4" type="curve" smooth="yes"/>
      <point x="491.2" y="-0.4"/>
      <point x="495.2" y="8"/>
    </contour>
    <contour>
      <point x="282" y="0" type="move" name="bottom"/>
    </contour>
  </outline>
</glyph>
<glyph name="L" format="1">
  <advance width="463"/>
  <unicode hex="004C"/>
  <outline>
    <contour>
      <point x="422.8" y="11.7" type="curve" smooth="yes"/>
      <point x="428.4" y="12.3"/>
      <point x="432.3" y="16.1"/>
      <point x="432.3" y="21.1" type="curve" smooth="yes"/>
      <point x="432.3" y="26.4"/>
      <point x="427.9" y="29.8"/>
      <point x="422" y="29.3" type="curve" smooth="yes"/>
      <point x="273.9" y="16"/>
      <point x="189.2" y="12.7"/>
      <point x="111.4" y="17" type="curve"/>
      <point x="116.521" y="115.241"/>
      <point x="119.082" y="215.579"/>
      <point x="119.082" y="320.015" type="curve" smooth="yes"/>
      <point x="119.082" y="437.866"/>
      <point x="115.821" y="560.935"/>
      <point x="109.3" y="692.1" type="curve" smooth="yes"/>
      <point x="109.1" y="697"/>
      <point x="105.3" y="700.3"/>
      <point x="100.1" y="700.3" type="curve" smooth="yes"/>
      <point x="94.5" y="700.3"/>
      <point x="90.5" y="696.4"/>
      <point x="90.8" y="691" type="curve" smooth="yes"/>
      <point x="97.629" y="556.994"/>
      <point x="101.036" y="435.13"/>
      <point x="101.036" y="319.334" type="curve" smooth="yes"/>
      <point x="101.036" y="214.695"/>
      <point x="98.2539" y="115.011"/>
      <point x="92.7" y="15.8" type="curve" smooth="yes"/>
      <point x="92.2" y="6.7"/>
      <point x="97.1" y="0.8"/>
      <point x="105.5" y="0.4" type="curve" smooth="yes"/>
      <point x="188.8" y="-3.7"/>
      <point x="311.7" y="0.7"/>
    </contour>
    <contour>
      <point x="262" y="0" type="move" name="bottom"/>
    </contour>
    <contour>
      <point x="360" y="372" type="move" name="center"/>
    </contour>
    <contour>
      <point x="358" y="700" type="move" name="right"/>
    </contour>
    <contour>
      <point x="100" y="730" type="move" name="top"/>
    </contour>
  </outline>
</glyph>
<glyph name="M" format="1">
  <advance width="819"/>
  <unicode hex="004D"/>
  <outline>
    <contour>
      <point x="728" y="8" type="curve" smooth="yes"/>
      <point x="714" y="235"/>
      <point x="714" y="463"/>
      <point x="729" y="690" type="curve" smooth="yes"/>
      <point x="729" y="696"/>
      <point x="725" y="701"/>
      <point x="720" y="701" type="curve" smooth="yes"/>
      <point x="715" y="701"/>
      <point x="711" y="698"/>
      <point x="707" y="693" type="curve" smooth="yes"/>
      <point x="597" y="510"/>
      <point x="476" y="281"/>
      <point x="397" y="110" type="curve"/>
      <point x="314" y="327"/>
      <point x="231" y="502"/>
      <point x="120" y="692" type="curve" smooth="yes"/>
      <point x="117" y="697"/>
      <point x="112" y="701"/>
      <point x="106" y="701" type="curve" smooth="yes"/>
      <point x="97" y="701"/>
      <point x="90" y="692"/>
      <point x="91" y="682" type="curve" smooth="yes"/>
      <point x="111" y="480"/>
      <point x="110" y="263"/>
      <point x="91" y="10" type="curve" smooth="yes"/>
      <point x="90" y="3"/>
      <point x="94" y="-2"/>
      <point x="99" y="-2" type="curve" smooth="yes"/>
      <point x="104" y="-2"/>
      <point x="108" y="2"/>
      <point x="108" y="8" type="curve" smooth="yes"/>
      <point x="127" y="223"/>
      <point x="128" y="497"/>
      <point x="110" y="675" type="curve"/>
      <point x="231" y="459"/>
      <point x="312" y="285"/>
      <point x="385" y="86" type="curve" smooth="yes"/>
      <point x="387" y="82"/>
      <point x="391" y="80"/>
      <point x="395" y="80" type="curve" smooth="yes"/>
      <point x="399" y="80"/>
      <point x="403" y="82"/>
      <point x="405" y="86" type="curve" smooth="yes"/>
      <point x="483" y="256"/>
      <point x="605" y="486"/>
      <point x="710" y="664" type="curve"/>
      <point x="697" y="443"/>
      <point x="697" y="243"/>
      <point x="710" y="7" type="curve" smooth="yes"/>
      <point x="711" y="2"/>
      <point x="714" y="-2"/>
      <point x="719" y="-2" type="curve" smooth="yes"/>
      <point x="724" y="-2"/>
      <point x="729" y="3"/>
    </contour>
  </outline>
</glyph>
<glyph name="N" format="1">
  <advance width="669"/>
  <unicode hex="004E"/>
  <outline>
    <contour>
      <point x="577.7" y="5.7" type="curve" smooth="yes"/>
      <point x="572.545" y="125.632"/>
      <point x="570.314" y="236.627"/>
      <point x="570.314" y="341.117" type="curve" smooth="yes"/>
      <point x="570.314" y="467.681"/>
      <point x="573.587" y="584.701"/>
      <point x="578.9" y="696.5" type="curve" smooth="yes"/>
      <point x="579.2" y="701.8"/>
      <point x="575.3" y="705.8"/>
      <point x="570" y="705.8" type="curve" smooth="yes"/>
      <point x="565" y="705.8"/>
      <point x="561.5" y="702.2"/>
      <point x="561.1" y="696.8" type="curve" smooth="yes"/>
      <point x="555.409" y="600.857"/>
      <point x="552.519" y="475.386"/>
      <point x="552.519" y="348.68" type="curve" smooth="yes"/>
      <point x="552.519" y="237.142"/>
      <point x="554.759" y="124.648"/>
      <point x="559.3" y="30.5" type="curve"/>
      <point x="433.1" y="192.5"/>
      <point x="236.8" y="487.1"/>
      <point x="112.8" y="699.2" type="curve" smooth="yes"/>
      <point x="110.2" y="703.7"/>
      <point x="106.1" y="706.3"/>
      <point x="101.7" y="706.3" type="curve" smooth="yes"/>
      <point x="95.4" y="706.3"/>
      <point x="90.5" y="701.4"/>
      <point x="90.8" y="695.5" type="curve" smooth="yes"/>
      <point x="99.902" y="526.149"/>
      <point x="104.131" y="392.632"/>
      <point x="104.131" y="277.082" type="curve" smooth="yes"/>
      <point x="104.131" y="176.817"/>
      <point x="100.947" y="90.0803"/>
      <point x="95" y="5.2" type="curve" smooth="yes"/>
      <point x="94.5" y="-1.3"/>
      <point x="98.3" y="-6"/>
      <point x="104" y="-6" type="curve" smooth="yes"/>
      <point x="109" y="-6"/>
      <point x="112.6" y="-2.3"/>
      <point x="113" y="3.1" type="curve" smooth="yes"/>
      <point x="119.43" y="84.549"/>
      <point x="122.661" y="169.129"/>
      <point x="122.661" y="268.661" type="curve" smooth="yes"/>
      <point x="122.661" y="378.095"/>
      <point x="118.755" y="505.603"/>
      <point x="110.9" y="666.9" type="curve"/>
      <point x="219" y="478.2"/>
      <point x="409.3" y="193"/>
      <point x="559.1" y="0.4" type="curve" smooth="yes"/>
      <point x="562.3" y="-3.7"/>
      <point x="566.1" y="-6"/>
      <point x="569.6" y="-6" type="curve" smooth="yes"/>
      <point x="574.7" y="-6"/>
      <point x="577.9" y="-1.3"/>
    </contour>
    <contour>
      <point x="341" y="0" type="move" name="bottom"/>
    </contour>
    <contour>
      <point x="340" y="730" type="move" name="top"/>
    </contour>
  </outline>
</glyph>
<glyph name="O" format="1">
  <advance width="665"/>
  <unicode hex="004F"/>
  <outline>
    <contour>
      <point x="325" y="-10" type="curve" smooth="yes"/>
      <point x="481" y="-10"/>
      <point x="605" y="155"/>
      <point x="605" y="364" type="curve" smooth="yes"/>
      <point x="605" y="564"/>
      <point x="491" y="710"/>
      <point x="334" y="710" type="curve" smooth="yes"/>
      <point x="175" y="710"/>
      <point x="60" y="560"/>
      <point x="60" y="352" type="curve" smooth="yes"/>
      <point x="60" y="146"/>
      <point x="173" y="-10"/>
    </contour>
    <contour>
      <point x="326" y="7" type="curve" smooth="yes"/>
      <point x="187" y="7"/>
      <point x="78" y="159"/>
      <point x="78" y="354" type="curve" smooth="yes"/>
      <point x="78" y="548"/>
      <point x="186" y="693"/>
      <point x="334" y="693" type="curve" smooth="yes"/>
      <point x="480" y="693"/>
      <point x="587" y="552"/>
      <point x="587" y="364" type="curve" smooth="yes"/>
      <point x="587" y="166"/>
      <point x="468" y="7"/>
    </contour>
    <contour>
      <point x="335" y="730" type="move" name="top"/>
    </contour>
  </outline>
</glyph>
<glyph name="P" format="1">
  <advance width="554"/>
  <unicode hex="0050"/>
  <outline>
    <contour>
      <point x="109.3" y="3" type="curve" smooth="yes"/>
      <point x="113.5" y="121.4"/>
      <point x="115.6" y="207"/>
      <point x="116.2" y="284.2" type="curve"/>
      <point x="346.6" y="285.9"/>
      <point x="503.7" y="377.6"/>
      <point x="503.7" y="510.4" type="curve" smooth="yes"/>
      <point x="503.7" y="636"/>
      <point x="362.4" y="706.4"/>
      <point x="110.3" y="706.4" type="curve" smooth="yes"/>
      <point x="96" y="706.4"/>
      <point x="89.4" y="699.5"/>
      <point x="90.3" y="685.4" type="curve" smooth="yes"/>
      <point x="95.9134" y="588.456"/>
      <point x="98.7136" y="472.791"/>
      <point x="98.7136" y="353.008" type="curve" smooth="yes"/>
      <point x="98.7136" y="235.929"/>
      <point x="96.0384" y="114.915"/>
      <point x="90.7" y="3.6" type="curve" smooth="yes"/>
      <point x="90.4" y="-2"/>
      <point x="94.3" y="-6.1"/>
      <point x="99.9" y="-6.1" type="curve" smooth="yes"/>
      <point x="105.3" y="-6.1"/>
      <point x="109.1" y="-2.4"/>
    </contour>
    <contour>
      <point x="116.4" y="300.6" type="curve"/>
      <point x="117" y="418"/>
      <point x="114.5" y="531.5"/>
      <point x="107.8" y="689.2" type="curve"/>
      <point x="350" y="689.2"/>
      <point x="485.9" y="624.9"/>
      <point x="485.9" y="510.3" type="curve" smooth="yes"/>
      <point x="485.9" y="388.2"/>
      <point x="334.6" y="302.3"/>
    </contour>
  </outline>
</glyph>
<glyph name="Q" format="1">
  <advance width="665"/>
  <unicode hex="0051"/>
  <outline>
    <contour>
      <point x="581.8" y="-89.2" type="curve" smooth="yes"/>
      <point x="587.3" y="-90.3"/>
      <point x="592.5" y="-86"/>
      <point x="592.5" y="-80.3" type="curve" smooth="yes"/>
      <point x="592.5" y="-76.2"/>
      <point x="589.6" y="-73.2"/>
      <point x="584.9" y="-72.3" type="curve" smooth="yes"/>
      <point x="517.5" y="-60.6"/>
      <point x="467.5" y="-46.4"/>
      <point x="358.1" y="-7.6" type="curve"/>
      <point x="499.5" y="14.2"/>
      <point x="604.8" y="172.4"/>
      <point x="604.8" y="362.9" type="curve" smooth="yes"/>
      <point x="604.8" y="563.7"/>
      <point x="490.9" y="709.8"/>
      <point x="334.1" y="709.8" type="curve" smooth="yes"/>
      <point x="175.3" y="709.8"/>
      <point x="60" y="560.3"/>
      <point x="60" y="354.3" type="curve" smooth="yes"/>
      <point x="60" y="148.8"/>
      <point x="170.6" y="-6.3"/>
      <point x="319.6" y="-9.8" type="curve"/>
      <point x="425.6" y="-51.7"/>
      <point x="482.8" y="-69.1"/>
    </contour>
    <contour>
      <point x="322.9" y="6.8" type="curve" smooth="yes"/>
      <point x="186.3" y="6.8"/>
      <point x="77.8" y="158.4"/>
      <point x="77.8" y="348.9" type="curve" smooth="yes"/>
      <point x="77.8" y="540.3"/>
      <point x="192.3" y="693.2"/>
      <point x="335.7" y="693.2" type="curve" smooth="yes"/>
      <point x="475.5" y="693.2"/>
      <point x="587.1" y="545.7"/>
      <point x="587.1" y="360.8" type="curve" smooth="yes"/>
      <point x="587.1" y="170.3"/>
      <point x="465" y="6.8"/>
    </contour>
  </outline>
</glyph>
<glyph name="R" format="1">
  <advance width="564"/>
  <unicode hex="0052"/>
  <outline>
    <contour>
      <point x="499" y="9.3" type="curve" smooth="yes"/>
      <point x="439.2" y="103.1"/>
      <point x="357" y="207.2"/>
      <point x="269.1" y="300.5" type="curve"/>
      <point x="416.1" y="333.2"/>
      <point x="503.6" y="411.5"/>
      <point x="503.6" y="510.3" type="curve" smooth="yes"/>
      <point x="503.6" y="636"/>
      <point x="362.4" y="706.4"/>
      <point x="110.3" y="706.4" type="curve" smooth="yes"/>
      <point x="95.8" y="706.4"/>
      <point x="89.4" y="699.4"/>
      <point x="90.3" y="684.3" type="curve" smooth="yes"/>
      <point x="95.9005" y="588.033"/>
      <point x="98.7007" y="472.902"/>
      <point x="98.7007" y="353.55" type="curve" smooth="yes"/>
      <point x="98.7007" y="236.349"/>
      <point x="96.0005" y="115.077"/>
      <point x="90.6" y="3.6" type="curve" smooth="yes"/>
      <point x="90.4" y="-2"/>
      <point x="94.3" y="-6.1"/>
      <point x="99.9" y="-6.1" type="curve" smooth="yes"/>
      <point x="105.3" y="-6.1"/>
      <point x="109.1" y="-2.4"/>
      <point x="109.3" y="3" type="curve" smooth="yes"/>
      <point x="113.4" y="115"/>
      <point x="115.6" y="202.8"/>
      <point x="116.2" y="284.2" type="curve"/>
      <point x="162.8" y="284.6"/>
      <point x="207.2" y="288.6"/>
      <point x="248.5" y="296.3" type="curve"/>
      <point x="338.5" y="201.9"/>
      <point x="422.7" y="96"/>
      <point x="484.3" y="-0.6" type="curve"/>
      <point x="486.6" y="-4"/>
      <point x="489.7" y="-6"/>
      <point x="493" y="-6" type="curve" smooth="yes"/>
      <point x="500.4" y="-6"/>
      <point x="503.6" y="2.1"/>
    </contour>
    <contour>
      <point x="116.4" y="300.6" type="curve"/>
      <point x="117" y="418"/>
      <point x="114.5" y="531.5"/>
      <point x="107.8" y="689.2" type="curve"/>
      <point x="350" y="689.2"/>
      <point x="485.9" y="624.9"/>
      <point x="485.9" y="510.3" type="curve" smooth="yes"/>
      <point x="485.9" y="388.2"/>
      <point x="334.6" y="302.3"/>
    </contour>
    <contour>
      <point x="275" y="0" type="move" name="bottom"/>
    </contour>
    <contour>
      <point x="301" y="730" type="move" name="top"/>
    </contour>
  </outline>
</glyph>
<glyph name="S" format="1">
  <advance width="519"/>
  <unicode hex="0053"/>
  <outline>
    <contour>
      <point x="241" y="-10" type="curve" smooth="yes"/>
      <point x="365" y="-13"/>
      <point x="454" y="66"/>
      <point x="454" y="182" type="curve" smooth="yes"/>
      <point x="454" y="405"/>
      <point x="93" y="340"/>
      <point x="93" y="542" type="curve" smooth="yes"/>
      <point x="93" y="629"/>
      <point x="166" y="693"/>
      <point x="266" y="693" type="curve" smooth="yes"/>
      <point x="313" y="693"/>
      <point x="360" y="679"/>
      <point x="406" y="652" type="curve" smooth="yes"/>
      <point x="413" y="648"/>
      <point x="421" y="652"/>
      <point x="421" y="659" type="curve" smooth="yes"/>
      <point x="421" y="662"/>
      <point x="419" y="665"/>
      <point x="416" y="667" type="curve" smooth="yes"/>
      <point x="368" y="695"/>
      <point x="315" y="710"/>
      <point x="265" y="710" type="curve" smooth="yes"/>
      <point x="155" y="710"/>
      <point x="75" y="639"/>
      <point x="75" y="540" type="curve" smooth="yes"/>
      <point x="75" y="327"/>
      <point x="436" y="392"/>
      <point x="436" y="178" type="curve" smooth="yes"/>
      <point x="436" y="79"/>
      <point x="356" y="8"/>
      <point x="246" y="8" type="curve" smooth="yes"/>
      <point x="182" y="8"/>
      <point x="124" y="31"/>
      <point x="65" y="82" type="curve" smooth="yes"/>
      <point x="59" y="88"/>
      <point x="50" y="83"/>
      <point x="50" y="76" type="curve" smooth="yes"/>
      <point x="50" y="73"/>
      <point x="51" y="71"/>
      <point x="53" y="69" type="curve" smooth="yes"/>
      <point x="109" y="19"/>
      <point x="172" y="-8"/>
    </contour>
  </outline>
</glyph>
<glyph name="T" format="1">
  <advance width="555"/>
  <unicode hex="0054"/>
  <outline>
    <contour>
      <point x="288" y="3" type="curve" smooth="yes"/>
      <point x="294" y="130"/>
      <point x="297" y="258"/>
      <point x="297" y="379" type="curve" smooth="yes"/>
      <point x="297" y="484"/>
      <point x="295" y="583"/>
      <point x="290" y="672" type="curve"/>
      <point x="369" y="675"/>
      <point x="443" y="681"/>
      <point x="516" y="689" type="curve" smooth="yes"/>
      <point x="521" y="690"/>
      <point x="525" y="693"/>
      <point x="525" y="698" type="curve" smooth="yes"/>
      <point x="525" y="703"/>
      <point x="520" y="707"/>
      <point x="514" y="706" type="curve" smooth="yes"/>
      <point x="349" y="690"/>
      <point x="236" y="683"/>
      <point x="40" y="683" type="curve" smooth="yes"/>
      <point x="34" y="683"/>
      <point x="30" y="679"/>
      <point x="30" y="674" type="curve" smooth="yes"/>
      <point x="30" y="670"/>
      <point x="34" y="667"/>
      <point x="40" y="667" type="curve" smooth="yes"/>
      <point x="126" y="667"/>
      <point x="201" y="668"/>
      <point x="271" y="671" type="curve"/>
      <point x="276" y="594"/>
      <point x="278" y="508"/>
      <point x="278" y="413" type="curve" smooth="yes"/>
      <point x="278" y="292"/>
      <point x="275" y="156"/>
      <point x="270" y="5" type="curve" smooth="yes"/>
      <point x="270" y="-2"/>
      <point x="273" y="-6"/>
      <point x="279" y="-6" type="curve" smooth="yes"/>
      <point x="284" y="-6"/>
      <point x="288" y="-3"/>
    </contour>
  </outline>
</glyph>
<glyph name="U" format="1">
  <advance width="686"/>
  <unicode hex="0055"/>
  <outline>
    <contour>
      <point x="349.3" y="-9.8" type="curve" smooth="yes"/>
      <point x="506.3" y="-9.8"/>
      <point x="600.5" y="178.7"/>
      <point x="600.5" y="499.4" type="curve" smooth="yes"/>
      <point x="600.5" y="561.3"/>
      <point x="597" y="627.4"/>
      <point x="590" y="696.9" type="curve" smooth="yes"/>
      <point x="589.5" y="702.3"/>
      <point x="585.8" y="705.9"/>
      <point x="581" y="705.9" type="curve" smooth="yes"/>
      <point x="575.2" y="705.9"/>
      <point x="571.3" y="701"/>
      <point x="572" y="694.6" type="curve" smooth="yes"/>
      <point x="579.2" y="627.3"/>
      <point x="582.8" y="562.2"/>
      <point x="582.8" y="500.4" type="curve" smooth="yes"/>
      <point x="582.8" y="191.8"/>
      <point x="493.5" y="6.8"/>
      <point x="349.3" y="6.8" type="curve" smooth="yes"/>
      <point x="199.8" y="6.8"/>
      <point x="104.4" y="207.1"/>
      <point x="104.4" y="511" type="curve" smooth="yes"/>
      <point x="104.4" y="570.3"/>
      <point x="107.9" y="631.9"/>
      <point x="114.9" y="694.8" type="curve" smooth="yes"/>
      <point x="115.6" y="701.3"/>
      <point x="112.1" y="706"/>
      <point x="106.4" y="706" type="curve" smooth="yes"/>
      <point x="101.4" y="706"/>
      <point x="97.4" y="702.3"/>
      <point x="96.9" y="697.1" type="curve" smooth="yes"/>
      <point x="89.6" y="632.4"/>
      <point x="85.9" y="569.6"/>
      <point x="85.9" y="509.8" type="curve" smooth="yes"/>
      <point x="85.9" y="193.3"/>
      <point x="187.6" y="-9.8"/>
    </contour>
    <contour>
      <point x="355" y="0" type="move" name="bottom"/>
    </contour>
    <contour>
      <point x="341" y="730" type="move" name="top"/>
    </contour>
  </outline>
</glyph>
<glyph name="V" format="1">
  <advance width="612"/>
  <unicode hex="0056"/>
  <outline>
    <contour>
      <point x="282" y="2" type="curve" smooth="yes"/>
      <point x="389" y="204"/>
      <point x="487" y="449"/>
      <point x="556" y="695" type="curve" smooth="yes"/>
      <point x="558" y="701"/>
      <point x="554" y="706"/>
      <point x="548" y="706" type="curve" smooth="yes"/>
      <point x="543" y="706"/>
      <point x="539" y="703"/>
      <point x="538" y="698" type="curve" smooth="yes"/>
      <point x="472" y="465"/>
      <point x="388" y="250"/>
      <point x="275" y="24" type="curve"/>
      <point x="209" y="301"/>
      <point x="145" y="507"/>
      <point x="68" y="700" type="curve" smooth="yes"/>
      <point x="66" y="704"/>
      <point x="63" y="706"/>
      <point x="59" y="706" type="curve" smooth="yes"/>
      <point x="53" y="706"/>
      <point x="49" y="699"/>
      <point x="52" y="692" type="curve" smooth="yes"/>
      <point x="126" y="510"/>
      <point x="206" y="247"/>
      <point x="261" y="5" type="curve" smooth="yes"/>
      <point x="262" y="-2"/>
      <point x="266" y="-6"/>
      <point x="271" y="-6" type="curve" smooth="yes"/>
      <point x="276" y="-6"/>
      <point x="280" y="-3"/>
    </contour>
  </outline>
</glyph>
<glyph name="W" format="1">
  <advance width="923"/>
  <unicode hex="0057"/>
  <outline>
    <contour>
      <point x="684.5" y="5.1" type="curve" smooth="yes"/>
      <point x="728.4" y="231.8"/>
      <point x="790.1" y="481"/>
      <point x="856.5" y="693.3" type="curve" smooth="yes"/>
      <point x="858.8" y="700.3"/>
      <point x="855.4" y="706.1"/>
      <point x="849.1" y="706.1" type="curve" smooth="yes"/>
      <point x="844.8" y="706.1"/>
      <point x="841.1" y="703.2"/>
      <point x="839.6" y="698.7" type="curve" smooth="yes"/>
      <point x="783.4" y="527.4"/>
      <point x="715.9" y="259.9"/>
      <point x="671.2" y="31.6" type="curve"/>
      <point x="578.4" y="264.4"/>
      <point x="512.6" y="459.2"/>
      <point x="469.2" y="623.7" type="curve" smooth="yes"/>
      <point x="467.9" y="628.7"/>
      <point x="463.6" y="632.1"/>
      <point x="458.4" y="632.1" type="curve" smooth="yes"/>
      <point x="453.9" y="632.1"/>
      <point x="450.1" y="629.5"/>
      <point x="448.3" y="625.2" type="curve" smooth="yes"/>
      <point x="352.4" y="393.1"/>
      <point x="284.8" y="200.9"/>
      <point x="237.1" y="24.9" type="curve"/>
      <point x="177.1" y="218.8"/>
      <point x="106.9" y="528.8"/>
      <point x="84.3" y="698.3" type="curve" smooth="yes"/>
      <point x="83.7" y="702.9"/>
      <point x="80.1" y="706"/>
      <point x="75.3" y="706" type="curve" smooth="yes"/>
      <point x="69.1" y="706"/>
      <point x="64.8" y="701"/>
      <point x="65.7" y="694.6" type="curve" smooth="yes"/>
      <point x="92.5" y="506.5"/>
      <point x="148.7" y="261.1"/>
      <point x="223.5" y="4.9" type="curve" smooth="yes"/>
      <point x="225.6" y="-2.1"/>
      <point x="231" y="-6.7"/>
      <point x="237.2" y="-6.7" type="curve" smooth="yes"/>
      <point x="243.1" y="-6.7"/>
      <point x="248" y="-2.5"/>
      <point x="249.7" y="4" type="curve" smooth="yes"/>
      <point x="299.6" y="187.3"/>
      <point x="373.2" y="397.7"/>
      <point x="457.5" y="598.1" type="curve"/>
      <point x="492.1" y="462.7"/>
      <point x="574.5" y="224.1"/>
      <point x="662.3" y="3.6" type="curve" smooth="yes"/>
      <point x="664.9" y="-2.8"/>
      <point x="669.3" y="-6.7"/>
      <point x="674" y="-6.7" type="curve" smooth="yes"/>
      <point x="679.1" y="-6.7"/>
      <point x="683.2" y="-2.2"/>
    </contour>
    <contour>
      <point x="461" y="730" type="move" name="top"/>
    </contour>
  </outline>
</glyph>
<glyph name="X" format="1">
  <advance width="628"/>
  <unicode hex="0058"/>
  <outline>
    <contour>
      <point x="566" y="8" type="curve" smooth="yes"/>
      <point x="489" y="145"/>
      <point x="423" y="254"/>
      <point x="350" y="362" type="curve"/>
      <point x="431" y="476"/>
      <point x="505" y="588"/>
      <point x="566" y="692" type="curve" smooth="yes"/>
      <point x="570" y="698"/>
      <point x="566" y="706"/>
      <point x="558" y="706" type="curve" smooth="yes"/>
      <point x="555" y="706"/>
      <point x="552" y="704"/>
      <point x="550" y="701" type="curve" smooth="yes"/>
      <point x="487" y="594"/>
      <point x="416" y="486"/>
      <point x="339" y="377" type="curve"/>
      <point x="274" y="473"/>
      <point x="200" y="574"/>
      <point x="102" y="701" type="curve"/>
      <point x="100" y="704"/>
      <point x="96" y="706"/>
      <point x="93" y="706" type="curve" smooth="yes"/>
      <point x="85" y="706"/>
      <point x="82" y="698"/>
      <point x="87" y="691" type="curve" smooth="yes"/>
      <point x="190" y="557"/>
      <point x="264" y="456"/>
      <point x="328" y="362" type="curve"/>
      <point x="242" y="241"/>
      <point x="150" y="123"/>
      <point x="53" y="10" type="curve" smooth="yes"/>
      <point x="48" y="3"/>
      <point x="51" y="-6"/>
      <point x="59" y="-6" type="curve" smooth="yes"/>
      <point x="62" y="-6"/>
      <point x="64" y="-4"/>
      <point x="67" y="-2" type="curve" smooth="yes"/>
      <point x="155" y="102"/>
      <point x="249" y="222"/>
      <point x="339" y="346" type="curve"/>
      <point x="409" y="242"/>
      <point x="473" y="137"/>
      <point x="550" y="0" type="curve" smooth="yes"/>
      <point x="552" y="-4"/>
      <point x="556" y="-6"/>
      <point x="560" y="-6" type="curve" smooth="yes"/>
      <point x="567" y="-6"/>
      <point x="570" y="1"/>
    </contour>
  </outline>
</glyph>
<glyph name="Y" format="1">
  <advance width="587"/>
  <unicode hex="0059"/>
  <outline>
    <contour>
      <point x="325.5" y="1.6" type="curve" smooth="yes"/>
      <point x="328.268" y="35.4169"/>
      <point x="329.668" y="69.5395"/>
      <point x="329.668" y="106.976" type="curve" smooth="yes"/>
      <point x="329.668" y="162.863"/>
      <point x="326.548" y="226.135"/>
      <point x="320.2" y="306.8" type="curve"/>
      <point x="394.2" y="421.1"/>
      <point x="465.6" y="548.9"/>
      <point x="534.9" y="692.2" type="curve" smooth="yes"/>
      <point x="538.2" y="699"/>
      <point x="534.5" y="705.9"/>
      <point x="527.6" y="705.9" type="curve" smooth="yes"/>
      <point x="524.1" y="705.9"/>
      <point x="521.1" y="703.9"/>
      <point x="519.4" y="700.3" type="curve" smooth="yes"/>
      <point x="449.4" y="557.5"/>
      <point x="375.9" y="426.1"/>
      <point x="311.9" y="329.4" type="curve"/>
      <point x="248.6" y="469.2"/>
      <point x="174.3" y="586.4"/>
      <point x="77.3" y="701.6" type="curve" smooth="yes"/>
      <point x="74.9" y="704.4"/>
      <point x="72" y="705.9"/>
      <point x="68.9" y="705.9" type="curve" smooth="yes"/>
      <point x="60.8" y="705.9"/>
      <point x="57.6" y="697.4"/>
      <point x="63.3" y="690.8" type="curve" smooth="yes"/>
      <point x="158.7" y="579.9"/>
      <point x="256.4" y="422.7"/>
      <point x="301.8" y="307" type="curve"/>
      <point x="308.063" y="223.136"/>
      <point x="311.088" y="159.089"/>
      <point x="311.088" y="104.354" type="curve" smooth="yes"/>
      <point x="311.088" y="67.325"/>
      <point x="309.704" y="34.5577"/>
      <point x="307" y="2.8" type="curve" smooth="yes"/>
      <point x="306.5" y="-2.4"/>
      <point x="310.6" y="-6.3"/>
      <point x="316.4" y="-6.3" type="curve" smooth="yes"/>
      <point x="321.5" y="-6.3"/>
      <point x="325.1" y="-3.2"/>
    </contour>
    <contour>
      <point x="314" y="730" type="move" name="top"/>
    </contour>
  </outline>
</glyph>
<glyph name="Z" format="1">
  <advance width="576"/>
  <unicode hex="005A"/>
  <outline>
    <contour>
      <point x="516.5" y="-4.7" type="curve" smooth="yes"/>
      <point x="521.8" y="-5.1"/>
      <point x="525.9" y="-1.5"/>
      <point x="525.9" y="3.6" type="curve" smooth="yes"/>
      <point x="525.9" y="8"/>
      <point x="522.9" y="11.2"/>
      <point x="518.4" y="11.6" type="curve" smooth="yes"/>
      <point x="448.097" y="17.8251"/>
      <point x="369.966" y="20.919"/>
      <point x="284.696" y="20.919" type="curve" smooth="yes"/>
      <point x="220.66" y="20.919"/>
      <point x="152.597" y="19.174"/>
      <point x="80.8" y="15.7" type="curve"/>
      <point x="243.9" y="240.7"/>
      <point x="357.7" y="419.7"/>
      <point x="500.8" y="677" type="curve" smooth="yes"/>
      <point x="507.5" y="689"/>
      <point x="499.6" y="700.7"/>
      <point x="485.2" y="700" type="curve" smooth="yes"/>
      <point x="422.01" y="696.775"/>
      <point x="357.424" y="695.15"/>
      <point x="289.931" y="695.15" type="curve" smooth="yes"/>
      <point x="223.485" y="695.15"/>
      <point x="154.221" y="696.725"/>
      <point x="80.7" y="699.9" type="curve" smooth="yes"/>
      <point x="74.2" y="700.2"/>
      <point x="69.7" y="696.9"/>
      <point x="69.7" y="691.9" type="curve" smooth="yes"/>
      <point x="69.7" y="686.9"/>
      <point x="74.3" y="682.9"/>
      <point x="80.5" y="682.7" type="curve" smooth="yes"/>
      <point x="157.349" y="679.76"/>
      <point x="232.096" y="678.283"/>
      <point x="301.888" y="678.283" type="curve" smooth="yes"/>
      <point x="367.414" y="678.283"/>
      <point x="428.572" y="679.585"/>
      <point x="483" y="682.2" type="curve"/>
      <point x="354.5" y="449.1"/>
      <point x="223.5" y="243.7"/>
      <point x="64.9" y="25.5" type="curve" smooth="yes"/>
      <point x="61.7202" y="21.1278"/>
      <point x="60.2418" y="16.8305"/>
      <point x="60.2418" y="12.9966" type="curve" smooth="yes"/>
      <point x="60.2418" y="4.29098"/>
      <point x="67.8646" y="-2.02483"/>
      <point x="80.5" y="-1.4" type="curve" smooth="yes"/>
      <point x="155.481" y="2.08034"/>
      <point x="223.631" y="3.83333"/>
      <point x="287.6" y="3.83333" type="curve" smooth="yes"/>
      <point x="368.833" y="3.83333"/>
      <point x="443.324" y="1.0064"/>
    </contour>
    <contour>
      <point x="291" y="730" type="move" name="top"/>
    </contour>
  </outline>
</glyph>
<glyph name="bracketleft" format="1">
  <advance width="284"/>
  <unicode hex="005B"/>
  <outline>
    <contour>
      <point x="233.7" y="-69.6" type="curve" smooth="yes"/>
      <point x="239.3" y="-70.1"/>
      <point x="243.6" y="-66.5"/>
      <point x="243.6" y="-61.2" type="curve" smooth="yes"/>
      <point x="243.6" y="-56.5"/>
      <point x="240.1" y="-53.1"/>
      <point x="235" y="-52.7" type="curve" smooth="yes"/>
      <point x="188.9" y="-49.1"/>
      <point x="151.8" y="-49"/>
      <point x="109.6" y="-52.4" type="curve"/>
      <point x="117.111" y="75.5778"/>
      <point x="120.867" y="202.373"/>
      <point x="120.867" y="329.493" type="curve" smooth="yes"/>
      <point x="120.867" y="466.392"/>
      <point x="116.511" y="603.667"/>
      <point x="107.8" y="743.2" type="curve"/>
      <point x="156.7" y="744.2"/>
      <point x="184.4" y="746.3"/>
      <point x="233.9" y="753" type="curve" smooth="yes"/>
      <point x="238.8" y="753.7"/>
      <point x="242.2" y="757.3"/>
      <point x="242.2" y="762" type="curve" smooth="yes"/>
      <point x="242.2" y="767.4"/>
      <point x="237.8" y="770.7"/>
      <point x="231.9" y="769.9" type="curve" smooth="yes"/>
      <point x="185.3" y="763.5"/>
      <point x="154.4" y="761"/>
      <point x="106.3" y="760" type="curve" smooth="yes"/>
      <point x="96.3" y="759.8"/>
      <point x="90.1" y="753.2"/>
      <point x="90.7" y="743.1" type="curve" smooth="yes"/>
      <point x="98.872" y="599.78"/>
      <point x="102.951" y="458.466"/>
      <point x="102.951" y="320.736" type="curve" smooth="yes"/>
      <point x="102.951" y="192.174"/>
      <point x="99.397" y="66.7344"/>
      <point x="92.3" y="-54.3" type="curve" smooth="yes"/>
      <point x="91.7" y="-64.7"/>
      <point x="97.2" y="-69.9"/>
      <point x="108" y="-68.9" type="curve" smooth="yes"/>
      <point x="146.8" y="-65.7"/>
      <point x="188.2" y="-65.9"/>
    </contour>
  </outline>
</glyph>
<glyph name="backslash" format="1">
  <advance width="486"/>
  <unicode hex="005C"/>
  <outline>
    <contour>
      <point x="433.3" y="-21" type="curve" smooth="yes"/>
      <point x="298.6" y="214"/>
      <point x="205.4" y="407.2"/>
      <point x="69.5" y="733.1" type="curve" smooth="yes"/>
      <point x="67.6" y="737.6"/>
      <point x="64" y="740.3"/>
      <point x="59.8" y="740.3" type="curve" smooth="yes"/>
      <point x="52.7" y="740.3"/>
      <point x="48.9" y="733.3"/>
      <point x="52.1" y="725.8" type="curve" smooth="yes"/>
      <point x="196.2" y="383.9"/>
      <point x="270" y="231.2"/>
      <point x="418" y="-31.1" type="curve" smooth="yes"/>
      <point x="419.8" y="-34.4"/>
      <point x="422.8" y="-36.3"/>
      <point x="426.1" y="-36.3" type="curve" smooth="yes"/>
      <point x="433.8" y="-36.3"/>
      <point x="437.5" y="-28.3"/>
    </contour>
  </outline>
</glyph>
<glyph name="bracketright" format="1">
  <advance width="284"/>
  <unicode hex="005D"/>
  <outline>
    <contour>
      <point x="52.5" y="-69.8" type="curve" smooth="yes"/>
      <point x="99.1" y="-63.4"/>
      <point x="130" y="-61"/>
      <point x="178" y="-60" type="curve" smooth="yes"/>
      <point x="188.1" y="-59.7"/>
      <point x="194.2" y="-53.1"/>
      <point x="193.7" y="-43" type="curve" smooth="yes"/>
      <point x="185.516" y="100.53"/>
      <point x="181.41" y="242.048"/>
      <point x="181.41" y="379.969" type="curve" smooth="yes"/>
      <point x="181.41" y="508.32"/>
      <point x="184.966" y="633.556"/>
      <point x="192.1" y="754.4" type="curve" smooth="yes"/>
      <point x="192.7" y="764.8"/>
      <point x="187.2" y="769.9"/>
      <point x="176.3" y="769" type="curve" smooth="yes"/>
      <point x="137.6" y="765.8"/>
      <point x="96.2" y="766"/>
      <point x="50.6" y="769.7" type="curve" smooth="yes"/>
      <point x="45" y="770.2"/>
      <point x="40.8" y="766.5"/>
      <point x="40.8" y="761.3" type="curve" smooth="yes"/>
      <point x="40.8" y="756.6"/>
      <point x="44.3" y="753.1"/>
      <point x="49.3" y="752.7" type="curve" smooth="yes"/>
      <point x="95.5" y="749.2"/>
      <point x="132.6" y="749.1"/>
      <point x="174.8" y="752.5" type="curve"/>
      <point x="167.228" y="624.302"/>
      <point x="163.447" y="497.291"/>
      <point x="163.447" y="369.952" type="curve" smooth="yes"/>
      <point x="163.447" y="233.27"/>
      <point x="167.803" y="96.2107"/>
      <point x="176.5" y="-43.1" type="curve"/>
      <point x="127.6" y="-44.1"/>
      <point x="100" y="-46.2"/>
      <point x="50.4" y="-52.9" type="curve" smooth="yes"/>
      <point x="45.5" y="-53.6"/>
      <point x="42.2" y="-57.2"/>
      <point x="42.2" y="-61.9" type="curve" smooth="yes"/>
      <point x="42.2" y="-67.3"/>
      <point x="46.5" y="-70.7"/>
    </contour>
  </outline>
</glyph>
<glyph name="asciicircum" format="2">
  <advance width="422"/>
  <unicode hex="005E"/>
  <outline>
    <contour>
      <point x="349.35" y="492.8" type="curve" smooth="yes"/>
      <point x="221.6" y="703.65" type="line" smooth="yes"/>
      <point x="219.277" y="707.484"/>
      <point x="215.115" y="709.8"/>
      <point x="210.512" y="709.8" type="curve" smooth="yes"/>
      <point x="205.91" y="709.8"/>
      <point x="201.826" y="707.488"/>
      <point x="199.65" y="703.65" type="curve" smooth="yes"/>
      <point x="155.203" y="625.244"/>
      <point x="127.539" y="579.271"/>
      <point x="72.85" y="492.65" type="curve" smooth="yes"/>
      <point x="68.5679" y="485.868"/>
      <point x="71.9265" y="478.572"/>
      <point x="79.3311" y="478.572" type="curve" smooth="yes"/>
      <point x="82.3345" y="478.572"/>
      <point x="85.0153" y="480.063"/>
      <point x="86.7346" y="482.688" type="curve" smooth="yes"/>
      <point x="140.508" y="564.793"/>
      <point x="168.55" y="611.181"/>
      <point x="211.322" y="688.79" type="curve"/>
      <point x="334.75" y="484.15" type="line" smooth="yes"/>
      <point x="336.866" y="480.641"/>
      <point x="340.015" y="478.624"/>
      <point x="343.406" y="478.624" type="curve" smooth="yes"/>
      <point x="350.447" y="478.624"/>
      <point x="353.513" y="485.929"/>
    </contour>
  </outline>
</glyph>
<glyph name="underscore" format="1">
  <advance width="552"/>
  <unicode hex="005F"/>
  <outline>
    <contour>
      <point x="471" y="0" type="curve" smooth="yes"/>
      <point x="477.208" y="-0.2041"/>
      <point x="481.567" y="3.31372"/>
      <point x="481.567" y="8.5277" type="curve" smooth="yes"/>
      <point x="481.567" y="13.811"/>
      <point x="477.118" y="17.7988"/>
      <point x="471" y="18" type="curve" smooth="yes"/>
      <point x="318.9" y="23"/>
      <point x="233.1" y="23"/>
      <point x="81" y="18" type="curve" smooth="yes"/>
      <point x="74.8436" y="17.7976"/>
      <point x="70.4127" y="13.8629"/>
      <point x="70.4127" y="8.59821" type="curve" smooth="yes"/>
      <point x="70.4127" y="3.36339"/>
      <point x="74.8049" y="-0.203692"/>
      <point x="81" y="0" type="curve" smooth="yes"/>
      <point x="233.1" y="5"/>
      <point x="318.9" y="5"/>
    </contour>
  </outline>
</glyph>
<glyph name="grave" format="1">
  <advance width="274"/>
  <unicode hex="0060"/>
  <outline>
    <contour>
      <point x="201.1" y="762.4" type="curve" smooth="yes"/>
      <point x="164.4" y="802.6"/>
      <point x="125.4" y="855"/>
      <point x="88.1" y="914.2" type="curve" smooth="yes"/>
      <point x="86" y="917.6"/>
      <point x="82.9" y="919.5"/>
      <point x="79.5" y="919.5" type="curve" smooth="yes"/>
      <point x="72" y="919.5"/>
      <point x="68.2" y="911.3"/>
      <point x="72.7" y="904.4" type="curve" smooth="yes"/>
      <point x="85.1847" y="885.012"/>
      <point x="179.826" y="748"/>
      <point x="195.2" y="748" type="curve" smooth="yes"/>
      <point x="202.5" y="748"/>
      <point x="206.1" y="756.8"/>
    </contour>
    <contour>
      <point x="195" y="730" type="move" name="_top"/>
    </contour>
  </outline>
</glyph>
<glyph name="a" format="1">
  <advance width="559"/>
  <unicode hex="0061"/>
  <outline>
    <contour>
      <point x="478" y="5.7" type="curve" smooth="yes"/>
      <point x="475.561" y="70.0003"/>
      <point x="474.335" y="137.895"/>
      <point x="474.335" y="213.11" type="curve" smooth="yes"/>
      <point x="474.335" y="292.068"/>
      <point x="475.686" y="379.094"/>
      <point x="478.4" y="478.5" type="curve" smooth="yes"/>
      <point x="478.7" y="489.3"/>
      <point x="475.7" y="493.8"/>
      <point x="466.4" y="495.9" type="curve" smooth="yes"/>
      <point x="426.2" y="505.3"/>
      <point x="387.3" y="510.1"/>
      <point x="350.5" y="510.1" type="curve" smooth="yes"/>
      <point x="176.8" y="510.1"/>
      <point x="66" y="406.2"/>
      <point x="66" y="243.6" type="curve" smooth="yes"/>
      <point x="66" y="100.4"/>
      <point x="161.1" y="-10"/>
      <point x="284.6" y="-10" type="curve" smooth="yes"/>
      <point x="352" y="-10"/>
      <point x="413.5" y="25"/>
      <point x="456.8" y="87.1" type="curve"/>
      <point x="457.3" y="59.4"/>
      <point x="458" y="32.3"/>
      <point x="458.8" y="5.7" type="curve" smooth="yes"/>
      <point x="459" y="-1.2"/>
      <point x="462.6" y="-5.6"/>
      <point x="467.9" y="-5.6" type="curve" smooth="yes"/>
      <point x="473.7" y="-5.6"/>
      <point x="478.3" y="-0.5"/>
    </contour>
    <contour>
      <point x="456.4" y="117.4" type="curve"/>
      <point x="412.8" y="46.7"/>
      <point x="350" y="6.7"/>
      <point x="282.1" y="6.7" type="curve" smooth="yes"/>
      <point x="170" y="6.7"/>
      <point x="84.8" y="108.6"/>
      <point x="84.8" y="242.6" type="curve" smooth="yes"/>
      <point x="84.8" y="393"/>
      <point x="190.4" y="492.9"/>
      <point x="349.5" y="492.9" type="curve" smooth="yes"/>
      <point x="384.2" y="492.9"/>
      <point x="421" y="487.3"/>
      <point x="459.6" y="476.3" type="curve"/>
      <point x="456" y="343.7"/>
      <point x="455" y="225.9"/>
    </contour>
    <contour>
      <point x="316" y="550" type="move" name="top"/>
    </contour>
  </outline>
</glyph>
<glyph name="b" format="1">
  <advance width="570"/>
  <unicode hex="0062"/>
  <outline>
    <contour>
      <point x="292.5" y="-9.6" type="curve" smooth="yes"/>
      <point x="417.9" y="-9.6"/>
      <point x="504.3" y="95.8"/>
      <point x="504.3" y="248.9" type="curve" smooth="yes"/>
      <point x="504.3" y="402.5"/>
      <point x="417.1" y="510"/>
      <point x="292.7" y="510" type="curve" smooth="yes"/>
      <point x="206.7" y="510"/>
      <point x="140.2" y="458.4"/>
      <point x="109.8" y="368.2" type="curve"/>
      <point x="108.8" y="477.9"/>
      <point x="105.1" y="586.7"/>
      <point x="98.8" y="696.8" type="curve" smooth="yes"/>
      <point x="98.4" y="702.3"/>
      <point x="94.7" y="706.2"/>
      <point x="89.7" y="706.2" type="curve" smooth="yes"/>
      <point x="84.1" y="706.2"/>
      <point x="80.2" y="701.5"/>
      <point x="80.5" y="695.1" type="curve" smooth="yes"/>
      <point x="87.7609" y="540.257"/>
      <point x="91.3468" y="406.481"/>
      <point x="91.3468" y="282.201" type="curve" smooth="yes"/>
      <point x="91.3468" y="185.681"/>
      <point x="89.1839" y="94.8875"/>
      <point x="84.9" y="4.4" type="curve" smooth="yes"/>
      <point x="84.6" y="-1.5"/>
      <point x="88.8" y="-6"/>
      <point x="94.7" y="-6" type="curve" smooth="yes"/>
      <point x="99.9" y="-6"/>
      <point x="103.6" y="-2.5"/>
      <point x="103.9" y="2.7" type="curve" smooth="yes"/>
      <point x="105.7" y="46"/>
      <point x="107.1" y="90.2"/>
      <point x="108.1" y="135.6" type="curve"/>
      <point x="137.5" y="42.9"/>
      <point x="204.2" y="-9.7"/>
    </contour>
    <contour>
      <point x="288.8" y="7" type="curve" smooth="yes"/>
      <point x="179.9" y="7"/>
      <point x="109.9" y="100.5"/>
      <point x="109.9" y="246.1" type="curve" smooth="yes"/>
      <point x="109.9" y="393.9"/>
      <point x="182.7" y="492.8"/>
      <point x="291.2" y="492.8" type="curve" smooth="yes"/>
      <point x="402.5" y="492.8"/>
      <point x="485" y="389"/>
      <point x="485" y="249.1" type="curve" smooth="yes"/>
      <point x="485" y="108.8"/>
      <point x="402.5" y="7"/>
    </contour>
  </outline>
</glyph>
<glyph name="c" format="1">
  <advance width="533"/>
  <unicode hex="0063"/>
  <outline>
    <contour>
      <point x="484.1" y="68" type="curve" smooth="yes"/>
      <point x="486.5" y="70.8"/>
      <point x="487.8" y="73.9"/>
      <point x="487.8" y="76.8" type="curve" smooth="yes"/>
      <point x="487.8" y="85.5"/>
      <point x="477.4" y="88.6"/>
      <point x="471.8" y="81.5" type="curve" smooth="yes"/>
      <point x="434.2" y="34"/>
      <point x="375.4" y="7.3"/>
      <point x="308.3" y="7.3" type="curve" smooth="yes"/>
      <point x="180.1" y="7.3"/>
      <point x="84.6" y="111.8"/>
      <point x="84.6" y="252.2" type="curve" smooth="yes"/>
      <point x="84.6" y="391.1"/>
      <point x="177.6" y="492.7"/>
      <point x="304.5" y="492.7" type="curve" smooth="yes"/>
      <point x="367.2" y="492.7"/>
      <point x="422.7" y="471.9"/>
      <point x="460.6" y="434.2" type="curve" smooth="yes"/>
      <point x="467.1" y="427.7"/>
      <point x="476.8" y="430.4"/>
      <point x="476.8" y="438.8" type="curve" smooth="yes"/>
      <point x="476.8" y="441.7"/>
      <point x="475.3" y="444.6"/>
      <point x="472.5" y="446.9" type="curve"/>
      <point x="424.9" y="488.5"/>
      <point x="367.8" y="510.1"/>
      <point x="305.8" y="510.1" type="curve" smooth="yes"/>
      <point x="167.2" y="510.1"/>
      <point x="65.6" y="400.5"/>
      <point x="65.6" y="251.1" type="curve" smooth="yes"/>
      <point x="65.6" y="101.1"/>
      <point x="168.8" y="-10.1"/>
      <point x="308" y="-10.1" type="curve" smooth="yes"/>
      <point x="377.7" y="-10.1"/>
      <point x="440.9" y="17.9"/>
    </contour>
    <contour>
      <point x="309" y="0" type="move" name="bottom"/>
    </contour>
    <contour>
      <point x="277" y="550" type="move" name="top"/>
    </contour>
  </outline>
</glyph>
<glyph name="d" format="1">
  <advance width="567"/>
  <unicode hex="0064"/>
  <outline>
    <contour>
      <point x="282" y="-10" type="curve" smooth="yes"/>
      <point x="371" y="-10"/>
      <point x="436" y="44"/>
      <point x="463" y="141" type="curve"/>
      <point x="465" y="100"/>
      <point x="466" y="54"/>
      <point x="468" y="3" type="curve" smooth="yes"/>
      <point x="469" y="-3"/>
      <point x="473" y="-7"/>
      <point x="478" y="-7" type="curve" smooth="yes"/>
      <point x="484" y="-7"/>
      <point x="487" y="-3"/>
      <point x="487" y="4" type="curve" smooth="yes"/>
      <point x="475" y="274"/>
      <point x="475" y="426"/>
      <point x="487" y="696" type="curve" smooth="yes"/>
      <point x="487" y="702"/>
      <point x="484" y="706"/>
      <point x="478" y="706" type="curve" smooth="yes"/>
      <point x="473" y="706"/>
      <point x="469" y="702"/>
      <point x="468" y="696" type="curve" smooth="yes"/>
      <point x="463" y="566"/>
      <point x="460" y="469"/>
      <point x="460" y="372" type="curve"/>
      <point x="429" y="460"/>
      <point x="362" y="510"/>
      <point x="278" y="510" type="curve" smooth="yes"/>
      <point x="154" y="510"/>
      <point x="66" y="404"/>
      <point x="66" y="253" type="curve" smooth="yes"/>
      <point x="66" y="100"/>
      <point x="155" y="-10"/>
    </contour>
    <contour>
      <point x="282" y="7" type="curve" smooth="yes"/>
      <point x="167" y="7"/>
      <point x="85" y="109"/>
      <point x="85" y="252" type="curve" smooth="yes"/>
      <point x="85" y="390"/>
      <point x="168" y="493"/>
      <point x="279" y="493" type="curve" smooth="yes"/>
      <point x="387" y="493"/>
      <point x="460" y="395"/>
      <point x="460" y="252" type="curve" smooth="yes"/>
      <point x="460" y="102"/>
      <point x="391" y="7"/>
    </contour>
  </outline>
</glyph>
<glyph name="e" format="1">
  <advance width="573"/>
  <unicode hex="0065"/>
  <outline>
    <contour>
      <point x="302.9" y="-10.1" type="curve" smooth="yes"/>
      <point x="380.2" y="-10.1"/>
      <point x="449.7" y="25.5"/>
      <point x="494.9" y="88.5" type="curve" smooth="yes"/>
      <point x="500.7" y="96.7"/>
      <point x="497.7" y="105.1"/>
      <point x="488.9" y="105.1" type="curve" smooth="yes"/>
      <point x="485.1" y="105.1"/>
      <point x="481.6" y="103.2"/>
      <point x="479.4" y="99.9" type="curve" smooth="yes"/>
      <point x="439.6" y="41.2"/>
      <point x="374.3" y="7.3"/>
      <point x="301" y="7.3" type="curve" smooth="yes"/>
      <point x="177.1" y="7.3"/>
      <point x="87" y="106"/>
      <point x="83.3" y="245.8" type="curve"/>
      <point x="492.9" y="245.8" type="line" smooth="yes"/>
      <point x="501.7" y="245.8"/>
      <point x="507.8" y="251.7"/>
      <point x="507.8" y="260.2" type="curve" smooth="yes"/>
      <point x="507.8" y="405.2"/>
      <point x="415.9" y="511.1"/>
      <point x="286.5" y="511.1" type="curve" smooth="yes"/>
      <point x="157.9" y="511.1"/>
      <point x="65.2" y="405.5"/>
      <point x="65.2" y="256.7" type="curve" smooth="yes"/>
      <point x="65.2" y="101.7"/>
      <point x="165.1" y="-10.1"/>
    </contour>
    <contour>
      <point x="489.6" y="262.7" type="curve"/>
      <point x="83.3" y="262.7" type="line"/>
      <point x="86.4" y="401"/>
      <point x="169.6" y="493.8"/>
      <point x="288.1" y="493.8" type="curve" smooth="yes"/>
      <point x="406.2" y="493.8"/>
      <point x="486.5" y="400.5"/>
    </contour>
    <contour>
      <point x="301" y="0" type="move" name="bottom"/>
    </contour>
    <contour>
      <point x="288" y="550" type="move" name="top"/>
    </contour>
  </outline>
</glyph>
<glyph name="f" format="2">
  <advance width="412"/>
  <unicode hex="0066"/>
  <outline>
    <contour>
      <point x="155.386" y="5.60855" type="curve" smooth="yes"/>
      <point x="162.894" y="178.186"/>
      <point x="164.941" y="326.801"/>
      <point x="158.964" y="463.398" type="curve"/>
      <point x="248.391" y="469.865"/>
      <point x="321.727" y="476.502"/>
      <point x="366.368" y="482.168" type="curve" smooth="yes"/>
      <point x="371.183" y="482.779"/>
      <point x="374.28" y="485.96"/>
      <point x="374.28" y="490.295" type="curve" smooth="yes"/>
      <point x="374.28" y="496.065"/>
      <point x="369.197" y="500.027"/>
      <point x="363.06" y="499.039" type="curve" smooth="yes"/>
      <point x="328.168" y="493.426"/>
      <point x="262.036" y="487.275"/>
      <point x="157.866" y="479.953" type="curve"/>
      <point x="157.461" y="487.635"/>
      <point x="157.248" y="495.133"/>
      <point x="157.226" y="502.444" type="curve" smooth="yes"/>
      <point x="156.859" y="626.155"/>
      <point x="211.323" y="692.969"/>
      <point x="312.534" y="692.969" type="curve" smooth="yes"/>
      <point x="329.251" y="692.969"/>
      <point x="347.817" y="691.373"/>
      <point x="365.622" y="688.406" type="curve" smooth="yes"/>
      <point x="371.489" y="687.428"/>
      <point x="376.128" y="691.019"/>
      <point x="376.128" y="696.539" type="curve" smooth="yes"/>
      <point x="376.128" y="700.927"/>
      <point x="373.016" y="704.278"/>
      <point x="368.304" y="704.961" type="curve" smooth="yes"/>
      <point x="343.72" y="708.527"/>
      <point x="329.182" y="709.833"/>
      <point x="314.07" y="709.833" type="curve" smooth="yes"/>
      <point x="202.143" y="709.833"/>
      <point x="135.509" y="632.702"/>
      <point x="137.452" y="505.393" type="curve" smooth="yes"/>
      <point x="137.581" y="496.902"/>
      <point x="138.016" y="488.224"/>
      <point x="138.755" y="479.371" type="curve"/>
      <point x="112.547" y="476.275"/>
      <point x="62.0742" y="472.536"/>
      <point x="46.4916" y="472.536" type="curve" smooth="yes"/>
      <point x="40.1106" y="472.536"/>
      <point x="35.9862" y="469.437"/>
      <point x="35.9862" y="464.643" type="curve" smooth="yes"/>
      <point x="35.9862" y="459.816"/>
      <point x="40.0793" y="455.878"/>
      <point x="45.0974" y="455.878" type="curve" smooth="yes"/>
      <point x="67.9611" y="455.878"/>
      <point x="119.118" y="459.44"/>
      <point x="139.697" y="462.466" type="curve"/>
      <point x="146.76" y="324.607"/>
      <point x="145.329" y="175.546"/>
      <point x="135.287" y="3.15069" type="curve" smooth="yes"/>
      <point x="135.004" y="-1.70442"/>
      <point x="140.082" y="-6.67229"/>
      <point x="145.328" y="-6.67229" type="curve" smooth="yes"/>
      <point x="151.027" y="-6.67229"/>
      <point x="155.066" y="-1.74057"/>
    </contour>
  </outline>
</glyph>
<glyph name="g" format="1">
  <advance width="562"/>
  <unicode hex="0067"/>
  <outline>
    <contour>
      <point x="265" y="-210" type="curve" smooth="yes"/>
      <point x="408" y="-210"/>
      <point x="495" y="-128"/>
      <point x="485" y="-1" type="curve" smooth="yes"/>
      <point x="480" y="62"/>
      <point x="478" y="131"/>
      <point x="478" y="208" type="curve" smooth="yes"/>
      <point x="478" y="293"/>
      <point x="481" y="389"/>
      <point x="486" y="498" type="curve" smooth="yes"/>
      <point x="487" y="504"/>
      <point x="483" y="508"/>
      <point x="478" y="508" type="curve" smooth="yes"/>
      <point x="472" y="508"/>
      <point x="469" y="504"/>
      <point x="468" y="499" type="curve" smooth="yes"/>
      <point x="466" y="454"/>
      <point x="464" y="408"/>
      <point x="462" y="361" type="curve"/>
      <point x="434" y="456"/>
      <point x="369" y="510"/>
      <point x="282" y="510" type="curve" smooth="yes"/>
      <point x="155" y="510"/>
      <point x="66" y="403"/>
      <point x="66" y="252" type="curve" smooth="yes"/>
      <point x="66" y="104"/>
      <point x="154" y="0"/>
      <point x="278" y="0" type="curve" smooth="yes"/>
      <point x="364" y="0"/>
      <point x="432" y="52"/>
      <point x="461" y="141" type="curve"/>
      <point x="462" y="90"/>
      <point x="464" y="42"/>
      <point x="467" y="-2" type="curve" smooth="yes"/>
      <point x="476" y="-119"/>
      <point x="397" y="-193"/>
      <point x="265" y="-193" type="curve" smooth="yes"/>
      <point x="213" y="-193"/>
      <point x="164" y="-175"/>
      <point x="113" y="-138" type="curve" smooth="yes"/>
      <point x="106" y="-133"/>
      <point x="98" y="-137"/>
      <point x="98" y="-145" type="curve" smooth="yes"/>
      <point x="98" y="-148"/>
      <point x="99" y="-150"/>
      <point x="102" y="-152" type="curve" smooth="yes"/>
      <point x="147" y="-190"/>
      <point x="204" y="-210"/>
    </contour>
    <contour>
      <point x="279" y="17" type="curve" smooth="yes"/>
      <point x="168" y="17"/>
      <point x="85" y="118"/>
      <point x="85" y="252" type="curve" smooth="yes"/>
      <point x="85" y="393"/>
      <point x="167" y="493"/>
      <point x="282" y="493" type="curve" smooth="yes"/>
      <point x="391" y="493"/>
      <point x="460" y="400"/>
      <point x="460" y="253" type="curve" smooth="yes"/>
      <point x="460" y="113"/>
      <point x="387" y="17"/>
    </contour>
    <contour>
      <point x="287" y="550" type="move" name="top"/>
    </contour>
  </outline>
</glyph>
<glyph name="h" format="1">
  <advance width="550"/>
  <unicode hex="0068"/>
  <outline>
    <contour>
      <point x="104" y="6" type="curve" smooth="yes"/>
      <point x="109" y="106"/>
      <point x="112" y="207"/>
      <point x="112" y="307" type="curve"/>
      <point x="145" y="432"/>
      <point x="205" y="493"/>
      <point x="296" y="493" type="curve" smooth="yes"/>
      <point x="440" y="493"/>
      <point x="490" y="330"/>
      <point x="445" y="9" type="curve" smooth="yes"/>
      <point x="444" y="2"/>
      <point x="449" y="-3"/>
      <point x="455" y="-3" type="curve" smooth="yes"/>
      <point x="460" y="-3"/>
      <point x="463" y="0"/>
      <point x="464" y="6" type="curve" smooth="yes"/>
      <point x="509" y="348"/>
      <point x="455" y="510"/>
      <point x="296" y="510" type="curve" smooth="yes"/>
      <point x="208" y="510"/>
      <point x="149" y="462"/>
      <point x="112" y="359" type="curve"/>
      <point x="111" y="478"/>
      <point x="106" y="591"/>
      <point x="98" y="694" type="curve" smooth="yes"/>
      <point x="97" y="700"/>
      <point x="94" y="704"/>
      <point x="89" y="704" type="curve" smooth="yes"/>
      <point x="84" y="704"/>
      <point x="80" y="699"/>
      <point x="80" y="692" type="curve" smooth="yes"/>
      <point x="96" y="455"/>
      <point x="98" y="225"/>
      <point x="86" y="6" type="curve" smooth="yes"/>
      <point x="86" y="0"/>
      <point x="90" y="-5"/>
      <point x="95" y="-5" type="curve" smooth="yes"/>
      <point x="100" y="-5"/>
      <point x="104" y="-1"/>
    </contour>
  </outline>
</glyph>
<glyph name="i" format="1">
  <advance width="203"/>
  <unicode hex="0069"/>
  <outline>
    <contour>
      <point x="112" y="658.4" type="curve" smooth="yes"/>
      <point x="128.5" y="658.4"/>
      <point x="138" y="667.4"/>
      <point x="138" y="683.2" type="curve" smooth="yes"/>
      <point x="138" y="700.2"/>
      <point x="128.3" y="710.1"/>
      <point x="112" y="710.1" type="curve" smooth="yes"/>
      <point x="96.7" y="710.1"/>
      <point x="88" y="700.4"/>
      <point x="88" y="683.2" type="curve" smooth="yes"/>
      <point x="88" y="668.3"/>
      <point x="97.6" y="658.4"/>
    </contour>
    <contour>
      <point x="111.8" y="6" type="curve" smooth="yes"/>
      <point x="102.937" y="73.6156"/>
      <point x="98.4853" y="162.6"/>
      <point x="98.4853" y="252.164" type="curve" smooth="yes"/>
      <point x="98.4853" y="339.436"/>
      <point x="102.712" y="427.258"/>
      <point x="111.2" y="496.4" type="curve" smooth="yes"/>
      <point x="111.8" y="501.7"/>
      <point x="107.6" y="506.2"/>
      <point x="101.9" y="506.2" type="curve" smooth="yes"/>
      <point x="96.9" y="506.2"/>
      <point x="93.4" y="502.7"/>
      <point x="92.7" y="497.4" type="curve" smooth="yes"/>
      <point x="84.6219" y="433.901"/>
      <point x="80.5945" y="348.063"/>
      <point x="80.5945" y="260.515" type="curve" smooth="yes"/>
      <point x="80.5945" y="169.242"/>
      <point x="84.9719" y="76.1114"/>
      <point x="93.7" y="4.5" type="curve" smooth="yes"/>
      <point x="94.4" y="-1.5"/>
      <point x="98.3" y="-5.5"/>
      <point x="103.4" y="-5.5" type="curve" smooth="yes"/>
      <point x="109" y="-5.5"/>
      <point x="112.6" y="-0.6"/>
    </contour>
    <contour>
      <point x="103" y="0" type="move" name="bottom"/>
    </contour>
  </outline>
</glyph>
<glyph name="j" format="1">
  <advance width="188"/>
  <unicode hex="006A"/>
  <outline>
    <contour>
      <point x="97" y="658.4" type="curve" smooth="yes"/>
      <point x="111.9" y="658.4"/>
      <point x="123" y="665.9"/>
      <point x="123" y="683.2" type="curve" smooth="yes"/>
      <point x="123" y="700"/>
      <point x="113.5" y="710.1"/>
      <point x="97" y="710.1" type="curve" smooth="yes"/>
      <point x="81.7" y="710.1"/>
      <point x="73" y="700.4"/>
      <point x="73" y="683.2" type="curve" smooth="yes"/>
      <point x="73" y="667.9"/>
      <point x="83" y="658.4"/>
    </contour>
    <contour>
      <point x="-70.8" y="-210" type="curve" smooth="yes"/>
      <point x="40.8" y="-210"/>
      <point x="112.5" y="-133.2"/>
      <point x="108" y="-5.6" type="curve" smooth="yes"/>
      <point x="104.5" y="92.25"/>
      <point x="102.75" y="168.775"/>
      <point x="102.75" y="245.3" type="curve" smooth="yes"/>
      <point x="102.75" y="321.825"/>
      <point x="104.5" y="398.35"/>
      <point x="108" y="496.2" type="curve" smooth="yes"/>
      <point x="108.2" y="502.8"/>
      <point x="103.8" y="506.1"/>
      <point x="99.3" y="506.1" type="curve" smooth="yes"/>
      <point x="94.8" y="506.1"/>
      <point x="90.1" y="502.8"/>
      <point x="89.9" y="496.2" type="curve" smooth="yes"/>
      <point x="86.4" y="398.95"/>
      <point x="84.65" y="322.875"/>
      <point x="84.65" y="246.8" type="curve" smooth="yes"/>
      <point x="84.65" y="170.725"/>
      <point x="86.4" y="94.65"/>
      <point x="89.9" y="-2.6" type="curve" smooth="yes"/>
      <point x="94.3" y="-126.4"/>
      <point x="33.3" y="-193.1"/>
      <point x="-71.9" y="-193.1" type="curve" smooth="yes"/>
      <point x="-79.5" y="-193.1"/>
      <point x="-82.9" y="-195.5"/>
      <point x="-82.9" y="-201.1" type="curve" smooth="yes"/>
      <point x="-82.9" y="-206.3"/>
      <point x="-79.3" y="-210"/>
    </contour>
    <contour>
      <point x="99" y="550" type="move" name="top"/>
    </contour>
  </outline>
</glyph>
<glyph name="k" format="2">
  <advance width="481"/>
  <unicode hex="006B"/>
  <anchor x="250" y="0" name="bottom"/>
  <outline>
    <contour>
      <point x="427.45" y="14.15" type="curve" smooth="yes"/>
      <point x="348.005" y="102.422"/>
      <point x="296.804" y="166.479"/>
      <point x="210.752" y="284.801" type="curve"/>
      <point x="275.677" y="352.135"/>
      <point x="327.943" y="412.321"/>
      <point x="387.55" y="488.15" type="curve" smooth="yes"/>
      <point x="392.406" y="494.328"/>
      <point x="388.881" y="502.609"/>
      <point x="381.396" y="502.609" type="curve" smooth="yes"/>
      <point x="379.014" y="502.609"/>
      <point x="376.887" y="501.513"/>
      <point x="375.35" y="499.5" type="curve" smooth="yes"/>
      <point x="308.704" y="412.195"/>
      <point x="219.693" y="314.722"/>
      <point x="109.201" y="208.05" type="curve"/>
      <point x="110.666" y="347.073"/>
      <point x="107.707" y="505.407"/>
      <point x="98.95" y="696.6" type="curve" smooth="yes"/>
      <point x="98.6882" y="702.316"/>
      <point x="95.135" y="706.15"/>
      <point x="90.1" y="706.15" type="curve" smooth="yes"/>
      <point x="84.3842" y="706.15"/>
      <point x="80.3136" y="701.46"/>
      <point x="80.6" y="695.25" type="curve" smooth="yes"/>
      <point x="93.2977" y="419.931"/>
      <point x="93.9074" y="206.91"/>
      <point x="84.75" y="2.70005" type="curve" smooth="yes"/>
      <point x="84.5132" y="-2.58071"/>
      <point x="88.3785" y="-6.53749"/>
      <point x="93.7739" y="-6.53749" type="curve" smooth="yes"/>
      <point x="98.8844" y="-6.53749"/>
      <point x="102.567" y="-2.91927"/>
      <point x="102.856" y="2.38618" type="curve" smooth="yes"/>
      <point x="105.911" y="58.4431"/>
      <point x="107.932" y="119.099"/>
      <point x="108.889" y="183.456" type="curve"/>
      <point x="146.274" y="219.877"/>
      <point x="173.677" y="247.077"/>
      <point x="197.838" y="271.748" type="curve"/>
      <point x="288.492" y="147.086"/>
      <point x="342.857" y="79.2818"/>
      <point x="414" y="1.85004" type="curve" smooth="yes"/>
      <point x="416.141" y="-0.480757"/>
      <point x="418.678" y="-1.72136"/>
      <point x="421.301" y="-1.72136" type="curve" smooth="yes"/>
      <point x="429.336" y="-1.72136"/>
      <point x="433.067" y="7.90858"/>
    </contour>
  </outline>
</glyph>
<glyph name="l" format="1">
  <advance width="189"/>
  <unicode hex="006C"/>
  <outline>
    <contour>
      <point x="101" y="6" type="curve"/>
      <point x="111" y="275"/>
      <point x="111" y="427"/>
      <point x="101" y="696" type="curve" smooth="yes"/>
      <point x="100" y="702"/>
      <point x="96" y="706"/>
      <point x="90" y="706" type="curve" smooth="yes"/>
      <point x="84" y="706"/>
      <point x="81" y="702"/>
      <point x="81" y="696" type="curve" smooth="yes"/>
      <point x="91" y="427"/>
      <point x="91" y="275"/>
      <point x="81" y="5" type="curve" smooth="yes"/>
      <point x="81" y="-2"/>
      <point x="85" y="-7"/>
      <point x="91" y="-7" type="curve" smooth="yes"/>
      <point x="97" y="-7"/>
      <point x="101" y="-2"/>
    </contour>
    <contour>
      <point x="89" y="0" type="move" name="bottom"/>
    </contour>
    <contour>
      <point x="240" y="370" type="move" name="center"/>
    </contour>
    <contour>
      <point x="190" y="700" type="move" name="right"/>
    </contour>
  </outline>
</glyph>
<glyph name="m" format="2">
  <advance width="869"/>
  <unicode hex="006D"/>
  <outline>
    <contour>
      <point x="778.4" y="2.85" type="curve" smooth="yes"/>
      <point x="792.1" y="100.515"/>
      <point x="799.061" y="190.174"/>
      <point x="798.1" y="264.4" type="curve" smooth="yes"/>
      <point x="796" y="426.554"/>
      <point x="734.947" y="511.1"/>
      <point x="619.95" y="511.1" type="curve" smooth="yes"/>
      <point x="543.898" y="511.1"/>
      <point x="478.297" y="474.011"/>
      <point x="432.363" y="405.044" type="curve"/>
      <point x="404.564" y="475.328"/>
      <point x="352.347" y="511.1"/>
      <point x="277.55" y="511.1" type="curve" smooth="yes"/>
      <point x="208.239" y="511.1"/>
      <point x="147.532" y="480.352"/>
      <point x="102.451" y="422.412" type="curve"/>
      <point x="101.473" y="446.226"/>
      <point x="100.28" y="469.882"/>
      <point x="99" y="493.25" type="curve" smooth="yes"/>
      <point x="98.6757" y="499.169"/>
      <point x="95.2531" y="503.042"/>
      <point x="90.3465" y="503.042" type="curve" smooth="yes"/>
      <point x="84.7361" y="503.042"/>
      <point x="80.5297" y="498.187"/>
      <point x="80.9" y="492.1" type="curve" smooth="yes"/>
      <point x="91.3005" y="321.141"/>
      <point x="91.5875" y="160.383"/>
      <point x="81.35" y="6.25001" type="curve" smooth="yes"/>
      <point x="80.9382" y="0.0505648"/>
      <point x="84.6607" y="-4.60349"/>
      <point x="90.031" y="-4.60349" type="curve" smooth="yes"/>
      <point x="94.8994" y="-4.60349"/>
      <point x="98.5107" y="-0.674686"/>
      <point x="98.95" y="5.10001" type="curve" smooth="yes"/>
      <point x="106.906" y="109.693"/>
      <point x="108.559" y="249.514"/>
      <point x="103.541" y="393.372" type="curve"/>
      <point x="149.23" y="459.173"/>
      <point x="208.826" y="493.75"/>
      <point x="276.55" y="493.75" type="curve" smooth="yes"/>
      <point x="379.388" y="493.75"/>
      <point x="435.445" y="413.868"/>
      <point x="437.4" y="264.35" type="curve" smooth="yes"/>
      <point x="438.454" y="183.737"/>
      <point x="431.503" y="92.0614"/>
      <point x="417.75" y="7.30002" type="curve" smooth="yes"/>
      <point x="416.615" y="0.303665"/>
      <point x="420.393" y="-4.81588"/>
      <point x="426.692" y="-4.81588" type="curve" smooth="yes"/>
      <point x="431.525" y="-4.81588"/>
      <point x="435.36" y="-1.64848"/>
      <point x="436" y="2.85005" type="curve" smooth="yes"/>
      <point x="449.898" y="100.487"/>
      <point x="456.661" y="190.174"/>
      <point x="455.7" y="264.4" type="curve" smooth="yes"/>
      <point x="455.104" y="310.443"/>
      <point x="449.738" y="350.4"/>
      <point x="439.643" y="383.966" type="curve"/>
      <point x="486.004" y="455.817"/>
      <point x="547.976" y="493.75"/>
      <point x="619" y="493.75" type="curve" smooth="yes"/>
      <point x="721.797" y="493.75"/>
      <point x="777.752" y="413.854"/>
      <point x="779.8" y="264.35" type="curve" smooth="yes"/>
      <point x="780.9" y="184.016"/>
      <point x="773.95" y="92.355"/>
      <point x="760.15" y="7.30005" type="curve" smooth="yes"/>
      <point x="759.015" y="0.303688"/>
      <point x="762.793" y="-4.81586"/>
      <point x="769.092" y="-4.81586" type="curve" smooth="yes"/>
      <point x="773.925" y="-4.81586"/>
      <point x="777.769" y="-1.64976"/>
    </contour>
  </outline>
</glyph>
<glyph name="n" format="2">
  <advance width="562"/>
  <unicode hex="006E"/>
  <anchor x="284" y="0" name="bottom"/>
  <anchor x="-30" y="700" name="right"/>
  <anchor x="284" y="530" name="top"/>
  <outline>
    <contour>
      <point x="98.95" y="4.75" type="curve" smooth="yes"/>
      <point x="104.348" y="105.622"/>
      <point x="106.077" y="212.293"/>
      <point x="104.461" y="321.188" type="curve"/>
      <point x="140.914" y="433.473"/>
      <point x="206.644" y="492.75"/>
      <point x="294.7" y="492.75" type="curve" smooth="yes"/>
      <point x="409.357" y="492.75"/>
      <point x="472.6" y="399.734"/>
      <point x="472.6" y="231.1" type="curve" smooth="yes"/>
      <point x="472.6" y="164.134"/>
      <point x="466.039" y="79.5015"/>
      <point x="454.35" y="6.5" type="curve" smooth="yes"/>
      <point x="453.136" y="-1.082"/>
      <point x="456.52" y="-7.02568"/>
      <point x="462.051" y="-7.02568" type="curve" smooth="yes"/>
      <point x="467.316" y="-7.02568"/>
      <point x="471.573" y="-1.5016"/>
      <point x="472.65" y="6.75001" type="curve" smooth="yes"/>
      <point x="486.224" y="110.767"/>
      <point x="491.4" y="170.856"/>
      <point x="491.4" y="224.4" type="curve" smooth="yes"/>
      <point x="491.4" y="409.671"/>
      <point x="422.959" y="510.1"/>
      <point x="296.7" y="510.1" type="curve" smooth="yes"/>
      <point x="206.574" y="510.1"/>
      <point x="139.729" y="460.747"/>
      <point x="103.606" y="367.533" type="curve"/>
      <point x="102.575" y="410.633"/>
      <point x="101.021" y="453.35"/>
      <point x="98.95" y="495.45" type="curve" smooth="yes"/>
      <point x="98.6673" y="501.199"/>
      <point x="95.1629" y="505.104"/>
      <point x="90.2869" y="505.104" type="curve" smooth="yes"/>
      <point x="84.5331" y="505.104"/>
      <point x="80.5022" y="499.883"/>
      <point x="80.9001" y="493" type="curve" smooth="yes"/>
      <point x="88.6533" y="358.894"/>
      <point x="88.2834" y="216.976"/>
      <point x="81.0501" y="4.8" type="curve" smooth="yes"/>
      <point x="80.8447" y="-1.2238"/>
      <point x="84.6908" y="-5.79262"/>
      <point x="89.9671" y="-5.79262" type="curve" smooth="yes"/>
      <point x="95" y="-5.79262"/>
      <point x="98.6131" y="-1.5521"/>
    </contour>
  </outline>
</glyph>
<glyph name="o" format="1">
  <advance width="559"/>
  <unicode hex="006F"/>
  <outline>
    <contour>
      <point x="275.3" y="-10" type="curve" smooth="yes"/>
      <point x="400.7" y="-10"/>
      <point x="494" y="103.8"/>
      <point x="494" y="256.8" type="curve" smooth="yes"/>
      <point x="494" y="409.9"/>
      <point x="410.6" y="510"/>
      <point x="283" y="510" type="curve" smooth="yes"/>
      <point x="153.3" y="510"/>
      <point x="65" y="406.4"/>
      <point x="65" y="254.4" type="curve" smooth="yes"/>
      <point x="65" y="98.8"/>
      <point x="151.5" y="-10"/>
    </contour>
    <contour>
      <point x="273.8" y="6.6" type="curve" smooth="yes"/>
      <point x="162.8" y="6.6"/>
      <point x="83" y="110.2"/>
      <point x="83" y="254.3" type="curve" smooth="yes"/>
      <point x="83" y="396.7"/>
      <point x="164.1" y="493.4"/>
      <point x="283.6" y="493.4" type="curve" smooth="yes"/>
      <point x="399.2" y="493.4"/>
      <point x="476" y="400.4"/>
      <point x="476" y="260.4" type="curve" smooth="yes"/>
      <point x="476" y="113.1"/>
      <point x="391.1" y="6.6"/>
    </contour>
    <contour>
      <point x="283" y="530" type="move" name="top"/>
    </contour>
  </outline>
</glyph>
<glyph name="p" format="2">
  <advance width="570"/>
  <unicode hex="0070"/>
  <outline>
    <contour>
      <point x="292.1" y="-10.4" type="curve" smooth="yes"/>
      <point x="416.241" y="-10.4"/>
      <point x="504.25" y="96.3391"/>
      <point x="504.25" y="246.9" type="curve" smooth="yes"/>
      <point x="504.25" y="400.953"/>
      <point x="414.497" y="510.3"/>
      <point x="288.05" y="510.3" type="curve" smooth="yes"/>
      <point x="201.277" y="510.3"/>
      <point x="136.22" y="455.713"/>
      <point x="108.078" y="359.293" type="curve"/>
      <point x="106.961" y="407.448"/>
      <point x="105.202" y="453.539"/>
      <point x="102.808" y="497.416" type="curve" smooth="yes"/>
      <point x="102.558" y="501.995"/>
      <point x="99.1195" y="505.106"/>
      <point x="94.3093" y="505.106" type="curve" smooth="yes"/>
      <point x="88.6321" y="505.106"/>
      <point x="84.5574" y="500.937"/>
      <point x="84.8229" y="495.401" type="curve" smooth="yes"/>
      <point x="94.5729" y="292.058"/>
      <point x="93.3005" y="85.78"/>
      <point x="80.5955" y="-189.923" type="curve" smooth="yes"/>
      <point x="80.2506" y="-197.407"/>
      <point x="84.3347" y="-203.158"/>
      <point x="89.9941" y="-203.158" type="curve" smooth="yes"/>
      <point x="95.043" y="-203.158"/>
      <point x="98.6379" y="-198.424"/>
      <point x="98.946" y="-191.369" type="curve" smooth="yes"/>
      <point x="104.351" y="-67.6134"/>
      <point x="107.566" y="37.8151"/>
      <point x="108.864" y="133.859" type="curve"/>
      <point x="138.316" y="42.606"/>
      <point x="205.644" y="-10.4"/>
    </contour>
    <contour>
      <point x="290.8" y="6.8" type="curve" smooth="yes"/>
      <point x="183.405" y="6.8"/>
      <point x="109.9" y="104.644"/>
      <point x="109.9" y="247.6" type="curve" smooth="yes"/>
      <point x="109.9" y="397.763"/>
      <point x="178.86" y="492.6"/>
      <point x="288.05" y="492.6" type="curve" smooth="yes"/>
      <point x="402.846" y="492.6"/>
      <point x="484.95" y="390.355"/>
      <point x="484.95" y="247.4" type="curve" smooth="yes"/>
      <point x="484.95" y="109.822"/>
      <point x="401.818" y="6.80002"/>
    </contour>
  </outline>
</glyph>
<glyph name="q" format="1">
  <advance width="570"/>
  <unicode hex="0071"/>
  <outline>
    <contour>
      <point x="277.8" y="-10.4" type="curve" smooth="yes"/>
      <point x="364.206" y="-10.4"/>
      <point x="431.512" y="42.5837"/>
      <point x="460.987" y="133.807" type="curve"/>
      <point x="462.278" y="37.5621"/>
      <point x="465.511" y="-67.9827"/>
      <point x="470.95" y="-191.427" type="curve" smooth="yes"/>
      <point x="471.215" y="-197.451"/>
      <point x="474.752" y="-201.462"/>
      <point x="479.798" y="-201.462" type="curve" smooth="yes"/>
      <point x="485.448" y="-201.462"/>
      <point x="489.613" y="-196.607"/>
      <point x="489.325" y="-190.357" type="curve" smooth="yes"/>
      <point x="476.569" y="86.4441"/>
      <point x="475.102" y="292.552"/>
      <point x="485.1" y="496.15" type="curve" smooth="yes"/>
      <point x="485.349" y="501.209"/>
      <point x="481.523" y="505.006"/>
      <point x="476.179" y="505.006" type="curve" smooth="yes"/>
      <point x="471.023" y="505.006"/>
      <point x="467.311" y="501.414"/>
      <point x="467.023" y="496.149" type="curve" smooth="yes"/>
      <point x="464.694" y="453.471"/>
      <point x="462.944" y="407.4"/>
      <point x="461.824" y="359.289" type="curve"/>
      <point x="433.675" y="455.698"/>
      <point x="368.601" y="510.3"/>
      <point x="281.85" y="510.3" type="curve" smooth="yes"/>
      <point x="155.403" y="510.3"/>
      <point x="65.6501" y="400.953"/>
      <point x="65.6501" y="246.9" type="curve" smooth="yes"/>
      <point x="65.6501" y="96.3391"/>
      <point x="153.659" y="-10.4"/>
    </contour>
    <contour>
      <point x="279.1" y="6.8" type="curve" smooth="yes"/>
      <point x="168.057" y="6.8"/>
      <point x="84.95" y="109.791"/>
      <point x="84.95" y="247.4" type="curve" smooth="yes"/>
      <point x="84.95" y="390.355"/>
      <point x="167.054" y="492.6"/>
      <point x="281.85" y="492.6" type="curve" smooth="yes"/>
      <point x="391.015" y="492.6"/>
      <point x="460" y="397.729"/>
      <point x="460" y="247.6" type="curve" smooth="yes"/>
      <point x="460" y="104.644"/>
      <point x="386.495" y="6.79999"/>
    </contour>
  </outline>
</glyph>
<glyph name="r" format="1">
  <advance width="385"/>
  <unicode hex="0072"/>
  <outline>
    <contour>
      <point x="105.8" y="5.3" type="curve" smooth="yes"/>
      <point x="111.5" y="107.7"/>
      <point x="112.8" y="210.7"/>
      <point x="110.1" y="308.1" type="curve"/>
      <point x="127.1" y="425.6"/>
      <point x="181.8" y="492.6"/>
      <point x="260.7" y="492.6" type="curve" smooth="yes"/>
      <point x="285.9" y="492.6"/>
      <point x="313" y="485.7"/>
      <point x="341.5" y="472.5" type="curve" smooth="yes"/>
      <point x="347.6" y="469.7"/>
      <point x="354.5" y="474.4"/>
      <point x="354.5" y="481.5" type="curve" smooth="yes"/>
      <point x="354.5" y="499.557"/>
      <point x="277.144" y="509.5"/>
      <point x="262.7" y="509.5" type="curve" smooth="yes"/>
      <point x="187.8" y="509.5"/>
      <point x="131.5" y="460.7"/>
      <point x="107.7" y="374.9" type="curve"/>
      <point x="105.6" y="417.9"/>
      <point x="102.8" y="458.9"/>
      <point x="98.9" y="497.4" type="curve" smooth="yes"/>
      <point x="98.4" y="502.8"/>
      <point x="94.4" y="506.7"/>
      <point x="89.3" y="506.7" type="curve" smooth="yes"/>
      <point x="83.7" y="506.7"/>
      <point x="80.1" y="502"/>
      <point x="80.7" y="495.5" type="curve" smooth="yes"/>
      <point x="89.6238" y="406.021"/>
      <point x="94.2939" y="311.961"/>
      <point x="94.2939" y="212.049" type="curve" smooth="yes"/>
      <point x="94.2939" y="146.258"/>
      <point x="92.2689" y="77.9292"/>
      <point x="88.1" y="6.7" type="curve" smooth="yes"/>
      <point x="87.8" y="1.6"/>
      <point x="91.8" y="-2.3"/>
      <point x="97.3" y="-2.3" type="curve" smooth="yes"/>
      <point x="102.1" y="-2.3"/>
      <point x="105.6" y="0.7"/>
    </contour>
    <contour>
      <point x="96" y="0" type="move" name="bottom"/>
    </contour>
    <contour>
      <point x="221" y="530" type="move" name="top"/>
    </contour>
  </outline>
</glyph>
<glyph name="s" format="1">
  <advance width="414"/>
  <unicode hex="0073"/>
  <outline>
    <contour>
      <point x="202.4" y="-10.3" type="curve" smooth="yes"/>
      <point x="293" y="-10.3"/>
      <point x="358.1" y="48"/>
      <point x="358.1" y="129.3" type="curve" smooth="yes"/>
      <point x="358.1" y="297.5"/>
      <point x="83.7" y="246.8"/>
      <point x="83.7" y="386.6" type="curve" smooth="yes"/>
      <point x="83.7" y="448.8"/>
      <point x="136.2" y="491.2"/>
      <point x="213.1" y="491.2" type="curve" smooth="yes"/>
      <point x="251.5" y="491.2"/>
      <point x="289.7" y="481.9"/>
      <point x="326" y="463.6" type="curve" smooth="yes"/>
      <point x="332.7" y="460.3"/>
      <point x="340.3" y="464.7"/>
      <point x="340.3" y="471.8" type="curve" smooth="yes"/>
      <point x="340.3" y="475.4"/>
      <point x="338" y="478.5"/>
      <point x="333.9" y="480.3" type="curve" smooth="yes"/>
      <point x="293.2" y="498.3"/>
      <point x="251.8" y="507.7"/>
      <point x="213.1" y="507.7" type="curve" smooth="yes"/>
      <point x="125.9" y="507.7"/>
      <point x="65.4" y="458.1"/>
      <point x="65.4" y="386.8" type="curve" smooth="yes"/>
      <point x="65.4" y="230.6"/>
      <point x="338.8" y="280.9"/>
      <point x="338.8" y="130.6" type="curve" smooth="yes"/>
      <point x="338.8" y="59"/>
      <point x="282.2" y="7.5"/>
      <point x="203.5" y="7.5" type="curve" smooth="yes"/>
      <point x="158.4" y="7.5"/>
      <point x="113" y="25.7"/>
      <point x="72.1" y="60.2" type="curve" smooth="yes"/>
      <point x="64.9" y="66.4"/>
      <point x="55.4" y="63.6"/>
      <point x="55.4" y="55.3" type="curve" smooth="yes"/>
      <point x="55.4" y="52.4"/>
      <point x="56.8" y="49.5"/>
      <point x="59.5" y="47.1" type="curve" smooth="yes"/>
      <point x="99.6" y="10.2"/>
      <point x="150.7" y="-10.3"/>
    </contour>
    <contour>
      <point x="204" y="0" type="move" name="bottom"/>
    </contour>
    <contour>
      <point x="213" y="530" type="move" name="top"/>
    </contour>
  </outline>
</glyph>
<glyph name="t" format="1">
  <advance width="360"/>
  <unicode hex="0074"/>
  <outline>
    <contour>
      <point x="304" y="488.5" type="curve" smooth="yes"/>
      <point x="308" y="489.1"/>
      <point x="310.9" y="493"/>
      <point x="310.9" y="497.8" type="curve" smooth="yes"/>
      <point x="310.9" y="503.8"/>
      <point x="306.5" y="507.3"/>
      <point x="300.1" y="506.3" type="curve" smooth="yes"/>
      <point x="250.2" y="498.5"/>
      <point x="200" y="493.2"/>
      <point x="146.2" y="490.1" type="curve"/>
      <point x="144.2" y="545.7"/>
      <point x="141" y="601.3"/>
      <point x="136.7" y="655.7" type="curve" smooth="yes"/>
      <point x="136.3" y="660.9"/>
      <point x="132.7" y="664.4"/>
      <point x="127.7" y="664.4" type="curve" smooth="yes"/>
      <point x="122.4" y="664.4"/>
      <point x="118.3" y="659.1"/>
      <point x="118.8" y="652.9" type="curve" smooth="yes"/>
      <point x="123.5" y="599"/>
      <point x="126.9" y="545.4"/>
      <point x="129" y="489.1" type="curve"/>
      <point x="102.5" y="487.9"/>
      <point x="75" y="487.1"/>
      <point x="45.9" y="486.8" type="curve" smooth="yes"/>
      <point x="39.7" y="486.7"/>
      <point x="35.4" y="483.3"/>
      <point x="35.4" y="478.4" type="curve" smooth="yes"/>
      <point x="35.4" y="473.3"/>
      <point x="40" y="469.6"/>
      <point x="46.3" y="469.7" type="curve" smooth="yes"/>
      <point x="73.7" y="469.9"/>
      <point x="101.3" y="470.7"/>
      <point x="129.6" y="472.1" type="curve"/>
      <point x="133.3" y="359.6"/>
      <point x="132.3" y="235.2"/>
      <point x="126.9" y="89.6" type="curve" smooth="yes"/>
      <point x="124.8" y="31.5"/>
      <point x="166.2" y="-9.7"/>
      <point x="226.7" y="-9.7" type="curve" smooth="yes"/>
      <point x="242.307" y="-9.7"/>
      <point x="319.1" y="3.31834"/>
      <point x="319.1" y="22.5" type="curve" smooth="yes"/>
      <point x="319.1" y="30.2"/>
      <point x="311.5" y="33.8"/>
      <point x="304.2" y="29.5" type="curve" smooth="yes"/>
      <point x="279.3" y="14.8"/>
      <point x="252.1" y="6.8"/>
      <point x="227.1" y="6.8" type="curve" smooth="yes"/>
      <point x="177.8" y="6.8"/>
      <point x="142.5" y="42.3"/>
      <point x="144.5" y="90" type="curve" smooth="yes"/>
      <point x="149.9" y="218.3"/>
      <point x="150.7" y="350"/>
      <point x="146.7" y="473" type="curve"/>
      <point x="199.1" y="476"/>
      <point x="250.8" y="481.1"/>
    </contour>
    <contour>
      <point x="227" y="0" type="move" name="bottom"/>
    </contour>
    <contour>
      <point x="350" y="700" type="move" name="right"/>
    </contour>
  </outline>
</glyph>
<glyph name="u" format="1">
  <advance width="561"/>
  <unicode hex="0075"/>
  <outline>
    <contour>
      <point x="480.4" y="3.8" type="curve"/>
      <point x="476.125" y="74.4179"/>
      <point x="474" y="146.883"/>
      <point x="474" y="227.353" type="curve" smooth="yes"/>
      <point x="474" y="306.87"/>
      <point x="476.075" y="394.205"/>
      <point x="480.2" y="495.3" type="curve" smooth="yes"/>
      <point x="480.5" y="502.1"/>
      <point x="475.9" y="505.9"/>
      <point x="471.3" y="505.9" type="curve" smooth="yes"/>
      <point x="467" y="505.9"/>
      <point x="462.7" y="502.6"/>
      <point x="462.3" y="495.3" type="curve" smooth="yes"/>
      <point x="457" y="393.3"/>
      <point x="455.2" y="286.8"/>
      <point x="456.9" y="179.1" type="curve"/>
      <point x="420.3" y="66.3"/>
      <point x="354.3" y="7.3"/>
      <point x="264.5" y="7.3" type="curve" smooth="yes"/>
      <point x="152.4" y="7.3"/>
      <point x="88.6" y="104"/>
      <point x="88.6" y="274" type="curve" smooth="yes"/>
      <point x="88.6" y="341"/>
      <point x="95.1" y="423.2"/>
      <point x="106.5" y="493.9" type="curve" smooth="yes"/>
      <point x="107.8" y="501.5"/>
      <point x="103" y="506"/>
      <point x="97.9" y="506" type="curve" smooth="yes"/>
      <point x="93.8" y="506"/>
      <point x="89.6" y="503"/>
      <point x="88.5" y="496.1" type="curve" smooth="yes"/>
      <point x="76.6" y="417.7"/>
      <point x="70.5" y="343"/>
      <point x="70.5" y="284.9" type="curve" smooth="yes"/>
      <point x="70.5" y="92.1"/>
      <point x="138" y="-10"/>
      <point x="265.5" y="-10" type="curve" smooth="yes"/>
      <point x="355.8" y="-10"/>
      <point x="422" y="39.4"/>
      <point x="457.7" y="132.3" type="curve"/>
      <point x="458.7" y="90.9"/>
      <point x="460.3" y="44.3"/>
      <point x="462.3" y="2.8" type="curve" smooth="yes"/>
      <point x="462.6" y="-3"/>
      <point x="466.9" y="-5.8"/>
      <point x="471.2" y="-5.8" type="curve" smooth="yes"/>
      <point x="476" y="-5.8"/>
      <point x="480.3" y="-2.1"/>
    </contour>
    <contour>
      <point x="468" y="0" type="move" name="bottom"/>
    </contour>
    <contour>
      <point x="280" y="530" type="move" name="top"/>
    </contour>
  </outline>
</glyph>
<glyph name="v" format="1">
  <advance width="548"/>
  <unicode hex="0076"/>
  <outline>
    <contour>
      <point x="501.551" y="492.449" type="curve" smooth="yes"/>
      <point x="505.345" y="498.815"/>
      <point x="501.179" y="506.301"/>
      <point x="493.844" y="506.301" type="curve" smooth="yes"/>
      <point x="490.686" y="506.301"/>
      <point x="487.899" y="504.638"/>
      <point x="486.051" y="501.649" type="curve" smooth="yes"/>
      <point x="406.55" y="373.087"/>
      <point x="317.626" y="187.368"/>
      <point x="254.231" y="17.4877" type="curve"/>
      <point x="211.844" y="171.608"/>
      <point x="145.894" y="337.951"/>
      <point x="63.1673" y="499.398" type="curve" smooth="yes"/>
      <point x="61.1761" y="503.284"/>
      <point x="57.5024" y="505.669"/>
      <point x="53.509" y="505.669" type="curve" smooth="yes"/>
      <point x="46.1926" y="505.669"/>
      <point x="43.3207" y="498.763"/>
      <point x="47.4033" y="490.986" type="curve" smooth="yes"/>
      <point x="123.917" y="345.244"/>
      <point x="199.432" y="153.974"/>
      <point x="237.25" y="10.4999" type="curve" smooth="yes"/>
      <point x="239.724" y="1.11306"/>
      <point x="246.535" y="-5.18633"/>
      <point x="254.209" y="-5.18633" type="curve" smooth="yes"/>
      <point x="260.677" y="-5.18633"/>
      <point x="266.218" y="-0.651059"/>
      <point x="269.15" y="7.04991" type="curve" smooth="yes"/>
      <point x="337.981" y="187.825"/>
      <point x="411.468" y="341.312"/>
    </contour>
  </outline>
</glyph>
<glyph name="w" format="1">
  <advance width="787"/>
  <unicode hex="0077"/>
  <outline>
    <contour>
      <point x="555.4" y="8.9" type="curve" smooth="yes"/>
      <point x="604.1" y="149.4"/>
      <point x="694.6" y="384.7"/>
      <point x="741" y="491.6" type="curve" smooth="yes"/>
      <point x="743.9" y="498.3"/>
      <point x="739.8" y="505"/>
      <point x="732.9" y="505" type="curve" smooth="yes"/>
      <point x="729" y="505"/>
      <point x="725.6" y="502.5"/>
      <point x="723.8" y="498.2" type="curve" smooth="yes"/>
      <point x="680.9" y="398.8"/>
      <point x="577.7" y="129.3"/>
      <point x="541.8" y="23.2" type="curve"/>
      <point x="466.2" y="214.7"/>
      <point x="438.3" y="295.8"/>
      <point x="397.7" y="443.5" type="curve" smooth="yes"/>
      <point x="396" y="449.8"/>
      <point x="391.4" y="453.8"/>
      <point x="385.8" y="453.8" type="curve" smooth="yes"/>
      <point x="380.3" y="453.8"/>
      <point x="375.3" y="450"/>
      <point x="372.7" y="444" type="curve" smooth="yes"/>
      <point x="299.6" y="273.9"/>
      <point x="265.6" y="182.2"/>
      <point x="217.4" y="25.5" type="curve"/>
      <point x="143.1" y="229.8"/>
      <point x="110.8" y="331.3"/>
      <point x="66.9" y="498.1" type="curve" smooth="yes"/>
      <point x="65.7" y="502.5"/>
      <point x="62.5" y="505.2"/>
      <point x="58.5" y="505.2" type="curve" smooth="yes"/>
      <point x="52.4" y="505.2"/>
      <point x="48.8" y="499.5"/>
      <point x="50.6" y="492.6" type="curve" smooth="yes"/>
      <point x="99.7" y="306.5"/>
      <point x="132.6" y="202.7"/>
      <point x="203.8" y="9.4" type="curve" smooth="yes"/>
      <point x="206.4" y="2.3"/>
      <point x="212.1" y="-2.2"/>
      <point x="218.6" y="-2.2" type="curve" smooth="yes"/>
      <point x="224.9" y="-2.2"/>
      <point x="230.1" y="2.1"/>
      <point x="232.1" y="8.9" type="curve" smooth="yes"/>
      <point x="277.7" y="161.6"/>
      <point x="309.2" y="248.2"/>
      <point x="383.7" y="426.2" type="curve"/>
      <point x="423.4" y="282.1"/>
      <point x="452.9" y="197.3"/>
      <point x="528.7" y="8.6" type="curve" smooth="yes"/>
      <point x="531.7" y="1.1"/>
      <point x="536.8" y="-3.4"/>
      <point x="542.3" y="-3.4" type="curve" smooth="yes"/>
      <point x="547.8" y="-3.4"/>
      <point x="552.7" y="1.2"/>
    </contour>
    <contour>
      <point x="386" y="530" type="move" name="top"/>
    </contour>
  </outline>
</glyph>
<glyph name="x" format="1">
  <advance width="508"/>
  <unicode hex="0078"/>
  <outline>
    <contour>
      <point x="268.5" y="238.4" type="curve"/>
      <point x="460.5" y="-3.3" type="line"/>
      <point x="462.9" y="-5.7"/>
      <point x="465.7" y="-7"/>
      <point x="468.5" y="-7" type="curve" smooth="yes"/>
      <point x="476.3" y="-7"/>
      <point x="479.8" y="1.7"/>
      <point x="474.7" y="8.2" type="curve" smooth="yes"/>
      <point x="280.2" y="253.3" type="line"/>
      <point x="334.8" y="323.4"/>
      <point x="390.6" y="400.2"/>
      <point x="450.5" y="487.6" type="curve" smooth="yes"/>
      <point x="455.1" y="494.3"/>
      <point x="450.7" y="502.2"/>
      <point x="442.3" y="502.2" type="curve" smooth="yes"/>
      <point x="439.5" y="502.2"/>
      <point x="437.2" y="501"/>
      <point x="435.7" y="499" type="curve"/>
      <point x="377.8" y="414"/>
      <point x="322.2" y="337.3"/>
      <point x="268.6" y="267.9" type="curve"/>
      <point x="88.5" y="495" type="line" smooth="yes"/>
      <point x="85.3" y="499"/>
      <point x="81.5" y="501.3"/>
      <point x="77.9" y="501.3" type="curve" smooth="yes"/>
      <point x="70.3" y="501.3"/>
      <point x="66.8" y="492.1"/>
      <point x="72" y="485.7" type="curve" smooth="yes"/>
      <point x="256.9" y="252.9" type="line"/>
      <point x="183.4" y="158.9"/>
      <point x="113" y="78.5"/>
      <point x="44.8" y="10.3" type="curve" smooth="yes"/>
      <point x="37.2" y="2.8"/>
      <point x="39.6" y="-8"/>
      <point x="48.9" y="-8" type="curve" smooth="yes"/>
      <point x="67.356" y="-8"/>
      <point x="245.542" y="209.259"/>
    </contour>
  </outline>
</glyph>
<glyph name="y" format="1">
  <advance width="510"/>
  <unicode hex="0079"/>
  <outline>
    <contour>
      <point x="169" y="-199" type="curve" smooth="yes"/>
      <point x="303" y="50"/>
      <point x="388" y="249"/>
      <point x="464" y="494" type="curve" smooth="yes"/>
      <point x="466" y="501"/>
      <point x="462" y="506"/>
      <point x="456" y="506" type="curve" smooth="yes"/>
      <point x="451" y="506"/>
      <point x="447" y="503"/>
      <point x="446" y="499" type="curve" smooth="yes"/>
      <point x="400" y="348"/>
      <point x="342" y="196"/>
      <point x="274" y="47" type="curve"/>
      <point x="207" y="224"/>
      <point x="117" y="416"/>
      <point x="62" y="501" type="curve" smooth="yes"/>
      <point x="60" y="504"/>
      <point x="57" y="506"/>
      <point x="54" y="506" type="curve" smooth="yes"/>
      <point x="46" y="506"/>
      <point x="42" y="497"/>
      <point x="47" y="490" type="curve" smooth="yes"/>
      <point x="97" y="416"/>
      <point x="196" y="202"/>
      <point x="264" y="26" type="curve"/>
      <point x="229" y="-48"/>
      <point x="192" y="-121"/>
      <point x="152" y="-192" type="curve" smooth="yes"/>
      <point x="149" y="-198"/>
      <point x="153" y="-206"/>
      <point x="160" y="-206" type="curve" smooth="yes"/>
      <point x="163" y="-206"/>
      <point x="167" y="-204"/>
    </contour>
  </outline>
</glyph>
<glyph name="z" format="1">
  <advance width="520"/>
  <unicode hex="007A"/>
  <outline>
    <contour>
      <point x="465.8" y="-0.3" type="curve" smooth="yes"/>
      <point x="470.7" y="-0.5"/>
      <point x="474.8" y="3.5"/>
      <point x="474.8" y="8.6" type="curve" smooth="yes"/>
      <point x="474.8" y="13.2"/>
      <point x="471.3" y="16.3"/>
      <point x="465.9" y="16.6" type="curve" smooth="yes"/>
      <point x="386.447" y="20.5583"/>
      <point x="314.86" y="22.5091"/>
      <point x="245.059" y="22.5091" type="curve" smooth="yes"/>
      <point x="193.184" y="22.5091"/>
      <point x="142.296" y="21.4317"/>
      <point x="89.9" y="19.3" type="curve"/>
      <point x="216.3" y="161.9"/>
      <point x="360.1" y="353.4"/>
      <point x="436.2" y="480.4" type="curve" smooth="yes"/>
      <point x="443.1" y="491.9"/>
      <point x="438.1" y="500.7"/>
      <point x="425" y="500.2" type="curve" smooth="yes"/>
      <point x="365.595" y="497.737"/>
      <point x="308.132" y="496.512"/>
      <point x="250.016" y="496.512" type="curve" smooth="yes"/>
      <point x="190.148" y="496.512"/>
      <point x="129.588" y="497.812"/>
      <point x="65.5" y="500.4" type="curve" smooth="yes"/>
      <point x="59.5" y="500.6"/>
      <point x="55.1" y="497"/>
      <point x="55.1" y="491.7" type="curve" smooth="yes"/>
      <point x="55.1" y="486.5"/>
      <point x="59.4" y="482.8"/>
      <point x="65.4" y="482.6" type="curve" smooth="yes"/>
      <point x="136.142" y="480.185"/>
      <point x="198.649" y="478.985"/>
      <point x="257.152" y="478.985" type="curve" smooth="yes"/>
      <point x="312.526" y="478.985"/>
      <point x="364.313" y="480.06"/>
      <point x="416.1" y="482.2" type="curve"/>
      <point x="328.5" y="341.4"/>
      <point x="180.4" y="145.4"/>
      <point x="66.5" y="19.4" type="curve" smooth="yes"/>
      <point x="58.5" y="10.6"/>
      <point x="63" y="0.1"/>
      <point x="74.4" y="0.8" type="curve" smooth="yes"/>
      <point x="119.074" y="3.70941"/>
      <point x="175.792" y="5.14345"/>
      <point x="238.532" y="5.14345" type="curve" smooth="yes"/>
      <point x="309.491" y="5.14345"/>
      <point x="388.153" y="3.30903"/>
    </contour>
    <contour>
      <point x="258" y="530" type="move" name="top"/>
    </contour>
  </outline>
</glyph>
<glyph name="braceleft" format="1">
  <advance width="286"/>
  <unicode hex="007B"/>
  <outline>
    <contour>
      <point x="230.2" y="-47.1" type="curve" smooth="yes"/>
      <point x="178" y="-18"/>
      <point x="144.6" y="33.4"/>
      <point x="144.6" y="84.5" type="curve" smooth="yes"/>
      <point x="144.6" y="133"/>
      <point x="177.6" y="166.4"/>
      <point x="177.6" y="216.6" type="curve" smooth="yes"/>
      <point x="177.6" y="263"/>
      <point x="149.5" y="306.6"/>
      <point x="90.9" y="351" type="curve"/>
      <point x="149" y="393.1"/>
      <point x="177.5" y="436.7"/>
      <point x="177.5" y="483.4" type="curve" smooth="yes"/>
      <point x="177.5" y="533.6"/>
      <point x="144.5" y="567"/>
      <point x="144.5" y="615.5" type="curve" smooth="yes"/>
      <point x="144.5" y="666.7"/>
      <point x="178" y="718"/>
      <point x="230.4" y="747.3" type="curve" smooth="yes"/>
      <point x="239.4" y="752.3"/>
      <point x="236.8" y="764.9"/>
      <point x="226.9" y="764.9" type="curve" smooth="yes"/>
      <point x="224.5" y="764.9"/>
      <point x="222" y="764.1"/>
      <point x="219.5" y="762.6" type="curve" smooth="yes"/>
      <point x="161.2" y="727.2"/>
      <point x="126.5" y="672.2"/>
      <point x="126.5" y="615" type="curve" smooth="yes"/>
      <point x="126.5" y="558.8"/>
      <point x="159.5" y="531.2"/>
      <point x="159.5" y="484" type="curve" smooth="yes"/>
      <point x="159.5" y="441.8"/>
      <point x="136.6" y="407.5"/>
      <point x="80" y="364.7" type="curve" smooth="yes"/>
      <point x="74" y="360.2"/>
      <point x="70.9" y="355.4"/>
      <point x="70.9" y="350.6" type="curve" smooth="yes"/>
      <point x="70.9" y="345.7"/>
      <point x="74" y="340.9"/>
      <point x="80.1" y="336.3" type="curve" smooth="yes"/>
      <point x="136.3" y="293.9"/>
      <point x="159.6" y="258.6"/>
      <point x="159.6" y="216" type="curve" smooth="yes"/>
      <point x="159.6" y="168.8"/>
      <point x="126.6" y="141.2"/>
      <point x="126.6" y="85" type="curve" smooth="yes"/>
      <point x="126.6" y="27.8"/>
      <point x="161.3" y="-27.2"/>
      <point x="219.6" y="-62.6" type="curve" smooth="yes"/>
      <point x="222.1" y="-64.1"/>
      <point x="224.6" y="-64.9"/>
      <point x="226.9" y="-64.9" type="curve" smooth="yes"/>
      <point x="237" y="-64.9"/>
      <point x="239.3" y="-52.2"/>
    </contour>
  </outline>
</glyph>
<glyph name="bar" format="2">
  <advance width="192"/>
  <unicode hex="007C"/>
  <outline>
    <contour>
      <point x="99.0466" y="-59.6071" type="curve" smooth="yes"/>
      <point x="116.169" y="261.002"/>
      <point x="116.137" y="395.457"/>
      <point x="98.8599" y="759.408" type="curve" smooth="yes"/>
      <point x="98.5633" y="765.656"/>
      <point x="94.7603" y="770.097"/>
      <point x="89.7074" y="770.097" type="curve" smooth="yes"/>
      <point x="84.2582" y="770.097"/>
      <point x="80.5789" y="765.001"/>
      <point x="80.8952" y="757.891" type="curve" smooth="yes"/>
      <point x="97.8423" y="376.984"/>
      <point x="97.8742" y="261.983"/>
      <point x="81.1262" y="-58.6307" type="curve" smooth="yes"/>
      <point x="80.7803" y="-65.2519"/>
      <point x="84.5582" y="-70.1703"/>
      <point x="89.9899" y="-70.1703" type="curve" smooth="yes"/>
      <point x="95.0195" y="-70.1703"/>
      <point x="98.7124" y="-65.863"/>
    </contour>
  </outline>
  <guideline angle="0" x="0" y="770"/>
  <guideline angle="0" x="0" y="-70"/>
</glyph>
<glyph name="braceright" format="1">
  <advance width="286"/>
  <unicode hex="007D"/>
  <outline>
    <contour>
      <point x="66.6" y="-62.6" type="curve" smooth="yes"/>
      <point x="125" y="-27.2"/>
      <point x="159.6" y="27.8"/>
      <point x="159.6" y="85" type="curve" smooth="yes"/>
      <point x="159.6" y="141.2"/>
      <point x="126.6" y="168.8"/>
      <point x="126.6" y="216" type="curve" smooth="yes"/>
      <point x="126.6" y="258.6"/>
      <point x="150" y="293.8"/>
      <point x="206.2" y="336.3" type="curve" smooth="yes"/>
      <point x="212.3" y="340.9"/>
      <point x="215.3" y="345.7"/>
      <point x="215.3" y="350.6" type="curve" smooth="yes"/>
      <point x="215.3" y="355.4"/>
      <point x="212.3" y="360.2"/>
      <point x="206.3" y="364.7" type="curve" smooth="yes"/>
      <point x="149.6" y="407.5"/>
      <point x="126.8" y="441.8"/>
      <point x="126.8" y="484" type="curve" smooth="yes"/>
      <point x="126.8" y="531.2"/>
      <point x="159.8" y="558.8"/>
      <point x="159.8" y="615" type="curve" smooth="yes"/>
      <point x="159.8" y="672.2"/>
      <point x="125.1" y="727.2"/>
      <point x="66.8" y="762.6" type="curve"/>
      <point x="64.2" y="764.1"/>
      <point x="61.8" y="764.9"/>
      <point x="59.4" y="764.9" type="curve" smooth="yes"/>
      <point x="50.2" y="764.9"/>
      <point x="46.6" y="752.5"/>
      <point x="57.9" y="746.2" type="curve" smooth="yes"/>
      <point x="108.7" y="717.7"/>
      <point x="141.8" y="666.3"/>
      <point x="141.8" y="615.5" type="curve" smooth="yes"/>
      <point x="141.8" y="567"/>
      <point x="108.8" y="533.6"/>
      <point x="108.8" y="483.4" type="curve" smooth="yes"/>
      <point x="108.8" y="436.7"/>
      <point x="137.2" y="393.1"/>
      <point x="195.3" y="351" type="curve"/>
      <point x="136.7" y="306.6"/>
      <point x="108.7" y="263"/>
      <point x="108.7" y="216.6" type="curve" smooth="yes"/>
      <point x="108.7" y="166.4"/>
      <point x="141.7" y="133"/>
      <point x="141.7" y="84.5" type="curve" smooth="yes"/>
      <point x="141.7" y="33.7"/>
      <point x="108.6" y="-17.8"/>
      <point x="57.8" y="-46.2" type="curve" smooth="yes"/>
      <point x="46.5" y="-52.4"/>
      <point x="50.1" y="-64.9"/>
      <point x="59.3" y="-64.9" type="curve" smooth="yes"/>
      <point x="61.7" y="-64.9"/>
      <point x="64.1" y="-64.1"/>
    </contour>
  </outline>
</glyph>
<glyph name="asciitilde" format="2">
  <advance width="508"/>
  <unicode hex="007E"/>
  <outline>
    <contour>
      <point x="434.489" y="312.337" type="curve" smooth="yes"/>
      <point x="436.685" y="314.419"/>
      <point x="437.859" y="316.951"/>
      <point x="437.859" y="319.601" type="curve" smooth="yes"/>
      <point x="437.859" y="327.964"/>
      <point x="428.53" y="331.525"/>
      <point x="422.286" y="325.545" type="curve" smooth="yes"/>
      <point x="384.456" y="289.315"/>
      <point x="353.149" y="273"/>
      <point x="321.454" y="273" type="curve" smooth="yes"/>
      <point x="272" y="273"/>
      <point x="245.982" y="326"/>
      <point x="179.158" y="326" type="curve" smooth="yes"/>
      <point x="139.093" y="326"/>
      <point x="104.608" y="308.703"/>
      <point x="73.1466" y="272.827" type="curve" smooth="yes"/>
      <point x="71.18" y="270.584"/>
      <point x="70.1437" y="268.11"/>
      <point x="70.1437" y="265.656" type="curve" smooth="yes"/>
      <point x="70.1437" y="257.029"/>
      <point x="80.4966" y="254.19"/>
      <point x="86.6331" y="261.135" type="curve" smooth="yes"/>
      <point x="113.747" y="291.821"/>
      <point x="147.328" y="308.977"/>
      <point x="180.279" y="308.977" type="curve" smooth="yes"/>
      <point x="235.966" y="308.977"/>
      <point x="261" y="255.977"/>
      <point x="324.212" y="255.977" type="curve" smooth="yes"/>
      <point x="359.696" y="255.977"/>
      <point x="393.008" y="273.002"/>
    </contour>
  </outline>
</glyph>
<glyph name="exclamdown" format="1">
  <advance width="223"/>
  <unicode hex="00A1"/>
  <outline>
    <contour>
      <point x="122" y="463.7" type="curve" smooth="yes"/>
      <point x="138.5" y="463.7"/>
      <point x="148" y="472.8"/>
      <point x="148" y="488.6" type="curve" smooth="yes"/>
      <point x="148" y="505.5"/>
      <point x="138.3" y="515.5"/>
      <point x="122" y="515.5" type="curve" smooth="yes"/>
      <point x="106.7" y="515.5"/>
      <point x="98" y="505.7"/>
      <point x="98" y="488.6" type="curve" smooth="yes"/>
      <point x="98" y="473.7"/>
      <point x="107.6" y="463.7"/>
    </contour>
    <contour>
      <point x="121.8" y="-188.7" type="curve" smooth="yes"/>
      <point x="112.9" y="-121.1"/>
      <point x="108.5" y="-32.1"/>
      <point x="108.5" y="57.4" type="curve" smooth="yes"/>
      <point x="108.5" y="144.7"/>
      <point x="112.7" y="232.6"/>
      <point x="121.2" y="301.7" type="curve" smooth="yes"/>
      <point x="121.9" y="307.7"/>
      <point x="116.9" y="311.5"/>
      <point x="111.9" y="311.5" type="curve" smooth="yes"/>
      <point x="107.7" y="311.5"/>
      <point x="103.5" y="308.9"/>
      <point x="102.7" y="302.7" type="curve" smooth="yes"/>
      <point x="94.6" y="239.2"/>
      <point x="90.6" y="153.5"/>
      <point x="90.6" y="66" type="curve" smooth="yes"/>
      <point x="90.6" y="-25.3"/>
      <point x="95" y="-118.5"/>
      <point x="103.7" y="-190.2" type="curve" smooth="yes"/>
      <point x="104.5" y="-197"/>
      <point x="109" y="-200.2"/>
      <point x="113.4" y="-200.2" type="curve" smooth="yes"/>
      <point x="118.2" y="-200.2"/>
      <point x="122.8" y="-196.2"/>
    </contour>
  </outline>
</glyph>
<glyph name="cent" format="1">
  <advance width="533"/>
  <unicode hex="00A2"/>
  <outline>
    <contour>
      <point x="320" y="-88" type="curve" smooth="yes"/>
      <point x="320" y="-10" type="line"/>
      <point x="385" y="-7"/>
      <point x="443" y="21"/>
      <point x="484" y="68" type="curve" smooth="yes"/>
      <point x="487" y="71"/>
      <point x="488" y="74"/>
      <point x="488" y="77" type="curve" smooth="yes"/>
      <point x="488" y="86"/>
      <point x="478" y="89"/>
      <point x="472" y="82" type="curve" smooth="yes"/>
      <point x="434" y="34"/>
      <point x="375" y="7"/>
      <point x="308" y="7" type="curve" smooth="yes"/>
      <point x="180" y="7"/>
      <point x="85" y="112"/>
      <point x="85" y="252" type="curve" smooth="yes"/>
      <point x="85" y="391"/>
      <point x="178" y="493"/>
      <point x="305" y="493" type="curve" smooth="yes"/>
      <point x="367" y="493"/>
      <point x="423" y="472"/>
      <point x="461" y="434" type="curve" smooth="yes"/>
      <point x="467" y="428"/>
      <point x="477" y="430"/>
      <point x="477" y="439" type="curve" smooth="yes"/>
      <point x="477" y="442"/>
      <point x="475" y="445"/>
      <point x="473" y="447" type="curve" smooth="yes"/>
      <point x="428" y="485"/>
      <point x="376" y="507"/>
      <point x="320" y="510" type="curve"/>
      <point x="320" y="588" type="line" smooth="yes"/>
      <point x="320" y="593"/>
      <point x="315" y="596"/>
      <point x="310" y="596" type="curve" smooth="yes"/>
      <point x="306" y="596"/>
      <point x="302" y="593"/>
      <point x="302" y="588" type="curve" smooth="yes"/>
      <point x="302" y="510" type="line"/>
      <point x="165" y="508"/>
      <point x="66" y="399"/>
      <point x="66" y="251" type="curve" smooth="yes"/>
      <point x="66" y="104"/>
      <point x="166" y="-7"/>
      <point x="302" y="-10" type="curve"/>
      <point x="302" y="-88" type="line" smooth="yes"/>
      <point x="302" y="-93"/>
      <point x="306" y="-95"/>
      <point x="310" y="-95" type="curve" smooth="yes"/>
      <point x="315" y="-95"/>
      <point x="320" y="-93"/>
    </contour>
  </outline>
</glyph>
<glyph name="sterling" format="1">
  <advance width="524"/>
  <unicode hex="00A3"/>
  <outline>
    <contour>
      <point x="352" y="347.2" type="curve" smooth="yes"/>
      <point x="356.8" y="348.2"/>
      <point x="360" y="351.9"/>
      <point x="360" y="356.4" type="curve" smooth="yes"/>
      <point x="360" y="361.8"/>
      <point x="355.3" y="364.9"/>
      <point x="349" y="363.6" type="curve" smooth="yes"/>
      <point x="296.4" y="352.7"/>
      <point x="242.4" y="344.7"/>
      <point x="185.2" y="339.4" type="curve"/>
      <point x="161.6" y="403"/>
      <point x="128.4" y="459.8"/>
      <point x="128.4" y="528.3" type="curve" smooth="yes"/>
      <point x="128.4" y="623.5"/>
      <point x="197.6" y="692.5"/>
      <point x="293.1" y="692.5" type="curve" smooth="yes"/>
      <point x="346.9" y="692.5"/>
      <point x="396.3" y="669.7"/>
      <point x="438.4" y="625.3" type="curve"/>
      <point x="440.7" y="623"/>
      <point x="443.4" y="621.7"/>
      <point x="446.1" y="621.7" type="curve" smooth="yes"/>
      <point x="454.5" y="621.7"/>
      <point x="457.6" y="631.3"/>
      <point x="451.3" y="637.9" type="curve" smooth="yes"/>
      <point x="407.1" y="684.4"/>
      <point x="349.9" y="710.2"/>
      <point x="290.9" y="710.2" type="curve" smooth="yes"/>
      <point x="186.7" y="710.2"/>
      <point x="109.6" y="632.9"/>
      <point x="109.6" y="528.1" type="curve" smooth="yes"/>
      <point x="109.6" y="460.6"/>
      <point x="141.7" y="399.9"/>
      <point x="165.5" y="337.6" type="curve"/>
      <point x="136.6" y="335.3"/>
      <point x="106.8" y="333.5"/>
      <point x="75.7" y="332.4" type="curve" smooth="yes"/>
      <point x="69.3" y="332.2"/>
      <point x="65" y="328.7"/>
      <point x="65" y="323.9" type="curve" smooth="yes"/>
      <point x="65" y="318.8"/>
      <point x="69.7" y="314.9"/>
      <point x="75.8" y="315" type="curve" smooth="yes"/>
      <point x="104.3" y="315.6"/>
      <point x="136.9" y="317.5"/>
      <point x="171.6" y="320.8" type="curve"/>
      <point x="184.5" y="283.9"/>
      <point x="190.5" y="253.3"/>
      <point x="190.5" y="224.2" type="curve" smooth="yes"/>
      <point x="190.5" y="148.9"/>
      <point x="154.4" y="74.8"/>
      <point x="86.2" y="10.1" type="curve" smooth="yes"/>
      <point x="83.6" y="7.7"/>
      <point x="82.2" y="4.8"/>
      <point x="82.2" y="1.9" type="curve" smooth="yes"/>
      <point x="82.2" y="-4.2"/>
      <point x="88.3" y="-7.6"/>
      <point x="94.8" y="-5.1" type="curve" smooth="yes"/>
      <point x="134.8" y="10.4"/>
      <point x="172.6" y="17.9"/>
      <point x="209.7" y="17.9" type="curve" smooth="yes"/>
      <point x="275.2" y="17.9"/>
      <point x="321.4" y="-6"/>
      <point x="371.6" y="-6" type="curve" smooth="yes"/>
      <point x="405.3" y="-6"/>
      <point x="433.7" y="3.9"/>
      <point x="467.4" y="27.1" type="curve" smooth="yes"/>
      <point x="477.7" y="34.2"/>
      <point x="474.5" y="46"/>
      <point x="465.8" y="46" type="curve" smooth="yes"/>
      <point x="462.9" y="46"/>
      <point x="459.7" y="44.7"/>
      <point x="456.5" y="42.1" type="curve" smooth="yes"/>
      <point x="429.7" y="20.9"/>
      <point x="402.9" y="11"/>
      <point x="372.2" y="11" type="curve" smooth="yes"/>
      <point x="324.5" y="11"/>
      <point x="276.9" y="34.9"/>
      <point x="212.7" y="34.9" type="curve" smooth="yes"/>
      <point x="181.3" y="34.9"/>
      <point x="147.4" y="29.2"/>
      <point x="116.3" y="18.6" type="curve"/>
      <point x="178.3" y="81.9"/>
      <point x="208.3" y="149"/>
      <point x="208.3" y="224.8" type="curve" smooth="yes"/>
      <point x="208.3" y="256"/>
      <point x="202.8" y="287.4"/>
      <point x="191" y="322.7" type="curve"/>
      <point x="246.5" y="328.5"/>
      <point x="302.9" y="337.1"/>
    </contour>
  </outline>
</glyph>
<glyph name="currency" format="1">
  <advance width="553"/>
  <unicode hex="00A4"/>
  <outline>
    <contour>
      <point x="277.3" y="203.6" type="curve" smooth="yes"/>
      <point x="318.3" y="203.6"/>
      <point x="352.8" y="216.4"/>
      <point x="377.8" y="239.1" type="curve"/>
      <point x="456.5" y="156.9" type="line" smooth="yes"/>
      <point x="458.4" y="154.9"/>
      <point x="460.7" y="154"/>
      <point x="463" y="154" type="curve" smooth="yes"/>
      <point x="470.3" y="154"/>
      <point x="477.2" y="163.2"/>
      <point x="469.7" y="170.4" type="curve" smooth="yes"/>
      <point x="387.6" y="249" type="line"/>
      <point x="409.7" y="274.1"/>
      <point x="422.2" y="308.5"/>
      <point x="422.2" y="349.5" type="curve" smooth="yes"/>
      <point x="422.2" y="390.7"/>
      <point x="409.6" y="425.4"/>
      <point x="387.3" y="450.8" type="curve"/>
      <point x="469.7" y="529.6" type="line" smooth="yes"/>
      <point x="476.6" y="536.2"/>
      <point x="469.8" y="545.8"/>
      <point x="462.6" y="545.8" type="curve" smooth="yes"/>
      <point x="460.5" y="545.8"/>
      <point x="458.3" y="545"/>
      <point x="456.4" y="543" type="curve" smooth="yes"/>
      <point x="377.6" y="460.7" type="line"/>
      <point x="352.5" y="483.5"/>
      <point x="318.1" y="496.4"/>
      <point x="277.3" y="496.4" type="curve" smooth="yes"/>
      <point x="236.2" y="496.4"/>
      <point x="201.4" y="483.4"/>
      <point x="176.2" y="460.4" type="curve"/>
      <point x="97.1" y="542.9" type="line"/>
      <point x="95.3" y="544.9"/>
      <point x="93.1" y="545.7"/>
      <point x="91" y="545.7" type="curve" smooth="yes"/>
      <point x="83.8" y="545.7"/>
      <point x="76.8" y="536.4"/>
      <point x="83.7" y="529.7" type="curve" smooth="yes"/>
      <point x="166.4" y="450.5" type="line"/>
      <point x="144" y="425.1"/>
      <point x="131.2" y="390.5"/>
      <point x="131.2" y="349.4" type="curve" smooth="yes"/>
      <point x="131.2" y="308.7"/>
      <point x="143.9" y="274.4"/>
      <point x="166.1" y="249.2" type="curve"/>
      <point x="83.7" y="170.2" type="line" smooth="yes"/>
      <point x="76.5" y="163.4"/>
      <point x="83.4" y="154.2"/>
      <point x="90.7" y="154.2" type="curve" smooth="yes"/>
      <point x="92.9" y="154.2"/>
      <point x="95.2" y="155"/>
      <point x="97.1" y="157" type="curve" smooth="yes"/>
      <point x="175.9" y="239.4" type="line"/>
      <point x="201.2" y="216.5"/>
      <point x="236" y="203.6"/>
    </contour>
    <contour>
      <point x="276.8" y="221.4" type="curve" smooth="yes"/>
      <point x="202.1" y="221.4"/>
      <point x="148.8" y="275"/>
      <point x="148.8" y="350" type="curve" smooth="yes"/>
      <point x="148.8" y="425"/>
      <point x="202.1" y="478.6"/>
      <point x="276.8" y="478.6" type="curve" smooth="yes"/>
      <point x="350.8" y="478.6"/>
      <point x="403.8" y="425"/>
      <point x="403.8" y="350" type="curve" smooth="yes"/>
      <point x="403.8" y="275"/>
      <point x="350.8" y="221.4"/>
    </contour>
  </outline>
</glyph>
<glyph name="yen" format="1">
  <advance width="587"/>
  <unicode hex="00A5"/>
  <outline>
    <contour>
      <point x="473" y="190" type="curve" smooth="yes"/>
      <point x="479" y="190"/>
      <point x="484" y="194"/>
      <point x="484" y="199" type="curve" smooth="yes"/>
      <point x="484" y="204"/>
      <point x="478" y="208"/>
      <point x="471" y="207" type="curve" smooth="yes"/>
      <point x="412" y="201"/>
      <point x="369" y="197"/>
      <point x="327" y="195" type="curve"/>
      <point x="326" y="226"/>
      <point x="324" y="261"/>
      <point x="320" y="303" type="curve"/>
      <point x="363" y="306"/>
      <point x="410" y="310"/>
      <point x="473" y="316" type="curve" smooth="yes"/>
      <point x="479" y="317"/>
      <point x="484" y="320"/>
      <point x="484" y="325" type="curve" smooth="yes"/>
      <point x="484" y="330"/>
      <point x="478" y="334"/>
      <point x="471" y="333" type="curve" smooth="yes"/>
      <point x="413" y="327"/>
      <point x="370" y="323"/>
      <point x="329" y="321" type="curve"/>
      <point x="401" y="433"/>
      <point x="469" y="556"/>
      <point x="535" y="692" type="curve" smooth="yes"/>
      <point x="538" y="699"/>
      <point x="535" y="706"/>
      <point x="528" y="706" type="curve" smooth="yes"/>
      <point x="524" y="706"/>
      <point x="521" y="704"/>
      <point x="519" y="700" type="curve" smooth="yes"/>
      <point x="450" y="558"/>
      <point x="376" y="426"/>
      <point x="312" y="329" type="curve"/>
      <point x="249" y="468"/>
      <point x="175" y="585"/>
      <point x="77" y="702" type="curve" smooth="yes"/>
      <point x="75" y="704"/>
      <point x="72" y="706"/>
      <point x="69" y="706" type="curve" smooth="yes"/>
      <point x="61" y="706"/>
      <point x="58" y="697"/>
      <point x="63" y="691" type="curve" smooth="yes"/>
      <point x="155" y="584"/>
      <point x="249" y="434"/>
      <point x="297" y="319" type="curve"/>
      <point x="248" y="318"/>
      <point x="197" y="318"/>
      <point x="125" y="319" type="curve" smooth="yes"/>
      <point x="118" y="320"/>
      <point x="114" y="316"/>
      <point x="114" y="311" type="curve" smooth="yes"/>
      <point x="114" y="306"/>
      <point x="118" y="303"/>
      <point x="124" y="302" type="curve" smooth="yes"/>
      <point x="199" y="300"/>
      <point x="251" y="300"/>
      <point x="302" y="302" type="curve"/>
      <point x="305" y="262"/>
      <point x="307" y="226"/>
      <point x="309" y="194" type="curve"/>
      <point x="257" y="191"/>
      <point x="203" y="191"/>
      <point x="126" y="193" type="curve" smooth="yes"/>
      <point x="119" y="193"/>
      <point x="114" y="190"/>
      <point x="114" y="185" type="curve" smooth="yes"/>
      <point x="114" y="180"/>
      <point x="118" y="176"/>
      <point x="124" y="176" type="curve" smooth="yes"/>
      <point x="202" y="174"/>
      <point x="256" y="174"/>
      <point x="310" y="177" type="curve"/>
      <point x="312" y="109"/>
      <point x="312" y="55"/>
      <point x="307" y="3" type="curve" smooth="yes"/>
      <point x="307" y="-2"/>
      <point x="311" y="-6"/>
      <point x="316" y="-6" type="curve" smooth="yes"/>
      <point x="322" y="-6"/>
      <point x="325" y="-3"/>
      <point x="326" y="2" type="curve" smooth="yes"/>
      <point x="330" y="56"/>
      <point x="331" y="111"/>
      <point x="328" y="178" type="curve"/>
      <point x="369" y="180"/>
      <point x="413" y="184"/>
    </contour>
  </outline>
</glyph>
<glyph name="brokenbar" format="1">
  <advance width="207"/>
  <unicode hex="00A6"/>
  <outline>
    <contour>
      <point x="117" y="389" type="curve" smooth="yes"/>
      <point x="116" y="527"/>
      <point x="111" y="636"/>
      <point x="98" y="761" type="curve" smooth="yes"/>
      <point x="98" y="766"/>
      <point x="94" y="770"/>
      <point x="89" y="770" type="curve" smooth="yes"/>
      <point x="84" y="770"/>
      <point x="80" y="765"/>
      <point x="80" y="759" type="curve" smooth="yes"/>
      <point x="93" y="635"/>
      <point x="98" y="533"/>
      <point x="98" y="389" type="curve" smooth="yes"/>
      <point x="98" y="383"/>
      <point x="102" y="378"/>
      <point x="107" y="378" type="curve" smooth="yes"/>
      <point x="113" y="378"/>
      <point x="117" y="383"/>
    </contour>
    <contour>
      <point x="102" y="-61" type="curve" smooth="yes"/>
      <point x="113" y="107"/>
      <point x="117" y="199"/>
      <point x="116" y="322" type="curve" smooth="yes"/>
      <point x="116" y="328"/>
      <point x="112" y="333"/>
      <point x="107" y="333" type="curve" smooth="yes"/>
      <point x="102" y="333"/>
      <point x="98" y="328"/>
      <point x="98" y="322" type="curve" smooth="yes"/>
      <point x="99" y="205"/>
      <point x="95" y="111"/>
      <point x="84" y="-60" type="curve" smooth="yes"/>
      <point x="83" y="-66"/>
      <point x="87" y="-70"/>
      <point x="93" y="-70" type="curve" smooth="yes"/>
      <point x="98" y="-70"/>
      <point x="101" y="-66"/>
    </contour>
  </outline>
</glyph>
<glyph name="section" format="1">
  <advance width="524"/>
  <unicode hex="00A7"/>
  <outline>
    <contour>
      <point x="244.8" y="-210.1" type="curve" smooth="yes"/>
      <point x="352.1" y="-210.1"/>
      <point x="420.6" y="-147.7"/>
      <point x="420.6" y="-49.7" type="curve" smooth="yes"/>
      <point x="420.6" y="-7"/>
      <point x="407.5" y="28.4"/>
      <point x="380.6" y="57.9" type="curve"/>
      <point x="430.8" y="92"/>
      <point x="458.4" y="141.6"/>
      <point x="458.4" y="197.5" type="curve" smooth="yes"/>
      <point x="458.4" y="400.2"/>
      <point x="117.3" y="343.7"/>
      <point x="117.3" y="548.2" type="curve" smooth="yes"/>
      <point x="117.3" y="636.1"/>
      <point x="179.9" y="692.5"/>
      <point x="277.4" y="692.5" type="curve" smooth="yes"/>
      <point x="328.2" y="692.5"/>
      <point x="377.5" y="676.6"/>
      <point x="418.6" y="646.7" type="curve" smooth="yes"/>
      <point x="425.1" y="641.9"/>
      <point x="434.2" y="645.9"/>
      <point x="434.2" y="653.5" type="curve" smooth="yes"/>
      <point x="434.2" y="656.7"/>
      <point x="432.3" y="659.7"/>
      <point x="428.8" y="662" type="curve" smooth="yes"/>
      <point x="380.4" y="693.5"/>
      <point x="327.9" y="709.8"/>
      <point x="274.3" y="709.8" type="curve" smooth="yes"/>
      <point x="167" y="709.8"/>
      <point x="98.5" y="647.3"/>
      <point x="98.5" y="549.4" type="curve" smooth="yes"/>
      <point x="98.5" y="506.6"/>
      <point x="111.6" y="471.3"/>
      <point x="138.5" y="441.7" type="curve"/>
      <point x="88.3" y="407.6"/>
      <point x="60.7" y="358"/>
      <point x="60.7" y="302.1" type="curve" smooth="yes"/>
      <point x="60.7" y="99.5"/>
      <point x="401.8" y="156"/>
      <point x="401.8" y="-48.6" type="curve" smooth="yes"/>
      <point x="401.8" y="-136.5"/>
      <point x="339.3" y="-192.9"/>
      <point x="241.7" y="-192.9" type="curve" smooth="yes"/>
      <point x="191" y="-192.9"/>
      <point x="141.8" y="-176.9"/>
      <point x="100.5" y="-147" type="curve" smooth="yes"/>
      <point x="93.9" y="-142.3"/>
      <point x="84.9" y="-146.3"/>
      <point x="84.9" y="-153.9" type="curve" smooth="yes"/>
      <point x="84.9" y="-157.1"/>
      <point x="86.8" y="-160.1"/>
      <point x="90.3" y="-162.3" type="curve" smooth="yes"/>
      <point x="138.7" y="-193.9"/>
      <point x="191.2" y="-210.1"/>
    </contour>
    <contour>
      <point x="368.7" y="69.9" type="curve"/>
      <point x="273.1" y="157.2"/>
      <point x="79.1" y="162.1"/>
      <point x="79.1" y="304.7" type="curve" smooth="yes"/>
      <point x="79.1" y="354.9"/>
      <point x="103.7" y="398.1"/>
      <point x="150.5" y="429.7" type="curve"/>
      <point x="246.1" y="342.4"/>
      <point x="440.1" y="337.5"/>
      <point x="440.1" y="194.9" type="curve" smooth="yes"/>
      <point x="440.1" y="144.7"/>
      <point x="415.4" y="101.5"/>
    </contour>
  </outline>
</glyph>
